G04 #@! TF.GenerationSoftware,KiCad,Pcbnew,(5.0.0)*
G04 #@! TF.CreationDate,2019-08-12T19:05:11-04:00*
G04 #@! TF.ProjectId,mullet-pcb,6D756C6C65742D7063622E6B69636164,rev?*
G04 #@! TF.SameCoordinates,Original*
G04 #@! TF.FileFunction,Paste,Bot*
G04 #@! TF.FilePolarity,Positive*
%FSLAX46Y46*%
G04 Gerber Fmt 4.6, Leading zero omitted, Abs format (unit mm)*
G04 Created by KiCad (PCBNEW (5.0.0)) date 08/12/19 19:05:11*
%MOMM*%
%LPD*%
G01*
G04 APERTURE LIST*
%ADD10R,1.500000X1.000000*%
%ADD11C,0.100000*%
%ADD12C,0.875000*%
%ADD13R,1.700000X1.000000*%
%ADD14R,0.700000X0.250000*%
%ADD15R,0.250000X0.700000*%
%ADD16R,0.772500X0.772500*%
%ADD17R,1.400000X1.200000*%
%ADD18R,1.200000X0.900000*%
%ADD19R,0.300000X2.450000*%
%ADD20R,0.600000X2.450000*%
%ADD21R,0.700000X0.600000*%
%ADD22R,0.700000X1.000000*%
%ADD23C,0.975000*%
G04 APERTURE END LIST*
D10*
G04 #@! TO.C,LED5*
X175868721Y-109735580D03*
X175868721Y-106535580D03*
X180768721Y-109735580D03*
X180768721Y-106535580D03*
G04 #@! TD*
D11*
G04 #@! TO.C,R1*
G36*
X80172037Y-101977501D02*
X80193272Y-101980651D01*
X80214096Y-101985867D01*
X80234308Y-101993099D01*
X80253714Y-102002278D01*
X80272127Y-102013314D01*
X80289370Y-102026102D01*
X80305276Y-102040518D01*
X80319692Y-102056424D01*
X80332480Y-102073667D01*
X80343516Y-102092080D01*
X80352695Y-102111486D01*
X80359927Y-102131698D01*
X80365143Y-102152522D01*
X80368293Y-102173757D01*
X80369346Y-102195198D01*
X80369346Y-102632698D01*
X80368293Y-102654139D01*
X80365143Y-102675374D01*
X80359927Y-102696198D01*
X80352695Y-102716410D01*
X80343516Y-102735816D01*
X80332480Y-102754229D01*
X80319692Y-102771472D01*
X80305276Y-102787378D01*
X80289370Y-102801794D01*
X80272127Y-102814582D01*
X80253714Y-102825618D01*
X80234308Y-102834797D01*
X80214096Y-102842029D01*
X80193272Y-102847245D01*
X80172037Y-102850395D01*
X80150596Y-102851448D01*
X79638096Y-102851448D01*
X79616655Y-102850395D01*
X79595420Y-102847245D01*
X79574596Y-102842029D01*
X79554384Y-102834797D01*
X79534978Y-102825618D01*
X79516565Y-102814582D01*
X79499322Y-102801794D01*
X79483416Y-102787378D01*
X79469000Y-102771472D01*
X79456212Y-102754229D01*
X79445176Y-102735816D01*
X79435997Y-102716410D01*
X79428765Y-102696198D01*
X79423549Y-102675374D01*
X79420399Y-102654139D01*
X79419346Y-102632698D01*
X79419346Y-102195198D01*
X79420399Y-102173757D01*
X79423549Y-102152522D01*
X79428765Y-102131698D01*
X79435997Y-102111486D01*
X79445176Y-102092080D01*
X79456212Y-102073667D01*
X79469000Y-102056424D01*
X79483416Y-102040518D01*
X79499322Y-102026102D01*
X79516565Y-102013314D01*
X79534978Y-102002278D01*
X79554384Y-101993099D01*
X79574596Y-101985867D01*
X79595420Y-101980651D01*
X79616655Y-101977501D01*
X79638096Y-101976448D01*
X80150596Y-101976448D01*
X80172037Y-101977501D01*
X80172037Y-101977501D01*
G37*
D12*
X79894346Y-102413948D03*
D11*
G36*
X80172037Y-100402501D02*
X80193272Y-100405651D01*
X80214096Y-100410867D01*
X80234308Y-100418099D01*
X80253714Y-100427278D01*
X80272127Y-100438314D01*
X80289370Y-100451102D01*
X80305276Y-100465518D01*
X80319692Y-100481424D01*
X80332480Y-100498667D01*
X80343516Y-100517080D01*
X80352695Y-100536486D01*
X80359927Y-100556698D01*
X80365143Y-100577522D01*
X80368293Y-100598757D01*
X80369346Y-100620198D01*
X80369346Y-101057698D01*
X80368293Y-101079139D01*
X80365143Y-101100374D01*
X80359927Y-101121198D01*
X80352695Y-101141410D01*
X80343516Y-101160816D01*
X80332480Y-101179229D01*
X80319692Y-101196472D01*
X80305276Y-101212378D01*
X80289370Y-101226794D01*
X80272127Y-101239582D01*
X80253714Y-101250618D01*
X80234308Y-101259797D01*
X80214096Y-101267029D01*
X80193272Y-101272245D01*
X80172037Y-101275395D01*
X80150596Y-101276448D01*
X79638096Y-101276448D01*
X79616655Y-101275395D01*
X79595420Y-101272245D01*
X79574596Y-101267029D01*
X79554384Y-101259797D01*
X79534978Y-101250618D01*
X79516565Y-101239582D01*
X79499322Y-101226794D01*
X79483416Y-101212378D01*
X79469000Y-101196472D01*
X79456212Y-101179229D01*
X79445176Y-101160816D01*
X79435997Y-101141410D01*
X79428765Y-101121198D01*
X79423549Y-101100374D01*
X79420399Y-101079139D01*
X79419346Y-101057698D01*
X79419346Y-100620198D01*
X79420399Y-100598757D01*
X79423549Y-100577522D01*
X79428765Y-100556698D01*
X79435997Y-100536486D01*
X79445176Y-100517080D01*
X79456212Y-100498667D01*
X79469000Y-100481424D01*
X79483416Y-100465518D01*
X79499322Y-100451102D01*
X79516565Y-100438314D01*
X79534978Y-100427278D01*
X79554384Y-100418099D01*
X79574596Y-100410867D01*
X79595420Y-100405651D01*
X79616655Y-100402501D01*
X79638096Y-100401448D01*
X80150596Y-100401448D01*
X80172037Y-100402501D01*
X80172037Y-100402501D01*
G37*
D12*
X79894346Y-100838948D03*
G04 #@! TD*
D11*
G04 #@! TO.C,R2*
G36*
X85578816Y-100402501D02*
X85600051Y-100405651D01*
X85620875Y-100410867D01*
X85641087Y-100418099D01*
X85660493Y-100427278D01*
X85678906Y-100438314D01*
X85696149Y-100451102D01*
X85712055Y-100465518D01*
X85726471Y-100481424D01*
X85739259Y-100498667D01*
X85750295Y-100517080D01*
X85759474Y-100536486D01*
X85766706Y-100556698D01*
X85771922Y-100577522D01*
X85775072Y-100598757D01*
X85776125Y-100620198D01*
X85776125Y-101057698D01*
X85775072Y-101079139D01*
X85771922Y-101100374D01*
X85766706Y-101121198D01*
X85759474Y-101141410D01*
X85750295Y-101160816D01*
X85739259Y-101179229D01*
X85726471Y-101196472D01*
X85712055Y-101212378D01*
X85696149Y-101226794D01*
X85678906Y-101239582D01*
X85660493Y-101250618D01*
X85641087Y-101259797D01*
X85620875Y-101267029D01*
X85600051Y-101272245D01*
X85578816Y-101275395D01*
X85557375Y-101276448D01*
X85044875Y-101276448D01*
X85023434Y-101275395D01*
X85002199Y-101272245D01*
X84981375Y-101267029D01*
X84961163Y-101259797D01*
X84941757Y-101250618D01*
X84923344Y-101239582D01*
X84906101Y-101226794D01*
X84890195Y-101212378D01*
X84875779Y-101196472D01*
X84862991Y-101179229D01*
X84851955Y-101160816D01*
X84842776Y-101141410D01*
X84835544Y-101121198D01*
X84830328Y-101100374D01*
X84827178Y-101079139D01*
X84826125Y-101057698D01*
X84826125Y-100620198D01*
X84827178Y-100598757D01*
X84830328Y-100577522D01*
X84835544Y-100556698D01*
X84842776Y-100536486D01*
X84851955Y-100517080D01*
X84862991Y-100498667D01*
X84875779Y-100481424D01*
X84890195Y-100465518D01*
X84906101Y-100451102D01*
X84923344Y-100438314D01*
X84941757Y-100427278D01*
X84961163Y-100418099D01*
X84981375Y-100410867D01*
X85002199Y-100405651D01*
X85023434Y-100402501D01*
X85044875Y-100401448D01*
X85557375Y-100401448D01*
X85578816Y-100402501D01*
X85578816Y-100402501D01*
G37*
D12*
X85301125Y-100838948D03*
D11*
G36*
X85578816Y-101977501D02*
X85600051Y-101980651D01*
X85620875Y-101985867D01*
X85641087Y-101993099D01*
X85660493Y-102002278D01*
X85678906Y-102013314D01*
X85696149Y-102026102D01*
X85712055Y-102040518D01*
X85726471Y-102056424D01*
X85739259Y-102073667D01*
X85750295Y-102092080D01*
X85759474Y-102111486D01*
X85766706Y-102131698D01*
X85771922Y-102152522D01*
X85775072Y-102173757D01*
X85776125Y-102195198D01*
X85776125Y-102632698D01*
X85775072Y-102654139D01*
X85771922Y-102675374D01*
X85766706Y-102696198D01*
X85759474Y-102716410D01*
X85750295Y-102735816D01*
X85739259Y-102754229D01*
X85726471Y-102771472D01*
X85712055Y-102787378D01*
X85696149Y-102801794D01*
X85678906Y-102814582D01*
X85660493Y-102825618D01*
X85641087Y-102834797D01*
X85620875Y-102842029D01*
X85600051Y-102847245D01*
X85578816Y-102850395D01*
X85557375Y-102851448D01*
X85044875Y-102851448D01*
X85023434Y-102850395D01*
X85002199Y-102847245D01*
X84981375Y-102842029D01*
X84961163Y-102834797D01*
X84941757Y-102825618D01*
X84923344Y-102814582D01*
X84906101Y-102801794D01*
X84890195Y-102787378D01*
X84875779Y-102771472D01*
X84862991Y-102754229D01*
X84851955Y-102735816D01*
X84842776Y-102716410D01*
X84835544Y-102696198D01*
X84830328Y-102675374D01*
X84827178Y-102654139D01*
X84826125Y-102632698D01*
X84826125Y-102195198D01*
X84827178Y-102173757D01*
X84830328Y-102152522D01*
X84835544Y-102131698D01*
X84842776Y-102111486D01*
X84851955Y-102092080D01*
X84862991Y-102073667D01*
X84875779Y-102056424D01*
X84890195Y-102040518D01*
X84906101Y-102026102D01*
X84923344Y-102013314D01*
X84941757Y-102002278D01*
X84961163Y-101993099D01*
X84981375Y-101985867D01*
X85002199Y-101980651D01*
X85023434Y-101977501D01*
X85044875Y-101976448D01*
X85557375Y-101976448D01*
X85578816Y-101977501D01*
X85578816Y-101977501D01*
G37*
D12*
X85301125Y-102413948D03*
G04 #@! TD*
D13*
G04 #@! TO.C,RESET1*
X93279641Y-117174628D03*
X99579641Y-117174628D03*
X93279641Y-113374628D03*
X99579641Y-113374628D03*
G04 #@! TD*
D14*
G04 #@! TO.C,U1*
X89313629Y-137288190D03*
X89313629Y-136788191D03*
X89313629Y-136288190D03*
X89313629Y-135788190D03*
X89313629Y-135288189D03*
X89313629Y-134788190D03*
X89313629Y-134288191D03*
X89313629Y-133788190D03*
X89313629Y-133288190D03*
X89313629Y-132788189D03*
X89313629Y-132288190D03*
D15*
X90213629Y-131388190D03*
X90713628Y-131388190D03*
X91213629Y-131388190D03*
X91713629Y-131388190D03*
X92213630Y-131388190D03*
X92713629Y-131388190D03*
X93213628Y-131388190D03*
X93713629Y-131388190D03*
X94213629Y-131388190D03*
X94713630Y-131388190D03*
X95213629Y-131388190D03*
D14*
X96113629Y-132288190D03*
X96113629Y-132788189D03*
X96113629Y-133288190D03*
X96113629Y-133788190D03*
X96113629Y-134288191D03*
X96113629Y-134788190D03*
X96113629Y-135288189D03*
X96113629Y-135788190D03*
X96113629Y-136288190D03*
X96113629Y-136788191D03*
X96113629Y-137288190D03*
D15*
X95213629Y-138188190D03*
X94713630Y-138188190D03*
X94213629Y-138188190D03*
X93713629Y-138188190D03*
X93213628Y-138188190D03*
X92713629Y-138188190D03*
X92213630Y-138188190D03*
X91713629Y-138188190D03*
X91213629Y-138188190D03*
X90713628Y-138188190D03*
X90213629Y-138188190D03*
D16*
X94644879Y-132856940D03*
X94644879Y-134144440D03*
X94644879Y-135431940D03*
X94644879Y-136719440D03*
X93357379Y-132856940D03*
X93357379Y-134144440D03*
X93357379Y-135431940D03*
X93357379Y-136719440D03*
X92069879Y-132856940D03*
X92069879Y-134144440D03*
X92069879Y-135431940D03*
X92069879Y-136719440D03*
X90782379Y-132856940D03*
X90782379Y-134144440D03*
X90782379Y-135431940D03*
X90782379Y-136719440D03*
G04 #@! TD*
D17*
G04 #@! TO.C,X1*
X91628110Y-126015501D03*
X94028110Y-126015501D03*
X91628110Y-124315501D03*
X94028110Y-124315501D03*
G04 #@! TD*
D18*
G04 #@! TO.C,D1*
X70056166Y-111382509D03*
X70056166Y-108082509D03*
G04 #@! TD*
G04 #@! TO.C,D2*
X88450705Y-111307877D03*
X88450705Y-108007877D03*
G04 #@! TD*
G04 #@! TO.C,D3*
X107648166Y-111382509D03*
X107648166Y-108082509D03*
G04 #@! TD*
G04 #@! TO.C,D4*
X127460166Y-111382509D03*
X127460166Y-108082509D03*
G04 #@! TD*
G04 #@! TO.C,D5*
X146510166Y-111382509D03*
X146510166Y-108082509D03*
G04 #@! TD*
G04 #@! TO.C,D6*
X165306166Y-111382509D03*
X165306166Y-108082509D03*
G04 #@! TD*
G04 #@! TO.C,D7*
X184356166Y-111382509D03*
X184356166Y-108082509D03*
G04 #@! TD*
G04 #@! TO.C,D8*
X203406166Y-111382509D03*
X203406166Y-108082509D03*
G04 #@! TD*
G04 #@! TO.C,D9*
X222456166Y-111382509D03*
X222456166Y-108082509D03*
G04 #@! TD*
G04 #@! TO.C,D10*
X241760166Y-108082509D03*
X241760166Y-111382509D03*
G04 #@! TD*
G04 #@! TO.C,D11*
X260556166Y-108082509D03*
X260556166Y-111382509D03*
G04 #@! TD*
G04 #@! TO.C,D12*
X279606166Y-108082509D03*
X279606166Y-111382509D03*
G04 #@! TD*
G04 #@! TO.C,D13*
X298656166Y-108336509D03*
X298656166Y-111636509D03*
G04 #@! TD*
G04 #@! TO.C,D14*
X327358166Y-108082509D03*
X327358166Y-111382509D03*
G04 #@! TD*
G04 #@! TO.C,D15*
X355806166Y-108082509D03*
X355806166Y-111382509D03*
G04 #@! TD*
G04 #@! TO.C,D16*
X69815690Y-121551071D03*
X69815690Y-124851071D03*
G04 #@! TD*
G04 #@! TO.C,D17*
X109867849Y-124956057D03*
X109867849Y-121656057D03*
G04 #@! TD*
G04 #@! TO.C,D18*
X112597485Y-121656057D03*
X112597485Y-124956057D03*
G04 #@! TD*
G04 #@! TO.C,D19*
X147872781Y-121708550D03*
X147872781Y-125008550D03*
G04 #@! TD*
G04 #@! TO.C,D20*
X150707403Y-121708550D03*
X150707403Y-125008550D03*
G04 #@! TD*
G04 #@! TO.C,D21*
X186140178Y-121918522D03*
X186140178Y-125218522D03*
G04 #@! TD*
G04 #@! TO.C,D22*
X188922307Y-121918522D03*
X188922307Y-125218522D03*
G04 #@! TD*
G04 #@! TO.C,D23*
X224092617Y-122128494D03*
X224092617Y-125428494D03*
G04 #@! TD*
G04 #@! TO.C,D24*
X226874746Y-122076001D03*
X226874746Y-125376001D03*
G04 #@! TD*
G04 #@! TO.C,D25*
X262360014Y-125428494D03*
X262360014Y-122128494D03*
G04 #@! TD*
G04 #@! TO.C,D26*
X265037157Y-122128494D03*
X265037157Y-125428494D03*
G04 #@! TD*
G04 #@! TO.C,D27*
X300469932Y-121971015D03*
X300469932Y-125271015D03*
G04 #@! TD*
G04 #@! TO.C,D28*
X303147075Y-122023508D03*
X303147075Y-125323508D03*
G04 #@! TD*
G04 #@! TO.C,D29*
X326139009Y-122076001D03*
X326139009Y-125376001D03*
G04 #@! TD*
G04 #@! TO.C,D30*
X350338282Y-122180987D03*
X350338282Y-125480987D03*
G04 #@! TD*
G04 #@! TO.C,D31*
X76914166Y-146182509D03*
X76914166Y-149482509D03*
G04 #@! TD*
G04 #@! TO.C,D32*
X103411210Y-146117795D03*
X103411210Y-149417795D03*
G04 #@! TD*
G04 #@! TO.C,D33*
X122634166Y-146182509D03*
X122634166Y-149482509D03*
G04 #@! TD*
G04 #@! TO.C,D34*
X141430166Y-149482509D03*
X141430166Y-146182509D03*
G04 #@! TD*
G04 #@! TO.C,D35*
X160734166Y-149482509D03*
X160734166Y-146182509D03*
G04 #@! TD*
G04 #@! TO.C,D36*
X179530166Y-149482509D03*
X179530166Y-146182509D03*
G04 #@! TD*
G04 #@! TO.C,D37*
X198580166Y-149482509D03*
X198580166Y-146182509D03*
G04 #@! TD*
G04 #@! TO.C,D38*
X217884166Y-149482509D03*
X217884166Y-146182509D03*
G04 #@! TD*
G04 #@! TO.C,D39*
X236934166Y-146182509D03*
X236934166Y-149482509D03*
G04 #@! TD*
G04 #@! TO.C,D40*
X256238166Y-149482509D03*
X256238166Y-146182509D03*
G04 #@! TD*
G04 #@! TO.C,D41*
X274780166Y-149482509D03*
X274780166Y-146182509D03*
G04 #@! TD*
G04 #@! TO.C,D42*
X293830166Y-149482509D03*
X293830166Y-146182509D03*
G04 #@! TD*
G04 #@! TO.C,D43*
X324818166Y-149482509D03*
X324818166Y-146182509D03*
G04 #@! TD*
G04 #@! TO.C,D44*
X355806166Y-149482509D03*
X355806166Y-146182509D03*
G04 #@! TD*
G04 #@! TO.C,D45*
X81740166Y-168532509D03*
X81740166Y-165232509D03*
G04 #@! TD*
G04 #@! TO.C,D46*
X112982166Y-168532509D03*
X112982166Y-165232509D03*
G04 #@! TD*
G04 #@! TO.C,D47*
X132032166Y-168532509D03*
X132032166Y-165232509D03*
G04 #@! TD*
G04 #@! TO.C,D48*
X151082166Y-168532509D03*
X151082166Y-165232509D03*
G04 #@! TD*
G04 #@! TO.C,D49*
X170132166Y-168532509D03*
X170132166Y-165232509D03*
G04 #@! TD*
G04 #@! TO.C,D50*
X188928166Y-168532509D03*
X188928166Y-165232509D03*
G04 #@! TD*
G04 #@! TO.C,D51*
X208232166Y-165232509D03*
X208232166Y-168532509D03*
G04 #@! TD*
G04 #@! TO.C,D52*
X227536166Y-165232509D03*
X227536166Y-168532509D03*
G04 #@! TD*
G04 #@! TO.C,D53*
X246332166Y-168532509D03*
X246332166Y-165232509D03*
G04 #@! TD*
G04 #@! TO.C,D54*
X265382166Y-168532509D03*
X265382166Y-165232509D03*
G04 #@! TD*
G04 #@! TO.C,D55*
X284432166Y-168532509D03*
X284432166Y-165232509D03*
G04 #@! TD*
G04 #@! TO.C,D56*
X310340166Y-168532509D03*
X310340166Y-165232509D03*
G04 #@! TD*
G04 #@! TO.C,D57*
X336756166Y-168532509D03*
X336756166Y-165232509D03*
G04 #@! TD*
G04 #@! TO.C,D58*
X355806166Y-168532509D03*
X355806166Y-165232509D03*
G04 #@! TD*
G04 #@! TO.C,D59*
X72342166Y-184028509D03*
X72342166Y-187328509D03*
G04 #@! TD*
G04 #@! TO.C,D60*
X96218166Y-184028509D03*
X96218166Y-187328509D03*
G04 #@! TD*
G04 #@! TO.C,D61*
X120094166Y-184028509D03*
X120094166Y-187328509D03*
G04 #@! TD*
G04 #@! TO.C,D62*
X191468166Y-184028509D03*
X191468166Y-187328509D03*
G04 #@! TD*
G04 #@! TO.C,D63*
X262842166Y-184028509D03*
X262842166Y-187328509D03*
G04 #@! TD*
G04 #@! TO.C,D64*
X286464166Y-187074509D03*
X286464166Y-183774509D03*
G04 #@! TD*
G04 #@! TO.C,D65*
X317706166Y-184028509D03*
X317706166Y-187328509D03*
G04 #@! TD*
G04 #@! TO.C,D66*
X336756166Y-184028509D03*
X336756166Y-187328509D03*
G04 #@! TD*
G04 #@! TO.C,D67*
X355806166Y-184028509D03*
X355806166Y-187328509D03*
G04 #@! TD*
D19*
G04 #@! TO.C,USB1*
X81849052Y-97380607D03*
X82349052Y-97380607D03*
X82849052Y-97380607D03*
X81349052Y-97380607D03*
X83349052Y-97380607D03*
X80849052Y-97380607D03*
X83849052Y-97380607D03*
X80349052Y-97380607D03*
D20*
X79649052Y-97380607D03*
X84549052Y-97380607D03*
X78874052Y-97380607D03*
X85324052Y-97380607D03*
G04 #@! TD*
D21*
G04 #@! TO.C,U2*
X81571489Y-103573815D03*
X83571489Y-103573815D03*
X81571489Y-101673815D03*
D22*
X83571489Y-101873815D03*
G04 #@! TD*
D11*
G04 #@! TO.C,F1*
G36*
X80899418Y-106749499D02*
X80923079Y-106753009D01*
X80946283Y-106758821D01*
X80968805Y-106766879D01*
X80990429Y-106777107D01*
X81010946Y-106789404D01*
X81030159Y-106803654D01*
X81047883Y-106819718D01*
X81063947Y-106837442D01*
X81078197Y-106856655D01*
X81090494Y-106877172D01*
X81100722Y-106898796D01*
X81108780Y-106921318D01*
X81114592Y-106944522D01*
X81118102Y-106968183D01*
X81119276Y-106992075D01*
X81119276Y-107479575D01*
X81118102Y-107503467D01*
X81114592Y-107527128D01*
X81108780Y-107550332D01*
X81100722Y-107572854D01*
X81090494Y-107594478D01*
X81078197Y-107614995D01*
X81063947Y-107634208D01*
X81047883Y-107651932D01*
X81030159Y-107667996D01*
X81010946Y-107682246D01*
X80990429Y-107694543D01*
X80968805Y-107704771D01*
X80946283Y-107712829D01*
X80923079Y-107718641D01*
X80899418Y-107722151D01*
X80875526Y-107723325D01*
X79963026Y-107723325D01*
X79939134Y-107722151D01*
X79915473Y-107718641D01*
X79892269Y-107712829D01*
X79869747Y-107704771D01*
X79848123Y-107694543D01*
X79827606Y-107682246D01*
X79808393Y-107667996D01*
X79790669Y-107651932D01*
X79774605Y-107634208D01*
X79760355Y-107614995D01*
X79748058Y-107594478D01*
X79737830Y-107572854D01*
X79729772Y-107550332D01*
X79723960Y-107527128D01*
X79720450Y-107503467D01*
X79719276Y-107479575D01*
X79719276Y-106992075D01*
X79720450Y-106968183D01*
X79723960Y-106944522D01*
X79729772Y-106921318D01*
X79737830Y-106898796D01*
X79748058Y-106877172D01*
X79760355Y-106856655D01*
X79774605Y-106837442D01*
X79790669Y-106819718D01*
X79808393Y-106803654D01*
X79827606Y-106789404D01*
X79848123Y-106777107D01*
X79869747Y-106766879D01*
X79892269Y-106758821D01*
X79915473Y-106753009D01*
X79939134Y-106749499D01*
X79963026Y-106748325D01*
X80875526Y-106748325D01*
X80899418Y-106749499D01*
X80899418Y-106749499D01*
G37*
D23*
X80419276Y-107235825D03*
D11*
G36*
X80899418Y-104874499D02*
X80923079Y-104878009D01*
X80946283Y-104883821D01*
X80968805Y-104891879D01*
X80990429Y-104902107D01*
X81010946Y-104914404D01*
X81030159Y-104928654D01*
X81047883Y-104944718D01*
X81063947Y-104962442D01*
X81078197Y-104981655D01*
X81090494Y-105002172D01*
X81100722Y-105023796D01*
X81108780Y-105046318D01*
X81114592Y-105069522D01*
X81118102Y-105093183D01*
X81119276Y-105117075D01*
X81119276Y-105604575D01*
X81118102Y-105628467D01*
X81114592Y-105652128D01*
X81108780Y-105675332D01*
X81100722Y-105697854D01*
X81090494Y-105719478D01*
X81078197Y-105739995D01*
X81063947Y-105759208D01*
X81047883Y-105776932D01*
X81030159Y-105792996D01*
X81010946Y-105807246D01*
X80990429Y-105819543D01*
X80968805Y-105829771D01*
X80946283Y-105837829D01*
X80923079Y-105843641D01*
X80899418Y-105847151D01*
X80875526Y-105848325D01*
X79963026Y-105848325D01*
X79939134Y-105847151D01*
X79915473Y-105843641D01*
X79892269Y-105837829D01*
X79869747Y-105829771D01*
X79848123Y-105819543D01*
X79827606Y-105807246D01*
X79808393Y-105792996D01*
X79790669Y-105776932D01*
X79774605Y-105759208D01*
X79760355Y-105739995D01*
X79748058Y-105719478D01*
X79737830Y-105697854D01*
X79729772Y-105675332D01*
X79723960Y-105652128D01*
X79720450Y-105628467D01*
X79719276Y-105604575D01*
X79719276Y-105117075D01*
X79720450Y-105093183D01*
X79723960Y-105069522D01*
X79729772Y-105046318D01*
X79737830Y-105023796D01*
X79748058Y-105002172D01*
X79760355Y-104981655D01*
X79774605Y-104962442D01*
X79790669Y-104944718D01*
X79808393Y-104928654D01*
X79827606Y-104914404D01*
X79848123Y-104902107D01*
X79869747Y-104891879D01*
X79892269Y-104883821D01*
X79915473Y-104878009D01*
X79939134Y-104874499D01*
X79963026Y-104873325D01*
X80875526Y-104873325D01*
X80899418Y-104874499D01*
X80899418Y-104874499D01*
G37*
D23*
X80419276Y-105360825D03*
G04 #@! TD*
D11*
G04 #@! TO.C,R5*
G36*
X82639208Y-105074378D02*
X82660443Y-105077528D01*
X82681267Y-105082744D01*
X82701479Y-105089976D01*
X82720885Y-105099155D01*
X82739298Y-105110191D01*
X82756541Y-105122979D01*
X82772447Y-105137395D01*
X82786863Y-105153301D01*
X82799651Y-105170544D01*
X82810687Y-105188957D01*
X82819866Y-105208363D01*
X82827098Y-105228575D01*
X82832314Y-105249399D01*
X82835464Y-105270634D01*
X82836517Y-105292075D01*
X82836517Y-105729575D01*
X82835464Y-105751016D01*
X82832314Y-105772251D01*
X82827098Y-105793075D01*
X82819866Y-105813287D01*
X82810687Y-105832693D01*
X82799651Y-105851106D01*
X82786863Y-105868349D01*
X82772447Y-105884255D01*
X82756541Y-105898671D01*
X82739298Y-105911459D01*
X82720885Y-105922495D01*
X82701479Y-105931674D01*
X82681267Y-105938906D01*
X82660443Y-105944122D01*
X82639208Y-105947272D01*
X82617767Y-105948325D01*
X82105267Y-105948325D01*
X82083826Y-105947272D01*
X82062591Y-105944122D01*
X82041767Y-105938906D01*
X82021555Y-105931674D01*
X82002149Y-105922495D01*
X81983736Y-105911459D01*
X81966493Y-105898671D01*
X81950587Y-105884255D01*
X81936171Y-105868349D01*
X81923383Y-105851106D01*
X81912347Y-105832693D01*
X81903168Y-105813287D01*
X81895936Y-105793075D01*
X81890720Y-105772251D01*
X81887570Y-105751016D01*
X81886517Y-105729575D01*
X81886517Y-105292075D01*
X81887570Y-105270634D01*
X81890720Y-105249399D01*
X81895936Y-105228575D01*
X81903168Y-105208363D01*
X81912347Y-105188957D01*
X81923383Y-105170544D01*
X81936171Y-105153301D01*
X81950587Y-105137395D01*
X81966493Y-105122979D01*
X81983736Y-105110191D01*
X82002149Y-105099155D01*
X82021555Y-105089976D01*
X82041767Y-105082744D01*
X82062591Y-105077528D01*
X82083826Y-105074378D01*
X82105267Y-105073325D01*
X82617767Y-105073325D01*
X82639208Y-105074378D01*
X82639208Y-105074378D01*
G37*
D12*
X82361517Y-105510825D03*
D11*
G36*
X82639208Y-106649378D02*
X82660443Y-106652528D01*
X82681267Y-106657744D01*
X82701479Y-106664976D01*
X82720885Y-106674155D01*
X82739298Y-106685191D01*
X82756541Y-106697979D01*
X82772447Y-106712395D01*
X82786863Y-106728301D01*
X82799651Y-106745544D01*
X82810687Y-106763957D01*
X82819866Y-106783363D01*
X82827098Y-106803575D01*
X82832314Y-106824399D01*
X82835464Y-106845634D01*
X82836517Y-106867075D01*
X82836517Y-107304575D01*
X82835464Y-107326016D01*
X82832314Y-107347251D01*
X82827098Y-107368075D01*
X82819866Y-107388287D01*
X82810687Y-107407693D01*
X82799651Y-107426106D01*
X82786863Y-107443349D01*
X82772447Y-107459255D01*
X82756541Y-107473671D01*
X82739298Y-107486459D01*
X82720885Y-107497495D01*
X82701479Y-107506674D01*
X82681267Y-107513906D01*
X82660443Y-107519122D01*
X82639208Y-107522272D01*
X82617767Y-107523325D01*
X82105267Y-107523325D01*
X82083826Y-107522272D01*
X82062591Y-107519122D01*
X82041767Y-107513906D01*
X82021555Y-107506674D01*
X82002149Y-107497495D01*
X81983736Y-107486459D01*
X81966493Y-107473671D01*
X81950587Y-107459255D01*
X81936171Y-107443349D01*
X81923383Y-107426106D01*
X81912347Y-107407693D01*
X81903168Y-107388287D01*
X81895936Y-107368075D01*
X81890720Y-107347251D01*
X81887570Y-107326016D01*
X81886517Y-107304575D01*
X81886517Y-106867075D01*
X81887570Y-106845634D01*
X81890720Y-106824399D01*
X81895936Y-106803575D01*
X81903168Y-106783363D01*
X81912347Y-106763957D01*
X81923383Y-106745544D01*
X81936171Y-106728301D01*
X81950587Y-106712395D01*
X81966493Y-106697979D01*
X81983736Y-106685191D01*
X82002149Y-106674155D01*
X82021555Y-106664976D01*
X82041767Y-106657744D01*
X82062591Y-106652528D01*
X82083826Y-106649378D01*
X82105267Y-106648325D01*
X82617767Y-106648325D01*
X82639208Y-106649378D01*
X82639208Y-106649378D01*
G37*
D12*
X82361517Y-107085825D03*
G04 #@! TD*
D11*
G04 #@! TO.C,R6*
G36*
X84318984Y-106649378D02*
X84340219Y-106652528D01*
X84361043Y-106657744D01*
X84381255Y-106664976D01*
X84400661Y-106674155D01*
X84419074Y-106685191D01*
X84436317Y-106697979D01*
X84452223Y-106712395D01*
X84466639Y-106728301D01*
X84479427Y-106745544D01*
X84490463Y-106763957D01*
X84499642Y-106783363D01*
X84506874Y-106803575D01*
X84512090Y-106824399D01*
X84515240Y-106845634D01*
X84516293Y-106867075D01*
X84516293Y-107304575D01*
X84515240Y-107326016D01*
X84512090Y-107347251D01*
X84506874Y-107368075D01*
X84499642Y-107388287D01*
X84490463Y-107407693D01*
X84479427Y-107426106D01*
X84466639Y-107443349D01*
X84452223Y-107459255D01*
X84436317Y-107473671D01*
X84419074Y-107486459D01*
X84400661Y-107497495D01*
X84381255Y-107506674D01*
X84361043Y-107513906D01*
X84340219Y-107519122D01*
X84318984Y-107522272D01*
X84297543Y-107523325D01*
X83785043Y-107523325D01*
X83763602Y-107522272D01*
X83742367Y-107519122D01*
X83721543Y-107513906D01*
X83701331Y-107506674D01*
X83681925Y-107497495D01*
X83663512Y-107486459D01*
X83646269Y-107473671D01*
X83630363Y-107459255D01*
X83615947Y-107443349D01*
X83603159Y-107426106D01*
X83592123Y-107407693D01*
X83582944Y-107388287D01*
X83575712Y-107368075D01*
X83570496Y-107347251D01*
X83567346Y-107326016D01*
X83566293Y-107304575D01*
X83566293Y-106867075D01*
X83567346Y-106845634D01*
X83570496Y-106824399D01*
X83575712Y-106803575D01*
X83582944Y-106783363D01*
X83592123Y-106763957D01*
X83603159Y-106745544D01*
X83615947Y-106728301D01*
X83630363Y-106712395D01*
X83646269Y-106697979D01*
X83663512Y-106685191D01*
X83681925Y-106674155D01*
X83701331Y-106664976D01*
X83721543Y-106657744D01*
X83742367Y-106652528D01*
X83763602Y-106649378D01*
X83785043Y-106648325D01*
X84297543Y-106648325D01*
X84318984Y-106649378D01*
X84318984Y-106649378D01*
G37*
D12*
X84041293Y-107085825D03*
D11*
G36*
X84318984Y-105074378D02*
X84340219Y-105077528D01*
X84361043Y-105082744D01*
X84381255Y-105089976D01*
X84400661Y-105099155D01*
X84419074Y-105110191D01*
X84436317Y-105122979D01*
X84452223Y-105137395D01*
X84466639Y-105153301D01*
X84479427Y-105170544D01*
X84490463Y-105188957D01*
X84499642Y-105208363D01*
X84506874Y-105228575D01*
X84512090Y-105249399D01*
X84515240Y-105270634D01*
X84516293Y-105292075D01*
X84516293Y-105729575D01*
X84515240Y-105751016D01*
X84512090Y-105772251D01*
X84506874Y-105793075D01*
X84499642Y-105813287D01*
X84490463Y-105832693D01*
X84479427Y-105851106D01*
X84466639Y-105868349D01*
X84452223Y-105884255D01*
X84436317Y-105898671D01*
X84419074Y-105911459D01*
X84400661Y-105922495D01*
X84381255Y-105931674D01*
X84361043Y-105938906D01*
X84340219Y-105944122D01*
X84318984Y-105947272D01*
X84297543Y-105948325D01*
X83785043Y-105948325D01*
X83763602Y-105947272D01*
X83742367Y-105944122D01*
X83721543Y-105938906D01*
X83701331Y-105931674D01*
X83681925Y-105922495D01*
X83663512Y-105911459D01*
X83646269Y-105898671D01*
X83630363Y-105884255D01*
X83615947Y-105868349D01*
X83603159Y-105851106D01*
X83592123Y-105832693D01*
X83582944Y-105813287D01*
X83575712Y-105793075D01*
X83570496Y-105772251D01*
X83567346Y-105751016D01*
X83566293Y-105729575D01*
X83566293Y-105292075D01*
X83567346Y-105270634D01*
X83570496Y-105249399D01*
X83575712Y-105228575D01*
X83582944Y-105208363D01*
X83592123Y-105188957D01*
X83603159Y-105170544D01*
X83615947Y-105153301D01*
X83630363Y-105137395D01*
X83646269Y-105122979D01*
X83663512Y-105110191D01*
X83681925Y-105099155D01*
X83701331Y-105089976D01*
X83721543Y-105082744D01*
X83742367Y-105077528D01*
X83763602Y-105074378D01*
X83785043Y-105073325D01*
X84297543Y-105073325D01*
X84318984Y-105074378D01*
X84318984Y-105074378D01*
G37*
D12*
X84041293Y-105510825D03*
G04 #@! TD*
D11*
G04 #@! TO.C,C1*
G36*
X86943634Y-132685906D02*
X86964869Y-132689056D01*
X86985693Y-132694272D01*
X87005905Y-132701504D01*
X87025311Y-132710683D01*
X87043724Y-132721719D01*
X87060967Y-132734507D01*
X87076873Y-132748923D01*
X87091289Y-132764829D01*
X87104077Y-132782072D01*
X87115113Y-132800485D01*
X87124292Y-132819891D01*
X87131524Y-132840103D01*
X87136740Y-132860927D01*
X87139890Y-132882162D01*
X87140943Y-132903603D01*
X87140943Y-133341103D01*
X87139890Y-133362544D01*
X87136740Y-133383779D01*
X87131524Y-133404603D01*
X87124292Y-133424815D01*
X87115113Y-133444221D01*
X87104077Y-133462634D01*
X87091289Y-133479877D01*
X87076873Y-133495783D01*
X87060967Y-133510199D01*
X87043724Y-133522987D01*
X87025311Y-133534023D01*
X87005905Y-133543202D01*
X86985693Y-133550434D01*
X86964869Y-133555650D01*
X86943634Y-133558800D01*
X86922193Y-133559853D01*
X86409693Y-133559853D01*
X86388252Y-133558800D01*
X86367017Y-133555650D01*
X86346193Y-133550434D01*
X86325981Y-133543202D01*
X86306575Y-133534023D01*
X86288162Y-133522987D01*
X86270919Y-133510199D01*
X86255013Y-133495783D01*
X86240597Y-133479877D01*
X86227809Y-133462634D01*
X86216773Y-133444221D01*
X86207594Y-133424815D01*
X86200362Y-133404603D01*
X86195146Y-133383779D01*
X86191996Y-133362544D01*
X86190943Y-133341103D01*
X86190943Y-132903603D01*
X86191996Y-132882162D01*
X86195146Y-132860927D01*
X86200362Y-132840103D01*
X86207594Y-132819891D01*
X86216773Y-132800485D01*
X86227809Y-132782072D01*
X86240597Y-132764829D01*
X86255013Y-132748923D01*
X86270919Y-132734507D01*
X86288162Y-132721719D01*
X86306575Y-132710683D01*
X86325981Y-132701504D01*
X86346193Y-132694272D01*
X86367017Y-132689056D01*
X86388252Y-132685906D01*
X86409693Y-132684853D01*
X86922193Y-132684853D01*
X86943634Y-132685906D01*
X86943634Y-132685906D01*
G37*
D12*
X86665943Y-133122353D03*
D11*
G36*
X86943634Y-131110906D02*
X86964869Y-131114056D01*
X86985693Y-131119272D01*
X87005905Y-131126504D01*
X87025311Y-131135683D01*
X87043724Y-131146719D01*
X87060967Y-131159507D01*
X87076873Y-131173923D01*
X87091289Y-131189829D01*
X87104077Y-131207072D01*
X87115113Y-131225485D01*
X87124292Y-131244891D01*
X87131524Y-131265103D01*
X87136740Y-131285927D01*
X87139890Y-131307162D01*
X87140943Y-131328603D01*
X87140943Y-131766103D01*
X87139890Y-131787544D01*
X87136740Y-131808779D01*
X87131524Y-131829603D01*
X87124292Y-131849815D01*
X87115113Y-131869221D01*
X87104077Y-131887634D01*
X87091289Y-131904877D01*
X87076873Y-131920783D01*
X87060967Y-131935199D01*
X87043724Y-131947987D01*
X87025311Y-131959023D01*
X87005905Y-131968202D01*
X86985693Y-131975434D01*
X86964869Y-131980650D01*
X86943634Y-131983800D01*
X86922193Y-131984853D01*
X86409693Y-131984853D01*
X86388252Y-131983800D01*
X86367017Y-131980650D01*
X86346193Y-131975434D01*
X86325981Y-131968202D01*
X86306575Y-131959023D01*
X86288162Y-131947987D01*
X86270919Y-131935199D01*
X86255013Y-131920783D01*
X86240597Y-131904877D01*
X86227809Y-131887634D01*
X86216773Y-131869221D01*
X86207594Y-131849815D01*
X86200362Y-131829603D01*
X86195146Y-131808779D01*
X86191996Y-131787544D01*
X86190943Y-131766103D01*
X86190943Y-131328603D01*
X86191996Y-131307162D01*
X86195146Y-131285927D01*
X86200362Y-131265103D01*
X86207594Y-131244891D01*
X86216773Y-131225485D01*
X86227809Y-131207072D01*
X86240597Y-131189829D01*
X86255013Y-131173923D01*
X86270919Y-131159507D01*
X86288162Y-131146719D01*
X86306575Y-131135683D01*
X86325981Y-131126504D01*
X86346193Y-131119272D01*
X86367017Y-131114056D01*
X86388252Y-131110906D01*
X86409693Y-131109853D01*
X86922193Y-131109853D01*
X86943634Y-131110906D01*
X86943634Y-131110906D01*
G37*
D12*
X86665943Y-131547353D03*
G04 #@! TD*
D11*
G04 #@! TO.C,C2*
G36*
X89568284Y-125546858D02*
X89589519Y-125550008D01*
X89610343Y-125555224D01*
X89630555Y-125562456D01*
X89649961Y-125571635D01*
X89668374Y-125582671D01*
X89685617Y-125595459D01*
X89701523Y-125609875D01*
X89715939Y-125625781D01*
X89728727Y-125643024D01*
X89739763Y-125661437D01*
X89748942Y-125680843D01*
X89756174Y-125701055D01*
X89761390Y-125721879D01*
X89764540Y-125743114D01*
X89765593Y-125764555D01*
X89765593Y-126202055D01*
X89764540Y-126223496D01*
X89761390Y-126244731D01*
X89756174Y-126265555D01*
X89748942Y-126285767D01*
X89739763Y-126305173D01*
X89728727Y-126323586D01*
X89715939Y-126340829D01*
X89701523Y-126356735D01*
X89685617Y-126371151D01*
X89668374Y-126383939D01*
X89649961Y-126394975D01*
X89630555Y-126404154D01*
X89610343Y-126411386D01*
X89589519Y-126416602D01*
X89568284Y-126419752D01*
X89546843Y-126420805D01*
X89034343Y-126420805D01*
X89012902Y-126419752D01*
X88991667Y-126416602D01*
X88970843Y-126411386D01*
X88950631Y-126404154D01*
X88931225Y-126394975D01*
X88912812Y-126383939D01*
X88895569Y-126371151D01*
X88879663Y-126356735D01*
X88865247Y-126340829D01*
X88852459Y-126323586D01*
X88841423Y-126305173D01*
X88832244Y-126285767D01*
X88825012Y-126265555D01*
X88819796Y-126244731D01*
X88816646Y-126223496D01*
X88815593Y-126202055D01*
X88815593Y-125764555D01*
X88816646Y-125743114D01*
X88819796Y-125721879D01*
X88825012Y-125701055D01*
X88832244Y-125680843D01*
X88841423Y-125661437D01*
X88852459Y-125643024D01*
X88865247Y-125625781D01*
X88879663Y-125609875D01*
X88895569Y-125595459D01*
X88912812Y-125582671D01*
X88931225Y-125571635D01*
X88950631Y-125562456D01*
X88970843Y-125555224D01*
X88991667Y-125550008D01*
X89012902Y-125546858D01*
X89034343Y-125545805D01*
X89546843Y-125545805D01*
X89568284Y-125546858D01*
X89568284Y-125546858D01*
G37*
D12*
X89290593Y-125983305D03*
D11*
G36*
X89568284Y-123971858D02*
X89589519Y-123975008D01*
X89610343Y-123980224D01*
X89630555Y-123987456D01*
X89649961Y-123996635D01*
X89668374Y-124007671D01*
X89685617Y-124020459D01*
X89701523Y-124034875D01*
X89715939Y-124050781D01*
X89728727Y-124068024D01*
X89739763Y-124086437D01*
X89748942Y-124105843D01*
X89756174Y-124126055D01*
X89761390Y-124146879D01*
X89764540Y-124168114D01*
X89765593Y-124189555D01*
X89765593Y-124627055D01*
X89764540Y-124648496D01*
X89761390Y-124669731D01*
X89756174Y-124690555D01*
X89748942Y-124710767D01*
X89739763Y-124730173D01*
X89728727Y-124748586D01*
X89715939Y-124765829D01*
X89701523Y-124781735D01*
X89685617Y-124796151D01*
X89668374Y-124808939D01*
X89649961Y-124819975D01*
X89630555Y-124829154D01*
X89610343Y-124836386D01*
X89589519Y-124841602D01*
X89568284Y-124844752D01*
X89546843Y-124845805D01*
X89034343Y-124845805D01*
X89012902Y-124844752D01*
X88991667Y-124841602D01*
X88970843Y-124836386D01*
X88950631Y-124829154D01*
X88931225Y-124819975D01*
X88912812Y-124808939D01*
X88895569Y-124796151D01*
X88879663Y-124781735D01*
X88865247Y-124765829D01*
X88852459Y-124748586D01*
X88841423Y-124730173D01*
X88832244Y-124710767D01*
X88825012Y-124690555D01*
X88819796Y-124669731D01*
X88816646Y-124648496D01*
X88815593Y-124627055D01*
X88815593Y-124189555D01*
X88816646Y-124168114D01*
X88819796Y-124146879D01*
X88825012Y-124126055D01*
X88832244Y-124105843D01*
X88841423Y-124086437D01*
X88852459Y-124068024D01*
X88865247Y-124050781D01*
X88879663Y-124034875D01*
X88895569Y-124020459D01*
X88912812Y-124007671D01*
X88931225Y-123996635D01*
X88950631Y-123987456D01*
X88970843Y-123980224D01*
X88991667Y-123975008D01*
X89012902Y-123971858D01*
X89034343Y-123970805D01*
X89546843Y-123970805D01*
X89568284Y-123971858D01*
X89568284Y-123971858D01*
G37*
D12*
X89290593Y-124408305D03*
G04 #@! TD*
D11*
G04 #@! TO.C,C3*
G36*
X94675203Y-121677264D02*
X94696438Y-121680414D01*
X94717262Y-121685630D01*
X94737474Y-121692862D01*
X94756880Y-121702041D01*
X94775293Y-121713077D01*
X94792536Y-121725865D01*
X94808442Y-121740281D01*
X94822858Y-121756187D01*
X94835646Y-121773430D01*
X94846682Y-121791843D01*
X94855861Y-121811249D01*
X94863093Y-121831461D01*
X94868309Y-121852285D01*
X94871459Y-121873520D01*
X94872512Y-121894961D01*
X94872512Y-122407461D01*
X94871459Y-122428902D01*
X94868309Y-122450137D01*
X94863093Y-122470961D01*
X94855861Y-122491173D01*
X94846682Y-122510579D01*
X94835646Y-122528992D01*
X94822858Y-122546235D01*
X94808442Y-122562141D01*
X94792536Y-122576557D01*
X94775293Y-122589345D01*
X94756880Y-122600381D01*
X94737474Y-122609560D01*
X94717262Y-122616792D01*
X94696438Y-122622008D01*
X94675203Y-122625158D01*
X94653762Y-122626211D01*
X94216262Y-122626211D01*
X94194821Y-122625158D01*
X94173586Y-122622008D01*
X94152762Y-122616792D01*
X94132550Y-122609560D01*
X94113144Y-122600381D01*
X94094731Y-122589345D01*
X94077488Y-122576557D01*
X94061582Y-122562141D01*
X94047166Y-122546235D01*
X94034378Y-122528992D01*
X94023342Y-122510579D01*
X94014163Y-122491173D01*
X94006931Y-122470961D01*
X94001715Y-122450137D01*
X93998565Y-122428902D01*
X93997512Y-122407461D01*
X93997512Y-121894961D01*
X93998565Y-121873520D01*
X94001715Y-121852285D01*
X94006931Y-121831461D01*
X94014163Y-121811249D01*
X94023342Y-121791843D01*
X94034378Y-121773430D01*
X94047166Y-121756187D01*
X94061582Y-121740281D01*
X94077488Y-121725865D01*
X94094731Y-121713077D01*
X94113144Y-121702041D01*
X94132550Y-121692862D01*
X94152762Y-121685630D01*
X94173586Y-121680414D01*
X94194821Y-121677264D01*
X94216262Y-121676211D01*
X94653762Y-121676211D01*
X94675203Y-121677264D01*
X94675203Y-121677264D01*
G37*
D12*
X94435012Y-122151211D03*
D11*
G36*
X93100203Y-121677264D02*
X93121438Y-121680414D01*
X93142262Y-121685630D01*
X93162474Y-121692862D01*
X93181880Y-121702041D01*
X93200293Y-121713077D01*
X93217536Y-121725865D01*
X93233442Y-121740281D01*
X93247858Y-121756187D01*
X93260646Y-121773430D01*
X93271682Y-121791843D01*
X93280861Y-121811249D01*
X93288093Y-121831461D01*
X93293309Y-121852285D01*
X93296459Y-121873520D01*
X93297512Y-121894961D01*
X93297512Y-122407461D01*
X93296459Y-122428902D01*
X93293309Y-122450137D01*
X93288093Y-122470961D01*
X93280861Y-122491173D01*
X93271682Y-122510579D01*
X93260646Y-122528992D01*
X93247858Y-122546235D01*
X93233442Y-122562141D01*
X93217536Y-122576557D01*
X93200293Y-122589345D01*
X93181880Y-122600381D01*
X93162474Y-122609560D01*
X93142262Y-122616792D01*
X93121438Y-122622008D01*
X93100203Y-122625158D01*
X93078762Y-122626211D01*
X92641262Y-122626211D01*
X92619821Y-122625158D01*
X92598586Y-122622008D01*
X92577762Y-122616792D01*
X92557550Y-122609560D01*
X92538144Y-122600381D01*
X92519731Y-122589345D01*
X92502488Y-122576557D01*
X92486582Y-122562141D01*
X92472166Y-122546235D01*
X92459378Y-122528992D01*
X92448342Y-122510579D01*
X92439163Y-122491173D01*
X92431931Y-122470961D01*
X92426715Y-122450137D01*
X92423565Y-122428902D01*
X92422512Y-122407461D01*
X92422512Y-121894961D01*
X92423565Y-121873520D01*
X92426715Y-121852285D01*
X92431931Y-121831461D01*
X92439163Y-121811249D01*
X92448342Y-121791843D01*
X92459378Y-121773430D01*
X92472166Y-121756187D01*
X92486582Y-121740281D01*
X92502488Y-121725865D01*
X92519731Y-121713077D01*
X92538144Y-121702041D01*
X92557550Y-121692862D01*
X92577762Y-121685630D01*
X92598586Y-121680414D01*
X92619821Y-121677264D01*
X92641262Y-121676211D01*
X93078762Y-121676211D01*
X93100203Y-121677264D01*
X93100203Y-121677264D01*
G37*
D12*
X92860012Y-122151211D03*
G04 #@! TD*
D11*
G04 #@! TO.C,C4*
G36*
X86996127Y-127751354D02*
X87017362Y-127754504D01*
X87038186Y-127759720D01*
X87058398Y-127766952D01*
X87077804Y-127776131D01*
X87096217Y-127787167D01*
X87113460Y-127799955D01*
X87129366Y-127814371D01*
X87143782Y-127830277D01*
X87156570Y-127847520D01*
X87167606Y-127865933D01*
X87176785Y-127885339D01*
X87184017Y-127905551D01*
X87189233Y-127926375D01*
X87192383Y-127947610D01*
X87193436Y-127969051D01*
X87193436Y-128406551D01*
X87192383Y-128427992D01*
X87189233Y-128449227D01*
X87184017Y-128470051D01*
X87176785Y-128490263D01*
X87167606Y-128509669D01*
X87156570Y-128528082D01*
X87143782Y-128545325D01*
X87129366Y-128561231D01*
X87113460Y-128575647D01*
X87096217Y-128588435D01*
X87077804Y-128599471D01*
X87058398Y-128608650D01*
X87038186Y-128615882D01*
X87017362Y-128621098D01*
X86996127Y-128624248D01*
X86974686Y-128625301D01*
X86462186Y-128625301D01*
X86440745Y-128624248D01*
X86419510Y-128621098D01*
X86398686Y-128615882D01*
X86378474Y-128608650D01*
X86359068Y-128599471D01*
X86340655Y-128588435D01*
X86323412Y-128575647D01*
X86307506Y-128561231D01*
X86293090Y-128545325D01*
X86280302Y-128528082D01*
X86269266Y-128509669D01*
X86260087Y-128490263D01*
X86252855Y-128470051D01*
X86247639Y-128449227D01*
X86244489Y-128427992D01*
X86243436Y-128406551D01*
X86243436Y-127969051D01*
X86244489Y-127947610D01*
X86247639Y-127926375D01*
X86252855Y-127905551D01*
X86260087Y-127885339D01*
X86269266Y-127865933D01*
X86280302Y-127847520D01*
X86293090Y-127830277D01*
X86307506Y-127814371D01*
X86323412Y-127799955D01*
X86340655Y-127787167D01*
X86359068Y-127776131D01*
X86378474Y-127766952D01*
X86398686Y-127759720D01*
X86419510Y-127754504D01*
X86440745Y-127751354D01*
X86462186Y-127750301D01*
X86974686Y-127750301D01*
X86996127Y-127751354D01*
X86996127Y-127751354D01*
G37*
D12*
X86718436Y-128187801D03*
D11*
G36*
X86996127Y-129326354D02*
X87017362Y-129329504D01*
X87038186Y-129334720D01*
X87058398Y-129341952D01*
X87077804Y-129351131D01*
X87096217Y-129362167D01*
X87113460Y-129374955D01*
X87129366Y-129389371D01*
X87143782Y-129405277D01*
X87156570Y-129422520D01*
X87167606Y-129440933D01*
X87176785Y-129460339D01*
X87184017Y-129480551D01*
X87189233Y-129501375D01*
X87192383Y-129522610D01*
X87193436Y-129544051D01*
X87193436Y-129981551D01*
X87192383Y-130002992D01*
X87189233Y-130024227D01*
X87184017Y-130045051D01*
X87176785Y-130065263D01*
X87167606Y-130084669D01*
X87156570Y-130103082D01*
X87143782Y-130120325D01*
X87129366Y-130136231D01*
X87113460Y-130150647D01*
X87096217Y-130163435D01*
X87077804Y-130174471D01*
X87058398Y-130183650D01*
X87038186Y-130190882D01*
X87017362Y-130196098D01*
X86996127Y-130199248D01*
X86974686Y-130200301D01*
X86462186Y-130200301D01*
X86440745Y-130199248D01*
X86419510Y-130196098D01*
X86398686Y-130190882D01*
X86378474Y-130183650D01*
X86359068Y-130174471D01*
X86340655Y-130163435D01*
X86323412Y-130150647D01*
X86307506Y-130136231D01*
X86293090Y-130120325D01*
X86280302Y-130103082D01*
X86269266Y-130084669D01*
X86260087Y-130065263D01*
X86252855Y-130045051D01*
X86247639Y-130024227D01*
X86244489Y-130002992D01*
X86243436Y-129981551D01*
X86243436Y-129544051D01*
X86244489Y-129522610D01*
X86247639Y-129501375D01*
X86252855Y-129480551D01*
X86260087Y-129460339D01*
X86269266Y-129440933D01*
X86280302Y-129422520D01*
X86293090Y-129405277D01*
X86307506Y-129389371D01*
X86323412Y-129374955D01*
X86340655Y-129362167D01*
X86359068Y-129351131D01*
X86378474Y-129341952D01*
X86398686Y-129334720D01*
X86419510Y-129329504D01*
X86440745Y-129326354D01*
X86462186Y-129325301D01*
X86974686Y-129325301D01*
X86996127Y-129326354D01*
X86996127Y-129326354D01*
G37*
D12*
X86718436Y-129762801D03*
G04 #@! TD*
D11*
G04 #@! TO.C,C5*
G36*
X89410805Y-127173931D02*
X89432040Y-127177081D01*
X89452864Y-127182297D01*
X89473076Y-127189529D01*
X89492482Y-127198708D01*
X89510895Y-127209744D01*
X89528138Y-127222532D01*
X89544044Y-127236948D01*
X89558460Y-127252854D01*
X89571248Y-127270097D01*
X89582284Y-127288510D01*
X89591463Y-127307916D01*
X89598695Y-127328128D01*
X89603911Y-127348952D01*
X89607061Y-127370187D01*
X89608114Y-127391628D01*
X89608114Y-127829128D01*
X89607061Y-127850569D01*
X89603911Y-127871804D01*
X89598695Y-127892628D01*
X89591463Y-127912840D01*
X89582284Y-127932246D01*
X89571248Y-127950659D01*
X89558460Y-127967902D01*
X89544044Y-127983808D01*
X89528138Y-127998224D01*
X89510895Y-128011012D01*
X89492482Y-128022048D01*
X89473076Y-128031227D01*
X89452864Y-128038459D01*
X89432040Y-128043675D01*
X89410805Y-128046825D01*
X89389364Y-128047878D01*
X88876864Y-128047878D01*
X88855423Y-128046825D01*
X88834188Y-128043675D01*
X88813364Y-128038459D01*
X88793152Y-128031227D01*
X88773746Y-128022048D01*
X88755333Y-128011012D01*
X88738090Y-127998224D01*
X88722184Y-127983808D01*
X88707768Y-127967902D01*
X88694980Y-127950659D01*
X88683944Y-127932246D01*
X88674765Y-127912840D01*
X88667533Y-127892628D01*
X88662317Y-127871804D01*
X88659167Y-127850569D01*
X88658114Y-127829128D01*
X88658114Y-127391628D01*
X88659167Y-127370187D01*
X88662317Y-127348952D01*
X88667533Y-127328128D01*
X88674765Y-127307916D01*
X88683944Y-127288510D01*
X88694980Y-127270097D01*
X88707768Y-127252854D01*
X88722184Y-127236948D01*
X88738090Y-127222532D01*
X88755333Y-127209744D01*
X88773746Y-127198708D01*
X88793152Y-127189529D01*
X88813364Y-127182297D01*
X88834188Y-127177081D01*
X88855423Y-127173931D01*
X88876864Y-127172878D01*
X89389364Y-127172878D01*
X89410805Y-127173931D01*
X89410805Y-127173931D01*
G37*
D12*
X89133114Y-127610378D03*
D11*
G36*
X89410805Y-128748931D02*
X89432040Y-128752081D01*
X89452864Y-128757297D01*
X89473076Y-128764529D01*
X89492482Y-128773708D01*
X89510895Y-128784744D01*
X89528138Y-128797532D01*
X89544044Y-128811948D01*
X89558460Y-128827854D01*
X89571248Y-128845097D01*
X89582284Y-128863510D01*
X89591463Y-128882916D01*
X89598695Y-128903128D01*
X89603911Y-128923952D01*
X89607061Y-128945187D01*
X89608114Y-128966628D01*
X89608114Y-129404128D01*
X89607061Y-129425569D01*
X89603911Y-129446804D01*
X89598695Y-129467628D01*
X89591463Y-129487840D01*
X89582284Y-129507246D01*
X89571248Y-129525659D01*
X89558460Y-129542902D01*
X89544044Y-129558808D01*
X89528138Y-129573224D01*
X89510895Y-129586012D01*
X89492482Y-129597048D01*
X89473076Y-129606227D01*
X89452864Y-129613459D01*
X89432040Y-129618675D01*
X89410805Y-129621825D01*
X89389364Y-129622878D01*
X88876864Y-129622878D01*
X88855423Y-129621825D01*
X88834188Y-129618675D01*
X88813364Y-129613459D01*
X88793152Y-129606227D01*
X88773746Y-129597048D01*
X88755333Y-129586012D01*
X88738090Y-129573224D01*
X88722184Y-129558808D01*
X88707768Y-129542902D01*
X88694980Y-129525659D01*
X88683944Y-129507246D01*
X88674765Y-129487840D01*
X88667533Y-129467628D01*
X88662317Y-129446804D01*
X88659167Y-129425569D01*
X88658114Y-129404128D01*
X88658114Y-128966628D01*
X88659167Y-128945187D01*
X88662317Y-128923952D01*
X88667533Y-128903128D01*
X88674765Y-128882916D01*
X88683944Y-128863510D01*
X88694980Y-128845097D01*
X88707768Y-128827854D01*
X88722184Y-128811948D01*
X88738090Y-128797532D01*
X88755333Y-128784744D01*
X88773746Y-128773708D01*
X88793152Y-128764529D01*
X88813364Y-128757297D01*
X88834188Y-128752081D01*
X88855423Y-128748931D01*
X88876864Y-128747878D01*
X89389364Y-128747878D01*
X89410805Y-128748931D01*
X89410805Y-128748931D01*
G37*
D12*
X89133114Y-129185378D03*
G04 #@! TD*
D11*
G04 #@! TO.C,C6*
G36*
X98559475Y-131073511D02*
X98580710Y-131076661D01*
X98601534Y-131081877D01*
X98621746Y-131089109D01*
X98641152Y-131098288D01*
X98659565Y-131109324D01*
X98676808Y-131122112D01*
X98692714Y-131136528D01*
X98707130Y-131152434D01*
X98719918Y-131169677D01*
X98730954Y-131188090D01*
X98740133Y-131207496D01*
X98747365Y-131227708D01*
X98752581Y-131248532D01*
X98755731Y-131269767D01*
X98756784Y-131291208D01*
X98756784Y-131803708D01*
X98755731Y-131825149D01*
X98752581Y-131846384D01*
X98747365Y-131867208D01*
X98740133Y-131887420D01*
X98730954Y-131906826D01*
X98719918Y-131925239D01*
X98707130Y-131942482D01*
X98692714Y-131958388D01*
X98676808Y-131972804D01*
X98659565Y-131985592D01*
X98641152Y-131996628D01*
X98621746Y-132005807D01*
X98601534Y-132013039D01*
X98580710Y-132018255D01*
X98559475Y-132021405D01*
X98538034Y-132022458D01*
X98100534Y-132022458D01*
X98079093Y-132021405D01*
X98057858Y-132018255D01*
X98037034Y-132013039D01*
X98016822Y-132005807D01*
X97997416Y-131996628D01*
X97979003Y-131985592D01*
X97961760Y-131972804D01*
X97945854Y-131958388D01*
X97931438Y-131942482D01*
X97918650Y-131925239D01*
X97907614Y-131906826D01*
X97898435Y-131887420D01*
X97891203Y-131867208D01*
X97885987Y-131846384D01*
X97882837Y-131825149D01*
X97881784Y-131803708D01*
X97881784Y-131291208D01*
X97882837Y-131269767D01*
X97885987Y-131248532D01*
X97891203Y-131227708D01*
X97898435Y-131207496D01*
X97907614Y-131188090D01*
X97918650Y-131169677D01*
X97931438Y-131152434D01*
X97945854Y-131136528D01*
X97961760Y-131122112D01*
X97979003Y-131109324D01*
X97997416Y-131098288D01*
X98016822Y-131089109D01*
X98037034Y-131081877D01*
X98057858Y-131076661D01*
X98079093Y-131073511D01*
X98100534Y-131072458D01*
X98538034Y-131072458D01*
X98559475Y-131073511D01*
X98559475Y-131073511D01*
G37*
D12*
X98319284Y-131547458D03*
D11*
G36*
X100134475Y-131073511D02*
X100155710Y-131076661D01*
X100176534Y-131081877D01*
X100196746Y-131089109D01*
X100216152Y-131098288D01*
X100234565Y-131109324D01*
X100251808Y-131122112D01*
X100267714Y-131136528D01*
X100282130Y-131152434D01*
X100294918Y-131169677D01*
X100305954Y-131188090D01*
X100315133Y-131207496D01*
X100322365Y-131227708D01*
X100327581Y-131248532D01*
X100330731Y-131269767D01*
X100331784Y-131291208D01*
X100331784Y-131803708D01*
X100330731Y-131825149D01*
X100327581Y-131846384D01*
X100322365Y-131867208D01*
X100315133Y-131887420D01*
X100305954Y-131906826D01*
X100294918Y-131925239D01*
X100282130Y-131942482D01*
X100267714Y-131958388D01*
X100251808Y-131972804D01*
X100234565Y-131985592D01*
X100216152Y-131996628D01*
X100196746Y-132005807D01*
X100176534Y-132013039D01*
X100155710Y-132018255D01*
X100134475Y-132021405D01*
X100113034Y-132022458D01*
X99675534Y-132022458D01*
X99654093Y-132021405D01*
X99632858Y-132018255D01*
X99612034Y-132013039D01*
X99591822Y-132005807D01*
X99572416Y-131996628D01*
X99554003Y-131985592D01*
X99536760Y-131972804D01*
X99520854Y-131958388D01*
X99506438Y-131942482D01*
X99493650Y-131925239D01*
X99482614Y-131906826D01*
X99473435Y-131887420D01*
X99466203Y-131867208D01*
X99460987Y-131846384D01*
X99457837Y-131825149D01*
X99456784Y-131803708D01*
X99456784Y-131291208D01*
X99457837Y-131269767D01*
X99460987Y-131248532D01*
X99466203Y-131227708D01*
X99473435Y-131207496D01*
X99482614Y-131188090D01*
X99493650Y-131169677D01*
X99506438Y-131152434D01*
X99520854Y-131136528D01*
X99536760Y-131122112D01*
X99554003Y-131109324D01*
X99572416Y-131098288D01*
X99591822Y-131089109D01*
X99612034Y-131081877D01*
X99632858Y-131076661D01*
X99654093Y-131073511D01*
X99675534Y-131072458D01*
X100113034Y-131072458D01*
X100134475Y-131073511D01*
X100134475Y-131073511D01*
G37*
D12*
X99894284Y-131547458D03*
G04 #@! TD*
D11*
G04 #@! TO.C,C7*
G36*
X99452066Y-137950094D02*
X99473301Y-137953244D01*
X99494125Y-137958460D01*
X99514337Y-137965692D01*
X99533743Y-137974871D01*
X99552156Y-137985907D01*
X99569399Y-137998695D01*
X99585305Y-138013111D01*
X99599721Y-138029017D01*
X99612509Y-138046260D01*
X99623545Y-138064673D01*
X99632724Y-138084079D01*
X99639956Y-138104291D01*
X99645172Y-138125115D01*
X99648322Y-138146350D01*
X99649375Y-138167791D01*
X99649375Y-138680291D01*
X99648322Y-138701732D01*
X99645172Y-138722967D01*
X99639956Y-138743791D01*
X99632724Y-138764003D01*
X99623545Y-138783409D01*
X99612509Y-138801822D01*
X99599721Y-138819065D01*
X99585305Y-138834971D01*
X99569399Y-138849387D01*
X99552156Y-138862175D01*
X99533743Y-138873211D01*
X99514337Y-138882390D01*
X99494125Y-138889622D01*
X99473301Y-138894838D01*
X99452066Y-138897988D01*
X99430625Y-138899041D01*
X98993125Y-138899041D01*
X98971684Y-138897988D01*
X98950449Y-138894838D01*
X98929625Y-138889622D01*
X98909413Y-138882390D01*
X98890007Y-138873211D01*
X98871594Y-138862175D01*
X98854351Y-138849387D01*
X98838445Y-138834971D01*
X98824029Y-138819065D01*
X98811241Y-138801822D01*
X98800205Y-138783409D01*
X98791026Y-138764003D01*
X98783794Y-138743791D01*
X98778578Y-138722967D01*
X98775428Y-138701732D01*
X98774375Y-138680291D01*
X98774375Y-138167791D01*
X98775428Y-138146350D01*
X98778578Y-138125115D01*
X98783794Y-138104291D01*
X98791026Y-138084079D01*
X98800205Y-138064673D01*
X98811241Y-138046260D01*
X98824029Y-138029017D01*
X98838445Y-138013111D01*
X98854351Y-137998695D01*
X98871594Y-137985907D01*
X98890007Y-137974871D01*
X98909413Y-137965692D01*
X98929625Y-137958460D01*
X98950449Y-137953244D01*
X98971684Y-137950094D01*
X98993125Y-137949041D01*
X99430625Y-137949041D01*
X99452066Y-137950094D01*
X99452066Y-137950094D01*
G37*
D12*
X99211875Y-138424041D03*
D11*
G36*
X97877066Y-137950094D02*
X97898301Y-137953244D01*
X97919125Y-137958460D01*
X97939337Y-137965692D01*
X97958743Y-137974871D01*
X97977156Y-137985907D01*
X97994399Y-137998695D01*
X98010305Y-138013111D01*
X98024721Y-138029017D01*
X98037509Y-138046260D01*
X98048545Y-138064673D01*
X98057724Y-138084079D01*
X98064956Y-138104291D01*
X98070172Y-138125115D01*
X98073322Y-138146350D01*
X98074375Y-138167791D01*
X98074375Y-138680291D01*
X98073322Y-138701732D01*
X98070172Y-138722967D01*
X98064956Y-138743791D01*
X98057724Y-138764003D01*
X98048545Y-138783409D01*
X98037509Y-138801822D01*
X98024721Y-138819065D01*
X98010305Y-138834971D01*
X97994399Y-138849387D01*
X97977156Y-138862175D01*
X97958743Y-138873211D01*
X97939337Y-138882390D01*
X97919125Y-138889622D01*
X97898301Y-138894838D01*
X97877066Y-138897988D01*
X97855625Y-138899041D01*
X97418125Y-138899041D01*
X97396684Y-138897988D01*
X97375449Y-138894838D01*
X97354625Y-138889622D01*
X97334413Y-138882390D01*
X97315007Y-138873211D01*
X97296594Y-138862175D01*
X97279351Y-138849387D01*
X97263445Y-138834971D01*
X97249029Y-138819065D01*
X97236241Y-138801822D01*
X97225205Y-138783409D01*
X97216026Y-138764003D01*
X97208794Y-138743791D01*
X97203578Y-138722967D01*
X97200428Y-138701732D01*
X97199375Y-138680291D01*
X97199375Y-138167791D01*
X97200428Y-138146350D01*
X97203578Y-138125115D01*
X97208794Y-138104291D01*
X97216026Y-138084079D01*
X97225205Y-138064673D01*
X97236241Y-138046260D01*
X97249029Y-138029017D01*
X97263445Y-138013111D01*
X97279351Y-137998695D01*
X97296594Y-137985907D01*
X97315007Y-137974871D01*
X97334413Y-137965692D01*
X97354625Y-137958460D01*
X97375449Y-137953244D01*
X97396684Y-137950094D01*
X97418125Y-137949041D01*
X97855625Y-137949041D01*
X97877066Y-137950094D01*
X97877066Y-137950094D01*
G37*
D12*
X97636875Y-138424041D03*
G04 #@! TD*
D11*
G04 #@! TO.C,C8*
G36*
X89268214Y-139682363D02*
X89289449Y-139685513D01*
X89310273Y-139690729D01*
X89330485Y-139697961D01*
X89349891Y-139707140D01*
X89368304Y-139718176D01*
X89385547Y-139730964D01*
X89401453Y-139745380D01*
X89415869Y-139761286D01*
X89428657Y-139778529D01*
X89439693Y-139796942D01*
X89448872Y-139816348D01*
X89456104Y-139836560D01*
X89461320Y-139857384D01*
X89464470Y-139878619D01*
X89465523Y-139900060D01*
X89465523Y-140412560D01*
X89464470Y-140434001D01*
X89461320Y-140455236D01*
X89456104Y-140476060D01*
X89448872Y-140496272D01*
X89439693Y-140515678D01*
X89428657Y-140534091D01*
X89415869Y-140551334D01*
X89401453Y-140567240D01*
X89385547Y-140581656D01*
X89368304Y-140594444D01*
X89349891Y-140605480D01*
X89330485Y-140614659D01*
X89310273Y-140621891D01*
X89289449Y-140627107D01*
X89268214Y-140630257D01*
X89246773Y-140631310D01*
X88809273Y-140631310D01*
X88787832Y-140630257D01*
X88766597Y-140627107D01*
X88745773Y-140621891D01*
X88725561Y-140614659D01*
X88706155Y-140605480D01*
X88687742Y-140594444D01*
X88670499Y-140581656D01*
X88654593Y-140567240D01*
X88640177Y-140551334D01*
X88627389Y-140534091D01*
X88616353Y-140515678D01*
X88607174Y-140496272D01*
X88599942Y-140476060D01*
X88594726Y-140455236D01*
X88591576Y-140434001D01*
X88590523Y-140412560D01*
X88590523Y-139900060D01*
X88591576Y-139878619D01*
X88594726Y-139857384D01*
X88599942Y-139836560D01*
X88607174Y-139816348D01*
X88616353Y-139796942D01*
X88627389Y-139778529D01*
X88640177Y-139761286D01*
X88654593Y-139745380D01*
X88670499Y-139730964D01*
X88687742Y-139718176D01*
X88706155Y-139707140D01*
X88725561Y-139697961D01*
X88745773Y-139690729D01*
X88766597Y-139685513D01*
X88787832Y-139682363D01*
X88809273Y-139681310D01*
X89246773Y-139681310D01*
X89268214Y-139682363D01*
X89268214Y-139682363D01*
G37*
D12*
X89028023Y-140156310D03*
D11*
G36*
X90843214Y-139682363D02*
X90864449Y-139685513D01*
X90885273Y-139690729D01*
X90905485Y-139697961D01*
X90924891Y-139707140D01*
X90943304Y-139718176D01*
X90960547Y-139730964D01*
X90976453Y-139745380D01*
X90990869Y-139761286D01*
X91003657Y-139778529D01*
X91014693Y-139796942D01*
X91023872Y-139816348D01*
X91031104Y-139836560D01*
X91036320Y-139857384D01*
X91039470Y-139878619D01*
X91040523Y-139900060D01*
X91040523Y-140412560D01*
X91039470Y-140434001D01*
X91036320Y-140455236D01*
X91031104Y-140476060D01*
X91023872Y-140496272D01*
X91014693Y-140515678D01*
X91003657Y-140534091D01*
X90990869Y-140551334D01*
X90976453Y-140567240D01*
X90960547Y-140581656D01*
X90943304Y-140594444D01*
X90924891Y-140605480D01*
X90905485Y-140614659D01*
X90885273Y-140621891D01*
X90864449Y-140627107D01*
X90843214Y-140630257D01*
X90821773Y-140631310D01*
X90384273Y-140631310D01*
X90362832Y-140630257D01*
X90341597Y-140627107D01*
X90320773Y-140621891D01*
X90300561Y-140614659D01*
X90281155Y-140605480D01*
X90262742Y-140594444D01*
X90245499Y-140581656D01*
X90229593Y-140567240D01*
X90215177Y-140551334D01*
X90202389Y-140534091D01*
X90191353Y-140515678D01*
X90182174Y-140496272D01*
X90174942Y-140476060D01*
X90169726Y-140455236D01*
X90166576Y-140434001D01*
X90165523Y-140412560D01*
X90165523Y-139900060D01*
X90166576Y-139878619D01*
X90169726Y-139857384D01*
X90174942Y-139836560D01*
X90182174Y-139816348D01*
X90191353Y-139796942D01*
X90202389Y-139778529D01*
X90215177Y-139761286D01*
X90229593Y-139745380D01*
X90245499Y-139730964D01*
X90262742Y-139718176D01*
X90281155Y-139707140D01*
X90300561Y-139697961D01*
X90320773Y-139690729D01*
X90341597Y-139685513D01*
X90362832Y-139682363D01*
X90384273Y-139681310D01*
X90821773Y-139681310D01*
X90843214Y-139682363D01*
X90843214Y-139682363D01*
G37*
D12*
X90603023Y-140156310D03*
G04 #@! TD*
D11*
G04 #@! TO.C,C9*
G36*
X360447262Y-130443595D02*
X360468497Y-130446745D01*
X360489321Y-130451961D01*
X360509533Y-130459193D01*
X360528939Y-130468372D01*
X360547352Y-130479408D01*
X360564595Y-130492196D01*
X360580501Y-130506612D01*
X360594917Y-130522518D01*
X360607705Y-130539761D01*
X360618741Y-130558174D01*
X360627920Y-130577580D01*
X360635152Y-130597792D01*
X360640368Y-130618616D01*
X360643518Y-130639851D01*
X360644571Y-130661292D01*
X360644571Y-131173792D01*
X360643518Y-131195233D01*
X360640368Y-131216468D01*
X360635152Y-131237292D01*
X360627920Y-131257504D01*
X360618741Y-131276910D01*
X360607705Y-131295323D01*
X360594917Y-131312566D01*
X360580501Y-131328472D01*
X360564595Y-131342888D01*
X360547352Y-131355676D01*
X360528939Y-131366712D01*
X360509533Y-131375891D01*
X360489321Y-131383123D01*
X360468497Y-131388339D01*
X360447262Y-131391489D01*
X360425821Y-131392542D01*
X359988321Y-131392542D01*
X359966880Y-131391489D01*
X359945645Y-131388339D01*
X359924821Y-131383123D01*
X359904609Y-131375891D01*
X359885203Y-131366712D01*
X359866790Y-131355676D01*
X359849547Y-131342888D01*
X359833641Y-131328472D01*
X359819225Y-131312566D01*
X359806437Y-131295323D01*
X359795401Y-131276910D01*
X359786222Y-131257504D01*
X359778990Y-131237292D01*
X359773774Y-131216468D01*
X359770624Y-131195233D01*
X359769571Y-131173792D01*
X359769571Y-130661292D01*
X359770624Y-130639851D01*
X359773774Y-130618616D01*
X359778990Y-130597792D01*
X359786222Y-130577580D01*
X359795401Y-130558174D01*
X359806437Y-130539761D01*
X359819225Y-130522518D01*
X359833641Y-130506612D01*
X359849547Y-130492196D01*
X359866790Y-130479408D01*
X359885203Y-130468372D01*
X359904609Y-130459193D01*
X359924821Y-130451961D01*
X359945645Y-130446745D01*
X359966880Y-130443595D01*
X359988321Y-130442542D01*
X360425821Y-130442542D01*
X360447262Y-130443595D01*
X360447262Y-130443595D01*
G37*
D12*
X360207071Y-130917542D03*
D11*
G36*
X358872262Y-130443595D02*
X358893497Y-130446745D01*
X358914321Y-130451961D01*
X358934533Y-130459193D01*
X358953939Y-130468372D01*
X358972352Y-130479408D01*
X358989595Y-130492196D01*
X359005501Y-130506612D01*
X359019917Y-130522518D01*
X359032705Y-130539761D01*
X359043741Y-130558174D01*
X359052920Y-130577580D01*
X359060152Y-130597792D01*
X359065368Y-130618616D01*
X359068518Y-130639851D01*
X359069571Y-130661292D01*
X359069571Y-131173792D01*
X359068518Y-131195233D01*
X359065368Y-131216468D01*
X359060152Y-131237292D01*
X359052920Y-131257504D01*
X359043741Y-131276910D01*
X359032705Y-131295323D01*
X359019917Y-131312566D01*
X359005501Y-131328472D01*
X358989595Y-131342888D01*
X358972352Y-131355676D01*
X358953939Y-131366712D01*
X358934533Y-131375891D01*
X358914321Y-131383123D01*
X358893497Y-131388339D01*
X358872262Y-131391489D01*
X358850821Y-131392542D01*
X358413321Y-131392542D01*
X358391880Y-131391489D01*
X358370645Y-131388339D01*
X358349821Y-131383123D01*
X358329609Y-131375891D01*
X358310203Y-131366712D01*
X358291790Y-131355676D01*
X358274547Y-131342888D01*
X358258641Y-131328472D01*
X358244225Y-131312566D01*
X358231437Y-131295323D01*
X358220401Y-131276910D01*
X358211222Y-131257504D01*
X358203990Y-131237292D01*
X358198774Y-131216468D01*
X358195624Y-131195233D01*
X358194571Y-131173792D01*
X358194571Y-130661292D01*
X358195624Y-130639851D01*
X358198774Y-130618616D01*
X358203990Y-130597792D01*
X358211222Y-130577580D01*
X358220401Y-130558174D01*
X358231437Y-130539761D01*
X358244225Y-130522518D01*
X358258641Y-130506612D01*
X358274547Y-130492196D01*
X358291790Y-130479408D01*
X358310203Y-130468372D01*
X358329609Y-130459193D01*
X358349821Y-130451961D01*
X358370645Y-130446745D01*
X358391880Y-130443595D01*
X358413321Y-130442542D01*
X358850821Y-130442542D01*
X358872262Y-130443595D01*
X358872262Y-130443595D01*
G37*
D12*
X358632071Y-130917542D03*
G04 #@! TD*
D11*
G04 #@! TO.C,C10*
G36*
X341864740Y-102202361D02*
X341885975Y-102205511D01*
X341906799Y-102210727D01*
X341927011Y-102217959D01*
X341946417Y-102227138D01*
X341964830Y-102238174D01*
X341982073Y-102250962D01*
X341997979Y-102265378D01*
X342012395Y-102281284D01*
X342025183Y-102298527D01*
X342036219Y-102316940D01*
X342045398Y-102336346D01*
X342052630Y-102356558D01*
X342057846Y-102377382D01*
X342060996Y-102398617D01*
X342062049Y-102420058D01*
X342062049Y-102932558D01*
X342060996Y-102953999D01*
X342057846Y-102975234D01*
X342052630Y-102996058D01*
X342045398Y-103016270D01*
X342036219Y-103035676D01*
X342025183Y-103054089D01*
X342012395Y-103071332D01*
X341997979Y-103087238D01*
X341982073Y-103101654D01*
X341964830Y-103114442D01*
X341946417Y-103125478D01*
X341927011Y-103134657D01*
X341906799Y-103141889D01*
X341885975Y-103147105D01*
X341864740Y-103150255D01*
X341843299Y-103151308D01*
X341405799Y-103151308D01*
X341384358Y-103150255D01*
X341363123Y-103147105D01*
X341342299Y-103141889D01*
X341322087Y-103134657D01*
X341302681Y-103125478D01*
X341284268Y-103114442D01*
X341267025Y-103101654D01*
X341251119Y-103087238D01*
X341236703Y-103071332D01*
X341223915Y-103054089D01*
X341212879Y-103035676D01*
X341203700Y-103016270D01*
X341196468Y-102996058D01*
X341191252Y-102975234D01*
X341188102Y-102953999D01*
X341187049Y-102932558D01*
X341187049Y-102420058D01*
X341188102Y-102398617D01*
X341191252Y-102377382D01*
X341196468Y-102356558D01*
X341203700Y-102336346D01*
X341212879Y-102316940D01*
X341223915Y-102298527D01*
X341236703Y-102281284D01*
X341251119Y-102265378D01*
X341267025Y-102250962D01*
X341284268Y-102238174D01*
X341302681Y-102227138D01*
X341322087Y-102217959D01*
X341342299Y-102210727D01*
X341363123Y-102205511D01*
X341384358Y-102202361D01*
X341405799Y-102201308D01*
X341843299Y-102201308D01*
X341864740Y-102202361D01*
X341864740Y-102202361D01*
G37*
D12*
X341624549Y-102676308D03*
D11*
G36*
X340289740Y-102202361D02*
X340310975Y-102205511D01*
X340331799Y-102210727D01*
X340352011Y-102217959D01*
X340371417Y-102227138D01*
X340389830Y-102238174D01*
X340407073Y-102250962D01*
X340422979Y-102265378D01*
X340437395Y-102281284D01*
X340450183Y-102298527D01*
X340461219Y-102316940D01*
X340470398Y-102336346D01*
X340477630Y-102356558D01*
X340482846Y-102377382D01*
X340485996Y-102398617D01*
X340487049Y-102420058D01*
X340487049Y-102932558D01*
X340485996Y-102953999D01*
X340482846Y-102975234D01*
X340477630Y-102996058D01*
X340470398Y-103016270D01*
X340461219Y-103035676D01*
X340450183Y-103054089D01*
X340437395Y-103071332D01*
X340422979Y-103087238D01*
X340407073Y-103101654D01*
X340389830Y-103114442D01*
X340371417Y-103125478D01*
X340352011Y-103134657D01*
X340331799Y-103141889D01*
X340310975Y-103147105D01*
X340289740Y-103150255D01*
X340268299Y-103151308D01*
X339830799Y-103151308D01*
X339809358Y-103150255D01*
X339788123Y-103147105D01*
X339767299Y-103141889D01*
X339747087Y-103134657D01*
X339727681Y-103125478D01*
X339709268Y-103114442D01*
X339692025Y-103101654D01*
X339676119Y-103087238D01*
X339661703Y-103071332D01*
X339648915Y-103054089D01*
X339637879Y-103035676D01*
X339628700Y-103016270D01*
X339621468Y-102996058D01*
X339616252Y-102975234D01*
X339613102Y-102953999D01*
X339612049Y-102932558D01*
X339612049Y-102420058D01*
X339613102Y-102398617D01*
X339616252Y-102377382D01*
X339621468Y-102356558D01*
X339628700Y-102336346D01*
X339637879Y-102316940D01*
X339648915Y-102298527D01*
X339661703Y-102281284D01*
X339676119Y-102265378D01*
X339692025Y-102250962D01*
X339709268Y-102238174D01*
X339727681Y-102227138D01*
X339747087Y-102217959D01*
X339767299Y-102210727D01*
X339788123Y-102205511D01*
X339809358Y-102202361D01*
X339830799Y-102201308D01*
X340268299Y-102201308D01*
X340289740Y-102202361D01*
X340289740Y-102202361D01*
G37*
D12*
X340049549Y-102676308D03*
G04 #@! TD*
D11*
G04 #@! TO.C,C11*
G36*
X290631362Y-103882137D02*
X290652597Y-103885287D01*
X290673421Y-103890503D01*
X290693633Y-103897735D01*
X290713039Y-103906914D01*
X290731452Y-103917950D01*
X290748695Y-103930738D01*
X290764601Y-103945154D01*
X290779017Y-103961060D01*
X290791805Y-103978303D01*
X290802841Y-103996716D01*
X290812020Y-104016122D01*
X290819252Y-104036334D01*
X290824468Y-104057158D01*
X290827618Y-104078393D01*
X290828671Y-104099834D01*
X290828671Y-104612334D01*
X290827618Y-104633775D01*
X290824468Y-104655010D01*
X290819252Y-104675834D01*
X290812020Y-104696046D01*
X290802841Y-104715452D01*
X290791805Y-104733865D01*
X290779017Y-104751108D01*
X290764601Y-104767014D01*
X290748695Y-104781430D01*
X290731452Y-104794218D01*
X290713039Y-104805254D01*
X290693633Y-104814433D01*
X290673421Y-104821665D01*
X290652597Y-104826881D01*
X290631362Y-104830031D01*
X290609921Y-104831084D01*
X290172421Y-104831084D01*
X290150980Y-104830031D01*
X290129745Y-104826881D01*
X290108921Y-104821665D01*
X290088709Y-104814433D01*
X290069303Y-104805254D01*
X290050890Y-104794218D01*
X290033647Y-104781430D01*
X290017741Y-104767014D01*
X290003325Y-104751108D01*
X289990537Y-104733865D01*
X289979501Y-104715452D01*
X289970322Y-104696046D01*
X289963090Y-104675834D01*
X289957874Y-104655010D01*
X289954724Y-104633775D01*
X289953671Y-104612334D01*
X289953671Y-104099834D01*
X289954724Y-104078393D01*
X289957874Y-104057158D01*
X289963090Y-104036334D01*
X289970322Y-104016122D01*
X289979501Y-103996716D01*
X289990537Y-103978303D01*
X290003325Y-103961060D01*
X290017741Y-103945154D01*
X290033647Y-103930738D01*
X290050890Y-103917950D01*
X290069303Y-103906914D01*
X290088709Y-103897735D01*
X290108921Y-103890503D01*
X290129745Y-103885287D01*
X290150980Y-103882137D01*
X290172421Y-103881084D01*
X290609921Y-103881084D01*
X290631362Y-103882137D01*
X290631362Y-103882137D01*
G37*
D12*
X290391171Y-104356084D03*
D11*
G36*
X292206362Y-103882137D02*
X292227597Y-103885287D01*
X292248421Y-103890503D01*
X292268633Y-103897735D01*
X292288039Y-103906914D01*
X292306452Y-103917950D01*
X292323695Y-103930738D01*
X292339601Y-103945154D01*
X292354017Y-103961060D01*
X292366805Y-103978303D01*
X292377841Y-103996716D01*
X292387020Y-104016122D01*
X292394252Y-104036334D01*
X292399468Y-104057158D01*
X292402618Y-104078393D01*
X292403671Y-104099834D01*
X292403671Y-104612334D01*
X292402618Y-104633775D01*
X292399468Y-104655010D01*
X292394252Y-104675834D01*
X292387020Y-104696046D01*
X292377841Y-104715452D01*
X292366805Y-104733865D01*
X292354017Y-104751108D01*
X292339601Y-104767014D01*
X292323695Y-104781430D01*
X292306452Y-104794218D01*
X292288039Y-104805254D01*
X292268633Y-104814433D01*
X292248421Y-104821665D01*
X292227597Y-104826881D01*
X292206362Y-104830031D01*
X292184921Y-104831084D01*
X291747421Y-104831084D01*
X291725980Y-104830031D01*
X291704745Y-104826881D01*
X291683921Y-104821665D01*
X291663709Y-104814433D01*
X291644303Y-104805254D01*
X291625890Y-104794218D01*
X291608647Y-104781430D01*
X291592741Y-104767014D01*
X291578325Y-104751108D01*
X291565537Y-104733865D01*
X291554501Y-104715452D01*
X291545322Y-104696046D01*
X291538090Y-104675834D01*
X291532874Y-104655010D01*
X291529724Y-104633775D01*
X291528671Y-104612334D01*
X291528671Y-104099834D01*
X291529724Y-104078393D01*
X291532874Y-104057158D01*
X291538090Y-104036334D01*
X291545322Y-104016122D01*
X291554501Y-103996716D01*
X291565537Y-103978303D01*
X291578325Y-103961060D01*
X291592741Y-103945154D01*
X291608647Y-103930738D01*
X291625890Y-103917950D01*
X291644303Y-103906914D01*
X291663709Y-103897735D01*
X291683921Y-103890503D01*
X291704745Y-103885287D01*
X291725980Y-103882137D01*
X291747421Y-103881084D01*
X292184921Y-103881084D01*
X292206362Y-103882137D01*
X292206362Y-103882137D01*
G37*
D12*
X291966171Y-104356084D03*
G04 #@! TD*
D11*
G04 #@! TO.C,C12*
G36*
X235146471Y-103199728D02*
X235167706Y-103202878D01*
X235188530Y-103208094D01*
X235208742Y-103215326D01*
X235228148Y-103224505D01*
X235246561Y-103235541D01*
X235263804Y-103248329D01*
X235279710Y-103262745D01*
X235294126Y-103278651D01*
X235306914Y-103295894D01*
X235317950Y-103314307D01*
X235327129Y-103333713D01*
X235334361Y-103353925D01*
X235339577Y-103374749D01*
X235342727Y-103395984D01*
X235343780Y-103417425D01*
X235343780Y-103929925D01*
X235342727Y-103951366D01*
X235339577Y-103972601D01*
X235334361Y-103993425D01*
X235327129Y-104013637D01*
X235317950Y-104033043D01*
X235306914Y-104051456D01*
X235294126Y-104068699D01*
X235279710Y-104084605D01*
X235263804Y-104099021D01*
X235246561Y-104111809D01*
X235228148Y-104122845D01*
X235208742Y-104132024D01*
X235188530Y-104139256D01*
X235167706Y-104144472D01*
X235146471Y-104147622D01*
X235125030Y-104148675D01*
X234687530Y-104148675D01*
X234666089Y-104147622D01*
X234644854Y-104144472D01*
X234624030Y-104139256D01*
X234603818Y-104132024D01*
X234584412Y-104122845D01*
X234565999Y-104111809D01*
X234548756Y-104099021D01*
X234532850Y-104084605D01*
X234518434Y-104068699D01*
X234505646Y-104051456D01*
X234494610Y-104033043D01*
X234485431Y-104013637D01*
X234478199Y-103993425D01*
X234472983Y-103972601D01*
X234469833Y-103951366D01*
X234468780Y-103929925D01*
X234468780Y-103417425D01*
X234469833Y-103395984D01*
X234472983Y-103374749D01*
X234478199Y-103353925D01*
X234485431Y-103333713D01*
X234494610Y-103314307D01*
X234505646Y-103295894D01*
X234518434Y-103278651D01*
X234532850Y-103262745D01*
X234548756Y-103248329D01*
X234565999Y-103235541D01*
X234584412Y-103224505D01*
X234603818Y-103215326D01*
X234624030Y-103208094D01*
X234644854Y-103202878D01*
X234666089Y-103199728D01*
X234687530Y-103198675D01*
X235125030Y-103198675D01*
X235146471Y-103199728D01*
X235146471Y-103199728D01*
G37*
D12*
X234906280Y-103673675D03*
D11*
G36*
X233571471Y-103199728D02*
X233592706Y-103202878D01*
X233613530Y-103208094D01*
X233633742Y-103215326D01*
X233653148Y-103224505D01*
X233671561Y-103235541D01*
X233688804Y-103248329D01*
X233704710Y-103262745D01*
X233719126Y-103278651D01*
X233731914Y-103295894D01*
X233742950Y-103314307D01*
X233752129Y-103333713D01*
X233759361Y-103353925D01*
X233764577Y-103374749D01*
X233767727Y-103395984D01*
X233768780Y-103417425D01*
X233768780Y-103929925D01*
X233767727Y-103951366D01*
X233764577Y-103972601D01*
X233759361Y-103993425D01*
X233752129Y-104013637D01*
X233742950Y-104033043D01*
X233731914Y-104051456D01*
X233719126Y-104068699D01*
X233704710Y-104084605D01*
X233688804Y-104099021D01*
X233671561Y-104111809D01*
X233653148Y-104122845D01*
X233633742Y-104132024D01*
X233613530Y-104139256D01*
X233592706Y-104144472D01*
X233571471Y-104147622D01*
X233550030Y-104148675D01*
X233112530Y-104148675D01*
X233091089Y-104147622D01*
X233069854Y-104144472D01*
X233049030Y-104139256D01*
X233028818Y-104132024D01*
X233009412Y-104122845D01*
X232990999Y-104111809D01*
X232973756Y-104099021D01*
X232957850Y-104084605D01*
X232943434Y-104068699D01*
X232930646Y-104051456D01*
X232919610Y-104033043D01*
X232910431Y-104013637D01*
X232903199Y-103993425D01*
X232897983Y-103972601D01*
X232894833Y-103951366D01*
X232893780Y-103929925D01*
X232893780Y-103417425D01*
X232894833Y-103395984D01*
X232897983Y-103374749D01*
X232903199Y-103353925D01*
X232910431Y-103333713D01*
X232919610Y-103314307D01*
X232930646Y-103295894D01*
X232943434Y-103278651D01*
X232957850Y-103262745D01*
X232973756Y-103248329D01*
X232990999Y-103235541D01*
X233009412Y-103224505D01*
X233028818Y-103215326D01*
X233049030Y-103208094D01*
X233069854Y-103202878D01*
X233091089Y-103199728D01*
X233112530Y-103198675D01*
X233550030Y-103198675D01*
X233571471Y-103199728D01*
X233571471Y-103199728D01*
G37*
D12*
X233331280Y-103673675D03*
G04 #@! TD*
D11*
G04 #@! TO.C,C13*
G36*
X176354101Y-103199728D02*
X176375336Y-103202878D01*
X176396160Y-103208094D01*
X176416372Y-103215326D01*
X176435778Y-103224505D01*
X176454191Y-103235541D01*
X176471434Y-103248329D01*
X176487340Y-103262745D01*
X176501756Y-103278651D01*
X176514544Y-103295894D01*
X176525580Y-103314307D01*
X176534759Y-103333713D01*
X176541991Y-103353925D01*
X176547207Y-103374749D01*
X176550357Y-103395984D01*
X176551410Y-103417425D01*
X176551410Y-103929925D01*
X176550357Y-103951366D01*
X176547207Y-103972601D01*
X176541991Y-103993425D01*
X176534759Y-104013637D01*
X176525580Y-104033043D01*
X176514544Y-104051456D01*
X176501756Y-104068699D01*
X176487340Y-104084605D01*
X176471434Y-104099021D01*
X176454191Y-104111809D01*
X176435778Y-104122845D01*
X176416372Y-104132024D01*
X176396160Y-104139256D01*
X176375336Y-104144472D01*
X176354101Y-104147622D01*
X176332660Y-104148675D01*
X175895160Y-104148675D01*
X175873719Y-104147622D01*
X175852484Y-104144472D01*
X175831660Y-104139256D01*
X175811448Y-104132024D01*
X175792042Y-104122845D01*
X175773629Y-104111809D01*
X175756386Y-104099021D01*
X175740480Y-104084605D01*
X175726064Y-104068699D01*
X175713276Y-104051456D01*
X175702240Y-104033043D01*
X175693061Y-104013637D01*
X175685829Y-103993425D01*
X175680613Y-103972601D01*
X175677463Y-103951366D01*
X175676410Y-103929925D01*
X175676410Y-103417425D01*
X175677463Y-103395984D01*
X175680613Y-103374749D01*
X175685829Y-103353925D01*
X175693061Y-103333713D01*
X175702240Y-103314307D01*
X175713276Y-103295894D01*
X175726064Y-103278651D01*
X175740480Y-103262745D01*
X175756386Y-103248329D01*
X175773629Y-103235541D01*
X175792042Y-103224505D01*
X175811448Y-103215326D01*
X175831660Y-103208094D01*
X175852484Y-103202878D01*
X175873719Y-103199728D01*
X175895160Y-103198675D01*
X176332660Y-103198675D01*
X176354101Y-103199728D01*
X176354101Y-103199728D01*
G37*
D12*
X176113910Y-103673675D03*
D11*
G36*
X177929101Y-103199728D02*
X177950336Y-103202878D01*
X177971160Y-103208094D01*
X177991372Y-103215326D01*
X178010778Y-103224505D01*
X178029191Y-103235541D01*
X178046434Y-103248329D01*
X178062340Y-103262745D01*
X178076756Y-103278651D01*
X178089544Y-103295894D01*
X178100580Y-103314307D01*
X178109759Y-103333713D01*
X178116991Y-103353925D01*
X178122207Y-103374749D01*
X178125357Y-103395984D01*
X178126410Y-103417425D01*
X178126410Y-103929925D01*
X178125357Y-103951366D01*
X178122207Y-103972601D01*
X178116991Y-103993425D01*
X178109759Y-104013637D01*
X178100580Y-104033043D01*
X178089544Y-104051456D01*
X178076756Y-104068699D01*
X178062340Y-104084605D01*
X178046434Y-104099021D01*
X178029191Y-104111809D01*
X178010778Y-104122845D01*
X177991372Y-104132024D01*
X177971160Y-104139256D01*
X177950336Y-104144472D01*
X177929101Y-104147622D01*
X177907660Y-104148675D01*
X177470160Y-104148675D01*
X177448719Y-104147622D01*
X177427484Y-104144472D01*
X177406660Y-104139256D01*
X177386448Y-104132024D01*
X177367042Y-104122845D01*
X177348629Y-104111809D01*
X177331386Y-104099021D01*
X177315480Y-104084605D01*
X177301064Y-104068699D01*
X177288276Y-104051456D01*
X177277240Y-104033043D01*
X177268061Y-104013637D01*
X177260829Y-103993425D01*
X177255613Y-103972601D01*
X177252463Y-103951366D01*
X177251410Y-103929925D01*
X177251410Y-103417425D01*
X177252463Y-103395984D01*
X177255613Y-103374749D01*
X177260829Y-103353925D01*
X177268061Y-103333713D01*
X177277240Y-103314307D01*
X177288276Y-103295894D01*
X177301064Y-103278651D01*
X177315480Y-103262745D01*
X177331386Y-103248329D01*
X177348629Y-103235541D01*
X177367042Y-103224505D01*
X177386448Y-103215326D01*
X177406660Y-103208094D01*
X177427484Y-103202878D01*
X177448719Y-103199728D01*
X177470160Y-103198675D01*
X177907660Y-103198675D01*
X177929101Y-103199728D01*
X177929101Y-103199728D01*
G37*
D12*
X177688910Y-103673675D03*
G04 #@! TD*
D11*
G04 #@! TO.C,C14*
G36*
X120449266Y-102832277D02*
X120470501Y-102835427D01*
X120491325Y-102840643D01*
X120511537Y-102847875D01*
X120530943Y-102857054D01*
X120549356Y-102868090D01*
X120566599Y-102880878D01*
X120582505Y-102895294D01*
X120596921Y-102911200D01*
X120609709Y-102928443D01*
X120620745Y-102946856D01*
X120629924Y-102966262D01*
X120637156Y-102986474D01*
X120642372Y-103007298D01*
X120645522Y-103028533D01*
X120646575Y-103049974D01*
X120646575Y-103562474D01*
X120645522Y-103583915D01*
X120642372Y-103605150D01*
X120637156Y-103625974D01*
X120629924Y-103646186D01*
X120620745Y-103665592D01*
X120609709Y-103684005D01*
X120596921Y-103701248D01*
X120582505Y-103717154D01*
X120566599Y-103731570D01*
X120549356Y-103744358D01*
X120530943Y-103755394D01*
X120511537Y-103764573D01*
X120491325Y-103771805D01*
X120470501Y-103777021D01*
X120449266Y-103780171D01*
X120427825Y-103781224D01*
X119990325Y-103781224D01*
X119968884Y-103780171D01*
X119947649Y-103777021D01*
X119926825Y-103771805D01*
X119906613Y-103764573D01*
X119887207Y-103755394D01*
X119868794Y-103744358D01*
X119851551Y-103731570D01*
X119835645Y-103717154D01*
X119821229Y-103701248D01*
X119808441Y-103684005D01*
X119797405Y-103665592D01*
X119788226Y-103646186D01*
X119780994Y-103625974D01*
X119775778Y-103605150D01*
X119772628Y-103583915D01*
X119771575Y-103562474D01*
X119771575Y-103049974D01*
X119772628Y-103028533D01*
X119775778Y-103007298D01*
X119780994Y-102986474D01*
X119788226Y-102966262D01*
X119797405Y-102946856D01*
X119808441Y-102928443D01*
X119821229Y-102911200D01*
X119835645Y-102895294D01*
X119851551Y-102880878D01*
X119868794Y-102868090D01*
X119887207Y-102857054D01*
X119906613Y-102847875D01*
X119926825Y-102840643D01*
X119947649Y-102835427D01*
X119968884Y-102832277D01*
X119990325Y-102831224D01*
X120427825Y-102831224D01*
X120449266Y-102832277D01*
X120449266Y-102832277D01*
G37*
D12*
X120209075Y-103306224D03*
D11*
G36*
X118874266Y-102832277D02*
X118895501Y-102835427D01*
X118916325Y-102840643D01*
X118936537Y-102847875D01*
X118955943Y-102857054D01*
X118974356Y-102868090D01*
X118991599Y-102880878D01*
X119007505Y-102895294D01*
X119021921Y-102911200D01*
X119034709Y-102928443D01*
X119045745Y-102946856D01*
X119054924Y-102966262D01*
X119062156Y-102986474D01*
X119067372Y-103007298D01*
X119070522Y-103028533D01*
X119071575Y-103049974D01*
X119071575Y-103562474D01*
X119070522Y-103583915D01*
X119067372Y-103605150D01*
X119062156Y-103625974D01*
X119054924Y-103646186D01*
X119045745Y-103665592D01*
X119034709Y-103684005D01*
X119021921Y-103701248D01*
X119007505Y-103717154D01*
X118991599Y-103731570D01*
X118974356Y-103744358D01*
X118955943Y-103755394D01*
X118936537Y-103764573D01*
X118916325Y-103771805D01*
X118895501Y-103777021D01*
X118874266Y-103780171D01*
X118852825Y-103781224D01*
X118415325Y-103781224D01*
X118393884Y-103780171D01*
X118372649Y-103777021D01*
X118351825Y-103771805D01*
X118331613Y-103764573D01*
X118312207Y-103755394D01*
X118293794Y-103744358D01*
X118276551Y-103731570D01*
X118260645Y-103717154D01*
X118246229Y-103701248D01*
X118233441Y-103684005D01*
X118222405Y-103665592D01*
X118213226Y-103646186D01*
X118205994Y-103625974D01*
X118200778Y-103605150D01*
X118197628Y-103583915D01*
X118196575Y-103562474D01*
X118196575Y-103049974D01*
X118197628Y-103028533D01*
X118200778Y-103007298D01*
X118205994Y-102986474D01*
X118213226Y-102966262D01*
X118222405Y-102946856D01*
X118233441Y-102928443D01*
X118246229Y-102911200D01*
X118260645Y-102895294D01*
X118276551Y-102880878D01*
X118293794Y-102868090D01*
X118312207Y-102857054D01*
X118331613Y-102847875D01*
X118351825Y-102840643D01*
X118372649Y-102835427D01*
X118393884Y-102832277D01*
X118415325Y-102831224D01*
X118852825Y-102831224D01*
X118874266Y-102832277D01*
X118874266Y-102832277D01*
G37*
D12*
X118634075Y-103306224D03*
G04 #@! TD*
D11*
G04 #@! TO.C,C15*
G36*
X76564908Y-107189196D02*
X76586143Y-107192346D01*
X76606967Y-107197562D01*
X76627179Y-107204794D01*
X76646585Y-107213973D01*
X76664998Y-107225009D01*
X76682241Y-107237797D01*
X76698147Y-107252213D01*
X76712563Y-107268119D01*
X76725351Y-107285362D01*
X76736387Y-107303775D01*
X76745566Y-107323181D01*
X76752798Y-107343393D01*
X76758014Y-107364217D01*
X76761164Y-107385452D01*
X76762217Y-107406893D01*
X76762217Y-107919393D01*
X76761164Y-107940834D01*
X76758014Y-107962069D01*
X76752798Y-107982893D01*
X76745566Y-108003105D01*
X76736387Y-108022511D01*
X76725351Y-108040924D01*
X76712563Y-108058167D01*
X76698147Y-108074073D01*
X76682241Y-108088489D01*
X76664998Y-108101277D01*
X76646585Y-108112313D01*
X76627179Y-108121492D01*
X76606967Y-108128724D01*
X76586143Y-108133940D01*
X76564908Y-108137090D01*
X76543467Y-108138143D01*
X76105967Y-108138143D01*
X76084526Y-108137090D01*
X76063291Y-108133940D01*
X76042467Y-108128724D01*
X76022255Y-108121492D01*
X76002849Y-108112313D01*
X75984436Y-108101277D01*
X75967193Y-108088489D01*
X75951287Y-108074073D01*
X75936871Y-108058167D01*
X75924083Y-108040924D01*
X75913047Y-108022511D01*
X75903868Y-108003105D01*
X75896636Y-107982893D01*
X75891420Y-107962069D01*
X75888270Y-107940834D01*
X75887217Y-107919393D01*
X75887217Y-107406893D01*
X75888270Y-107385452D01*
X75891420Y-107364217D01*
X75896636Y-107343393D01*
X75903868Y-107323181D01*
X75913047Y-107303775D01*
X75924083Y-107285362D01*
X75936871Y-107268119D01*
X75951287Y-107252213D01*
X75967193Y-107237797D01*
X75984436Y-107225009D01*
X76002849Y-107213973D01*
X76022255Y-107204794D01*
X76042467Y-107197562D01*
X76063291Y-107192346D01*
X76084526Y-107189196D01*
X76105967Y-107188143D01*
X76543467Y-107188143D01*
X76564908Y-107189196D01*
X76564908Y-107189196D01*
G37*
D12*
X76324717Y-107663143D03*
D11*
G36*
X78139908Y-107189196D02*
X78161143Y-107192346D01*
X78181967Y-107197562D01*
X78202179Y-107204794D01*
X78221585Y-107213973D01*
X78239998Y-107225009D01*
X78257241Y-107237797D01*
X78273147Y-107252213D01*
X78287563Y-107268119D01*
X78300351Y-107285362D01*
X78311387Y-107303775D01*
X78320566Y-107323181D01*
X78327798Y-107343393D01*
X78333014Y-107364217D01*
X78336164Y-107385452D01*
X78337217Y-107406893D01*
X78337217Y-107919393D01*
X78336164Y-107940834D01*
X78333014Y-107962069D01*
X78327798Y-107982893D01*
X78320566Y-108003105D01*
X78311387Y-108022511D01*
X78300351Y-108040924D01*
X78287563Y-108058167D01*
X78273147Y-108074073D01*
X78257241Y-108088489D01*
X78239998Y-108101277D01*
X78221585Y-108112313D01*
X78202179Y-108121492D01*
X78181967Y-108128724D01*
X78161143Y-108133940D01*
X78139908Y-108137090D01*
X78118467Y-108138143D01*
X77680967Y-108138143D01*
X77659526Y-108137090D01*
X77638291Y-108133940D01*
X77617467Y-108128724D01*
X77597255Y-108121492D01*
X77577849Y-108112313D01*
X77559436Y-108101277D01*
X77542193Y-108088489D01*
X77526287Y-108074073D01*
X77511871Y-108058167D01*
X77499083Y-108040924D01*
X77488047Y-108022511D01*
X77478868Y-108003105D01*
X77471636Y-107982893D01*
X77466420Y-107962069D01*
X77463270Y-107940834D01*
X77462217Y-107919393D01*
X77462217Y-107406893D01*
X77463270Y-107385452D01*
X77466420Y-107364217D01*
X77471636Y-107343393D01*
X77478868Y-107323181D01*
X77488047Y-107303775D01*
X77499083Y-107285362D01*
X77511871Y-107268119D01*
X77526287Y-107252213D01*
X77542193Y-107237797D01*
X77559436Y-107225009D01*
X77577849Y-107213973D01*
X77597255Y-107204794D01*
X77617467Y-107197562D01*
X77638291Y-107192346D01*
X77659526Y-107189196D01*
X77680967Y-107188143D01*
X78118467Y-107188143D01*
X78139908Y-107189196D01*
X78139908Y-107189196D01*
G37*
D12*
X77899717Y-107663143D03*
G04 #@! TD*
D11*
G04 #@! TO.C,C16*
G36*
X71315608Y-133330710D02*
X71336843Y-133333860D01*
X71357667Y-133339076D01*
X71377879Y-133346308D01*
X71397285Y-133355487D01*
X71415698Y-133366523D01*
X71432941Y-133379311D01*
X71448847Y-133393727D01*
X71463263Y-133409633D01*
X71476051Y-133426876D01*
X71487087Y-133445289D01*
X71496266Y-133464695D01*
X71503498Y-133484907D01*
X71508714Y-133505731D01*
X71511864Y-133526966D01*
X71512917Y-133548407D01*
X71512917Y-134060907D01*
X71511864Y-134082348D01*
X71508714Y-134103583D01*
X71503498Y-134124407D01*
X71496266Y-134144619D01*
X71487087Y-134164025D01*
X71476051Y-134182438D01*
X71463263Y-134199681D01*
X71448847Y-134215587D01*
X71432941Y-134230003D01*
X71415698Y-134242791D01*
X71397285Y-134253827D01*
X71377879Y-134263006D01*
X71357667Y-134270238D01*
X71336843Y-134275454D01*
X71315608Y-134278604D01*
X71294167Y-134279657D01*
X70856667Y-134279657D01*
X70835226Y-134278604D01*
X70813991Y-134275454D01*
X70793167Y-134270238D01*
X70772955Y-134263006D01*
X70753549Y-134253827D01*
X70735136Y-134242791D01*
X70717893Y-134230003D01*
X70701987Y-134215587D01*
X70687571Y-134199681D01*
X70674783Y-134182438D01*
X70663747Y-134164025D01*
X70654568Y-134144619D01*
X70647336Y-134124407D01*
X70642120Y-134103583D01*
X70638970Y-134082348D01*
X70637917Y-134060907D01*
X70637917Y-133548407D01*
X70638970Y-133526966D01*
X70642120Y-133505731D01*
X70647336Y-133484907D01*
X70654568Y-133464695D01*
X70663747Y-133445289D01*
X70674783Y-133426876D01*
X70687571Y-133409633D01*
X70701987Y-133393727D01*
X70717893Y-133379311D01*
X70735136Y-133366523D01*
X70753549Y-133355487D01*
X70772955Y-133346308D01*
X70793167Y-133339076D01*
X70813991Y-133333860D01*
X70835226Y-133330710D01*
X70856667Y-133329657D01*
X71294167Y-133329657D01*
X71315608Y-133330710D01*
X71315608Y-133330710D01*
G37*
D12*
X71075417Y-133804657D03*
D11*
G36*
X72890608Y-133330710D02*
X72911843Y-133333860D01*
X72932667Y-133339076D01*
X72952879Y-133346308D01*
X72972285Y-133355487D01*
X72990698Y-133366523D01*
X73007941Y-133379311D01*
X73023847Y-133393727D01*
X73038263Y-133409633D01*
X73051051Y-133426876D01*
X73062087Y-133445289D01*
X73071266Y-133464695D01*
X73078498Y-133484907D01*
X73083714Y-133505731D01*
X73086864Y-133526966D01*
X73087917Y-133548407D01*
X73087917Y-134060907D01*
X73086864Y-134082348D01*
X73083714Y-134103583D01*
X73078498Y-134124407D01*
X73071266Y-134144619D01*
X73062087Y-134164025D01*
X73051051Y-134182438D01*
X73038263Y-134199681D01*
X73023847Y-134215587D01*
X73007941Y-134230003D01*
X72990698Y-134242791D01*
X72972285Y-134253827D01*
X72952879Y-134263006D01*
X72932667Y-134270238D01*
X72911843Y-134275454D01*
X72890608Y-134278604D01*
X72869167Y-134279657D01*
X72431667Y-134279657D01*
X72410226Y-134278604D01*
X72388991Y-134275454D01*
X72368167Y-134270238D01*
X72347955Y-134263006D01*
X72328549Y-134253827D01*
X72310136Y-134242791D01*
X72292893Y-134230003D01*
X72276987Y-134215587D01*
X72262571Y-134199681D01*
X72249783Y-134182438D01*
X72238747Y-134164025D01*
X72229568Y-134144619D01*
X72222336Y-134124407D01*
X72217120Y-134103583D01*
X72213970Y-134082348D01*
X72212917Y-134060907D01*
X72212917Y-133548407D01*
X72213970Y-133526966D01*
X72217120Y-133505731D01*
X72222336Y-133484907D01*
X72229568Y-133464695D01*
X72238747Y-133445289D01*
X72249783Y-133426876D01*
X72262571Y-133409633D01*
X72276987Y-133393727D01*
X72292893Y-133379311D01*
X72310136Y-133366523D01*
X72328549Y-133355487D01*
X72347955Y-133346308D01*
X72368167Y-133339076D01*
X72388991Y-133333860D01*
X72410226Y-133330710D01*
X72431667Y-133329657D01*
X72869167Y-133329657D01*
X72890608Y-133330710D01*
X72890608Y-133330710D01*
G37*
D12*
X72650417Y-133804657D03*
G04 #@! TD*
D11*
G04 #@! TO.C,C17*
G36*
X85338823Y-176374970D02*
X85360058Y-176378120D01*
X85380882Y-176383336D01*
X85401094Y-176390568D01*
X85420500Y-176399747D01*
X85438913Y-176410783D01*
X85456156Y-176423571D01*
X85472062Y-176437987D01*
X85486478Y-176453893D01*
X85499266Y-176471136D01*
X85510302Y-176489549D01*
X85519481Y-176508955D01*
X85526713Y-176529167D01*
X85531929Y-176549991D01*
X85535079Y-176571226D01*
X85536132Y-176592667D01*
X85536132Y-177105167D01*
X85535079Y-177126608D01*
X85531929Y-177147843D01*
X85526713Y-177168667D01*
X85519481Y-177188879D01*
X85510302Y-177208285D01*
X85499266Y-177226698D01*
X85486478Y-177243941D01*
X85472062Y-177259847D01*
X85456156Y-177274263D01*
X85438913Y-177287051D01*
X85420500Y-177298087D01*
X85401094Y-177307266D01*
X85380882Y-177314498D01*
X85360058Y-177319714D01*
X85338823Y-177322864D01*
X85317382Y-177323917D01*
X84879882Y-177323917D01*
X84858441Y-177322864D01*
X84837206Y-177319714D01*
X84816382Y-177314498D01*
X84796170Y-177307266D01*
X84776764Y-177298087D01*
X84758351Y-177287051D01*
X84741108Y-177274263D01*
X84725202Y-177259847D01*
X84710786Y-177243941D01*
X84697998Y-177226698D01*
X84686962Y-177208285D01*
X84677783Y-177188879D01*
X84670551Y-177168667D01*
X84665335Y-177147843D01*
X84662185Y-177126608D01*
X84661132Y-177105167D01*
X84661132Y-176592667D01*
X84662185Y-176571226D01*
X84665335Y-176549991D01*
X84670551Y-176529167D01*
X84677783Y-176508955D01*
X84686962Y-176489549D01*
X84697998Y-176471136D01*
X84710786Y-176453893D01*
X84725202Y-176437987D01*
X84741108Y-176423571D01*
X84758351Y-176410783D01*
X84776764Y-176399747D01*
X84796170Y-176390568D01*
X84816382Y-176383336D01*
X84837206Y-176378120D01*
X84858441Y-176374970D01*
X84879882Y-176373917D01*
X85317382Y-176373917D01*
X85338823Y-176374970D01*
X85338823Y-176374970D01*
G37*
D12*
X85098632Y-176848917D03*
D11*
G36*
X83763823Y-176374970D02*
X83785058Y-176378120D01*
X83805882Y-176383336D01*
X83826094Y-176390568D01*
X83845500Y-176399747D01*
X83863913Y-176410783D01*
X83881156Y-176423571D01*
X83897062Y-176437987D01*
X83911478Y-176453893D01*
X83924266Y-176471136D01*
X83935302Y-176489549D01*
X83944481Y-176508955D01*
X83951713Y-176529167D01*
X83956929Y-176549991D01*
X83960079Y-176571226D01*
X83961132Y-176592667D01*
X83961132Y-177105167D01*
X83960079Y-177126608D01*
X83956929Y-177147843D01*
X83951713Y-177168667D01*
X83944481Y-177188879D01*
X83935302Y-177208285D01*
X83924266Y-177226698D01*
X83911478Y-177243941D01*
X83897062Y-177259847D01*
X83881156Y-177274263D01*
X83863913Y-177287051D01*
X83845500Y-177298087D01*
X83826094Y-177307266D01*
X83805882Y-177314498D01*
X83785058Y-177319714D01*
X83763823Y-177322864D01*
X83742382Y-177323917D01*
X83304882Y-177323917D01*
X83283441Y-177322864D01*
X83262206Y-177319714D01*
X83241382Y-177314498D01*
X83221170Y-177307266D01*
X83201764Y-177298087D01*
X83183351Y-177287051D01*
X83166108Y-177274263D01*
X83150202Y-177259847D01*
X83135786Y-177243941D01*
X83122998Y-177226698D01*
X83111962Y-177208285D01*
X83102783Y-177188879D01*
X83095551Y-177168667D01*
X83090335Y-177147843D01*
X83087185Y-177126608D01*
X83086132Y-177105167D01*
X83086132Y-176592667D01*
X83087185Y-176571226D01*
X83090335Y-176549991D01*
X83095551Y-176529167D01*
X83102783Y-176508955D01*
X83111962Y-176489549D01*
X83122998Y-176471136D01*
X83135786Y-176453893D01*
X83150202Y-176437987D01*
X83166108Y-176423571D01*
X83183351Y-176410783D01*
X83201764Y-176399747D01*
X83221170Y-176390568D01*
X83241382Y-176383336D01*
X83262206Y-176378120D01*
X83283441Y-176374970D01*
X83304882Y-176373917D01*
X83742382Y-176373917D01*
X83763823Y-176374970D01*
X83763823Y-176374970D01*
G37*
D12*
X83523632Y-176848917D03*
G04 #@! TD*
D11*
G04 #@! TO.C,C18*
G36*
X136774379Y-177477323D02*
X136795614Y-177480473D01*
X136816438Y-177485689D01*
X136836650Y-177492921D01*
X136856056Y-177502100D01*
X136874469Y-177513136D01*
X136891712Y-177525924D01*
X136907618Y-177540340D01*
X136922034Y-177556246D01*
X136934822Y-177573489D01*
X136945858Y-177591902D01*
X136955037Y-177611308D01*
X136962269Y-177631520D01*
X136967485Y-177652344D01*
X136970635Y-177673579D01*
X136971688Y-177695020D01*
X136971688Y-178207520D01*
X136970635Y-178228961D01*
X136967485Y-178250196D01*
X136962269Y-178271020D01*
X136955037Y-178291232D01*
X136945858Y-178310638D01*
X136934822Y-178329051D01*
X136922034Y-178346294D01*
X136907618Y-178362200D01*
X136891712Y-178376616D01*
X136874469Y-178389404D01*
X136856056Y-178400440D01*
X136836650Y-178409619D01*
X136816438Y-178416851D01*
X136795614Y-178422067D01*
X136774379Y-178425217D01*
X136752938Y-178426270D01*
X136315438Y-178426270D01*
X136293997Y-178425217D01*
X136272762Y-178422067D01*
X136251938Y-178416851D01*
X136231726Y-178409619D01*
X136212320Y-178400440D01*
X136193907Y-178389404D01*
X136176664Y-178376616D01*
X136160758Y-178362200D01*
X136146342Y-178346294D01*
X136133554Y-178329051D01*
X136122518Y-178310638D01*
X136113339Y-178291232D01*
X136106107Y-178271020D01*
X136100891Y-178250196D01*
X136097741Y-178228961D01*
X136096688Y-178207520D01*
X136096688Y-177695020D01*
X136097741Y-177673579D01*
X136100891Y-177652344D01*
X136106107Y-177631520D01*
X136113339Y-177611308D01*
X136122518Y-177591902D01*
X136133554Y-177573489D01*
X136146342Y-177556246D01*
X136160758Y-177540340D01*
X136176664Y-177525924D01*
X136193907Y-177513136D01*
X136212320Y-177502100D01*
X136231726Y-177492921D01*
X136251938Y-177485689D01*
X136272762Y-177480473D01*
X136293997Y-177477323D01*
X136315438Y-177476270D01*
X136752938Y-177476270D01*
X136774379Y-177477323D01*
X136774379Y-177477323D01*
G37*
D12*
X136534188Y-177951270D03*
D11*
G36*
X138349379Y-177477323D02*
X138370614Y-177480473D01*
X138391438Y-177485689D01*
X138411650Y-177492921D01*
X138431056Y-177502100D01*
X138449469Y-177513136D01*
X138466712Y-177525924D01*
X138482618Y-177540340D01*
X138497034Y-177556246D01*
X138509822Y-177573489D01*
X138520858Y-177591902D01*
X138530037Y-177611308D01*
X138537269Y-177631520D01*
X138542485Y-177652344D01*
X138545635Y-177673579D01*
X138546688Y-177695020D01*
X138546688Y-178207520D01*
X138545635Y-178228961D01*
X138542485Y-178250196D01*
X138537269Y-178271020D01*
X138530037Y-178291232D01*
X138520858Y-178310638D01*
X138509822Y-178329051D01*
X138497034Y-178346294D01*
X138482618Y-178362200D01*
X138466712Y-178376616D01*
X138449469Y-178389404D01*
X138431056Y-178400440D01*
X138411650Y-178409619D01*
X138391438Y-178416851D01*
X138370614Y-178422067D01*
X138349379Y-178425217D01*
X138327938Y-178426270D01*
X137890438Y-178426270D01*
X137868997Y-178425217D01*
X137847762Y-178422067D01*
X137826938Y-178416851D01*
X137806726Y-178409619D01*
X137787320Y-178400440D01*
X137768907Y-178389404D01*
X137751664Y-178376616D01*
X137735758Y-178362200D01*
X137721342Y-178346294D01*
X137708554Y-178329051D01*
X137697518Y-178310638D01*
X137688339Y-178291232D01*
X137681107Y-178271020D01*
X137675891Y-178250196D01*
X137672741Y-178228961D01*
X137671688Y-178207520D01*
X137671688Y-177695020D01*
X137672741Y-177673579D01*
X137675891Y-177652344D01*
X137681107Y-177631520D01*
X137688339Y-177611308D01*
X137697518Y-177591902D01*
X137708554Y-177573489D01*
X137721342Y-177556246D01*
X137735758Y-177540340D01*
X137751664Y-177525924D01*
X137768907Y-177513136D01*
X137787320Y-177502100D01*
X137806726Y-177492921D01*
X137826938Y-177485689D01*
X137847762Y-177480473D01*
X137868997Y-177477323D01*
X137890438Y-177476270D01*
X138327938Y-177476270D01*
X138349379Y-177477323D01*
X138349379Y-177477323D01*
G37*
D12*
X138109188Y-177951270D03*
G04 #@! TD*
D11*
G04 #@! TO.C,C19*
G36*
X207272688Y-177477323D02*
X207293923Y-177480473D01*
X207314747Y-177485689D01*
X207334959Y-177492921D01*
X207354365Y-177502100D01*
X207372778Y-177513136D01*
X207390021Y-177525924D01*
X207405927Y-177540340D01*
X207420343Y-177556246D01*
X207433131Y-177573489D01*
X207444167Y-177591902D01*
X207453346Y-177611308D01*
X207460578Y-177631520D01*
X207465794Y-177652344D01*
X207468944Y-177673579D01*
X207469997Y-177695020D01*
X207469997Y-178207520D01*
X207468944Y-178228961D01*
X207465794Y-178250196D01*
X207460578Y-178271020D01*
X207453346Y-178291232D01*
X207444167Y-178310638D01*
X207433131Y-178329051D01*
X207420343Y-178346294D01*
X207405927Y-178362200D01*
X207390021Y-178376616D01*
X207372778Y-178389404D01*
X207354365Y-178400440D01*
X207334959Y-178409619D01*
X207314747Y-178416851D01*
X207293923Y-178422067D01*
X207272688Y-178425217D01*
X207251247Y-178426270D01*
X206813747Y-178426270D01*
X206792306Y-178425217D01*
X206771071Y-178422067D01*
X206750247Y-178416851D01*
X206730035Y-178409619D01*
X206710629Y-178400440D01*
X206692216Y-178389404D01*
X206674973Y-178376616D01*
X206659067Y-178362200D01*
X206644651Y-178346294D01*
X206631863Y-178329051D01*
X206620827Y-178310638D01*
X206611648Y-178291232D01*
X206604416Y-178271020D01*
X206599200Y-178250196D01*
X206596050Y-178228961D01*
X206594997Y-178207520D01*
X206594997Y-177695020D01*
X206596050Y-177673579D01*
X206599200Y-177652344D01*
X206604416Y-177631520D01*
X206611648Y-177611308D01*
X206620827Y-177591902D01*
X206631863Y-177573489D01*
X206644651Y-177556246D01*
X206659067Y-177540340D01*
X206674973Y-177525924D01*
X206692216Y-177513136D01*
X206710629Y-177502100D01*
X206730035Y-177492921D01*
X206750247Y-177485689D01*
X206771071Y-177480473D01*
X206792306Y-177477323D01*
X206813747Y-177476270D01*
X207251247Y-177476270D01*
X207272688Y-177477323D01*
X207272688Y-177477323D01*
G37*
D12*
X207032497Y-177951270D03*
D11*
G36*
X205697688Y-177477323D02*
X205718923Y-177480473D01*
X205739747Y-177485689D01*
X205759959Y-177492921D01*
X205779365Y-177502100D01*
X205797778Y-177513136D01*
X205815021Y-177525924D01*
X205830927Y-177540340D01*
X205845343Y-177556246D01*
X205858131Y-177573489D01*
X205869167Y-177591902D01*
X205878346Y-177611308D01*
X205885578Y-177631520D01*
X205890794Y-177652344D01*
X205893944Y-177673579D01*
X205894997Y-177695020D01*
X205894997Y-178207520D01*
X205893944Y-178228961D01*
X205890794Y-178250196D01*
X205885578Y-178271020D01*
X205878346Y-178291232D01*
X205869167Y-178310638D01*
X205858131Y-178329051D01*
X205845343Y-178346294D01*
X205830927Y-178362200D01*
X205815021Y-178376616D01*
X205797778Y-178389404D01*
X205779365Y-178400440D01*
X205759959Y-178409619D01*
X205739747Y-178416851D01*
X205718923Y-178422067D01*
X205697688Y-178425217D01*
X205676247Y-178426270D01*
X205238747Y-178426270D01*
X205217306Y-178425217D01*
X205196071Y-178422067D01*
X205175247Y-178416851D01*
X205155035Y-178409619D01*
X205135629Y-178400440D01*
X205117216Y-178389404D01*
X205099973Y-178376616D01*
X205084067Y-178362200D01*
X205069651Y-178346294D01*
X205056863Y-178329051D01*
X205045827Y-178310638D01*
X205036648Y-178291232D01*
X205029416Y-178271020D01*
X205024200Y-178250196D01*
X205021050Y-178228961D01*
X205019997Y-178207520D01*
X205019997Y-177695020D01*
X205021050Y-177673579D01*
X205024200Y-177652344D01*
X205029416Y-177631520D01*
X205036648Y-177611308D01*
X205045827Y-177591902D01*
X205056863Y-177573489D01*
X205069651Y-177556246D01*
X205084067Y-177540340D01*
X205099973Y-177525924D01*
X205117216Y-177513136D01*
X205135629Y-177502100D01*
X205155035Y-177492921D01*
X205175247Y-177485689D01*
X205196071Y-177480473D01*
X205217306Y-177477323D01*
X205238747Y-177476270D01*
X205676247Y-177476270D01*
X205697688Y-177477323D01*
X205697688Y-177477323D01*
G37*
D12*
X205457497Y-177951270D03*
G04 #@! TD*
D11*
G04 #@! TO.C,C20*
G36*
X252626430Y-177162365D02*
X252647665Y-177165515D01*
X252668489Y-177170731D01*
X252688701Y-177177963D01*
X252708107Y-177187142D01*
X252726520Y-177198178D01*
X252743763Y-177210966D01*
X252759669Y-177225382D01*
X252774085Y-177241288D01*
X252786873Y-177258531D01*
X252797909Y-177276944D01*
X252807088Y-177296350D01*
X252814320Y-177316562D01*
X252819536Y-177337386D01*
X252822686Y-177358621D01*
X252823739Y-177380062D01*
X252823739Y-177892562D01*
X252822686Y-177914003D01*
X252819536Y-177935238D01*
X252814320Y-177956062D01*
X252807088Y-177976274D01*
X252797909Y-177995680D01*
X252786873Y-178014093D01*
X252774085Y-178031336D01*
X252759669Y-178047242D01*
X252743763Y-178061658D01*
X252726520Y-178074446D01*
X252708107Y-178085482D01*
X252688701Y-178094661D01*
X252668489Y-178101893D01*
X252647665Y-178107109D01*
X252626430Y-178110259D01*
X252604989Y-178111312D01*
X252167489Y-178111312D01*
X252146048Y-178110259D01*
X252124813Y-178107109D01*
X252103989Y-178101893D01*
X252083777Y-178094661D01*
X252064371Y-178085482D01*
X252045958Y-178074446D01*
X252028715Y-178061658D01*
X252012809Y-178047242D01*
X251998393Y-178031336D01*
X251985605Y-178014093D01*
X251974569Y-177995680D01*
X251965390Y-177976274D01*
X251958158Y-177956062D01*
X251952942Y-177935238D01*
X251949792Y-177914003D01*
X251948739Y-177892562D01*
X251948739Y-177380062D01*
X251949792Y-177358621D01*
X251952942Y-177337386D01*
X251958158Y-177316562D01*
X251965390Y-177296350D01*
X251974569Y-177276944D01*
X251985605Y-177258531D01*
X251998393Y-177241288D01*
X252012809Y-177225382D01*
X252028715Y-177210966D01*
X252045958Y-177198178D01*
X252064371Y-177187142D01*
X252083777Y-177177963D01*
X252103989Y-177170731D01*
X252124813Y-177165515D01*
X252146048Y-177162365D01*
X252167489Y-177161312D01*
X252604989Y-177161312D01*
X252626430Y-177162365D01*
X252626430Y-177162365D01*
G37*
D12*
X252386239Y-177636312D03*
D11*
G36*
X254201430Y-177162365D02*
X254222665Y-177165515D01*
X254243489Y-177170731D01*
X254263701Y-177177963D01*
X254283107Y-177187142D01*
X254301520Y-177198178D01*
X254318763Y-177210966D01*
X254334669Y-177225382D01*
X254349085Y-177241288D01*
X254361873Y-177258531D01*
X254372909Y-177276944D01*
X254382088Y-177296350D01*
X254389320Y-177316562D01*
X254394536Y-177337386D01*
X254397686Y-177358621D01*
X254398739Y-177380062D01*
X254398739Y-177892562D01*
X254397686Y-177914003D01*
X254394536Y-177935238D01*
X254389320Y-177956062D01*
X254382088Y-177976274D01*
X254372909Y-177995680D01*
X254361873Y-178014093D01*
X254349085Y-178031336D01*
X254334669Y-178047242D01*
X254318763Y-178061658D01*
X254301520Y-178074446D01*
X254283107Y-178085482D01*
X254263701Y-178094661D01*
X254243489Y-178101893D01*
X254222665Y-178107109D01*
X254201430Y-178110259D01*
X254179989Y-178111312D01*
X253742489Y-178111312D01*
X253721048Y-178110259D01*
X253699813Y-178107109D01*
X253678989Y-178101893D01*
X253658777Y-178094661D01*
X253639371Y-178085482D01*
X253620958Y-178074446D01*
X253603715Y-178061658D01*
X253587809Y-178047242D01*
X253573393Y-178031336D01*
X253560605Y-178014093D01*
X253549569Y-177995680D01*
X253540390Y-177976274D01*
X253533158Y-177956062D01*
X253527942Y-177935238D01*
X253524792Y-177914003D01*
X253523739Y-177892562D01*
X253523739Y-177380062D01*
X253524792Y-177358621D01*
X253527942Y-177337386D01*
X253533158Y-177316562D01*
X253540390Y-177296350D01*
X253549569Y-177276944D01*
X253560605Y-177258531D01*
X253573393Y-177241288D01*
X253587809Y-177225382D01*
X253603715Y-177210966D01*
X253620958Y-177198178D01*
X253639371Y-177187142D01*
X253658777Y-177177963D01*
X253678989Y-177170731D01*
X253699813Y-177165515D01*
X253721048Y-177162365D01*
X253742489Y-177161312D01*
X254179989Y-177161312D01*
X254201430Y-177162365D01*
X254201430Y-177162365D01*
G37*
D12*
X253961239Y-177636312D03*
G04 #@! TD*
D11*
G04 #@! TO.C,C21*
G36*
X302757455Y-178054746D02*
X302778690Y-178057896D01*
X302799514Y-178063112D01*
X302819726Y-178070344D01*
X302839132Y-178079523D01*
X302857545Y-178090559D01*
X302874788Y-178103347D01*
X302890694Y-178117763D01*
X302905110Y-178133669D01*
X302917898Y-178150912D01*
X302928934Y-178169325D01*
X302938113Y-178188731D01*
X302945345Y-178208943D01*
X302950561Y-178229767D01*
X302953711Y-178251002D01*
X302954764Y-178272443D01*
X302954764Y-178784943D01*
X302953711Y-178806384D01*
X302950561Y-178827619D01*
X302945345Y-178848443D01*
X302938113Y-178868655D01*
X302928934Y-178888061D01*
X302917898Y-178906474D01*
X302905110Y-178923717D01*
X302890694Y-178939623D01*
X302874788Y-178954039D01*
X302857545Y-178966827D01*
X302839132Y-178977863D01*
X302819726Y-178987042D01*
X302799514Y-178994274D01*
X302778690Y-178999490D01*
X302757455Y-179002640D01*
X302736014Y-179003693D01*
X302298514Y-179003693D01*
X302277073Y-179002640D01*
X302255838Y-178999490D01*
X302235014Y-178994274D01*
X302214802Y-178987042D01*
X302195396Y-178977863D01*
X302176983Y-178966827D01*
X302159740Y-178954039D01*
X302143834Y-178939623D01*
X302129418Y-178923717D01*
X302116630Y-178906474D01*
X302105594Y-178888061D01*
X302096415Y-178868655D01*
X302089183Y-178848443D01*
X302083967Y-178827619D01*
X302080817Y-178806384D01*
X302079764Y-178784943D01*
X302079764Y-178272443D01*
X302080817Y-178251002D01*
X302083967Y-178229767D01*
X302089183Y-178208943D01*
X302096415Y-178188731D01*
X302105594Y-178169325D01*
X302116630Y-178150912D01*
X302129418Y-178133669D01*
X302143834Y-178117763D01*
X302159740Y-178103347D01*
X302176983Y-178090559D01*
X302195396Y-178079523D01*
X302214802Y-178070344D01*
X302235014Y-178063112D01*
X302255838Y-178057896D01*
X302277073Y-178054746D01*
X302298514Y-178053693D01*
X302736014Y-178053693D01*
X302757455Y-178054746D01*
X302757455Y-178054746D01*
G37*
D12*
X302517264Y-178528693D03*
D11*
G36*
X301182455Y-178054746D02*
X301203690Y-178057896D01*
X301224514Y-178063112D01*
X301244726Y-178070344D01*
X301264132Y-178079523D01*
X301282545Y-178090559D01*
X301299788Y-178103347D01*
X301315694Y-178117763D01*
X301330110Y-178133669D01*
X301342898Y-178150912D01*
X301353934Y-178169325D01*
X301363113Y-178188731D01*
X301370345Y-178208943D01*
X301375561Y-178229767D01*
X301378711Y-178251002D01*
X301379764Y-178272443D01*
X301379764Y-178784943D01*
X301378711Y-178806384D01*
X301375561Y-178827619D01*
X301370345Y-178848443D01*
X301363113Y-178868655D01*
X301353934Y-178888061D01*
X301342898Y-178906474D01*
X301330110Y-178923717D01*
X301315694Y-178939623D01*
X301299788Y-178954039D01*
X301282545Y-178966827D01*
X301264132Y-178977863D01*
X301244726Y-178987042D01*
X301224514Y-178994274D01*
X301203690Y-178999490D01*
X301182455Y-179002640D01*
X301161014Y-179003693D01*
X300723514Y-179003693D01*
X300702073Y-179002640D01*
X300680838Y-178999490D01*
X300660014Y-178994274D01*
X300639802Y-178987042D01*
X300620396Y-178977863D01*
X300601983Y-178966827D01*
X300584740Y-178954039D01*
X300568834Y-178939623D01*
X300554418Y-178923717D01*
X300541630Y-178906474D01*
X300530594Y-178888061D01*
X300521415Y-178868655D01*
X300514183Y-178848443D01*
X300508967Y-178827619D01*
X300505817Y-178806384D01*
X300504764Y-178784943D01*
X300504764Y-178272443D01*
X300505817Y-178251002D01*
X300508967Y-178229767D01*
X300514183Y-178208943D01*
X300521415Y-178188731D01*
X300530594Y-178169325D01*
X300541630Y-178150912D01*
X300554418Y-178133669D01*
X300568834Y-178117763D01*
X300584740Y-178103347D01*
X300601983Y-178090559D01*
X300620396Y-178079523D01*
X300639802Y-178070344D01*
X300660014Y-178063112D01*
X300680838Y-178057896D01*
X300702073Y-178054746D01*
X300723514Y-178053693D01*
X301161014Y-178053693D01*
X301182455Y-178054746D01*
X301182455Y-178054746D01*
G37*
D12*
X300942264Y-178528693D03*
G04 #@! TD*
D11*
G04 #@! TO.C,C22*
G36*
X347586267Y-178579676D02*
X347607502Y-178582826D01*
X347628326Y-178588042D01*
X347648538Y-178595274D01*
X347667944Y-178604453D01*
X347686357Y-178615489D01*
X347703600Y-178628277D01*
X347719506Y-178642693D01*
X347733922Y-178658599D01*
X347746710Y-178675842D01*
X347757746Y-178694255D01*
X347766925Y-178713661D01*
X347774157Y-178733873D01*
X347779373Y-178754697D01*
X347782523Y-178775932D01*
X347783576Y-178797373D01*
X347783576Y-179309873D01*
X347782523Y-179331314D01*
X347779373Y-179352549D01*
X347774157Y-179373373D01*
X347766925Y-179393585D01*
X347757746Y-179412991D01*
X347746710Y-179431404D01*
X347733922Y-179448647D01*
X347719506Y-179464553D01*
X347703600Y-179478969D01*
X347686357Y-179491757D01*
X347667944Y-179502793D01*
X347648538Y-179511972D01*
X347628326Y-179519204D01*
X347607502Y-179524420D01*
X347586267Y-179527570D01*
X347564826Y-179528623D01*
X347127326Y-179528623D01*
X347105885Y-179527570D01*
X347084650Y-179524420D01*
X347063826Y-179519204D01*
X347043614Y-179511972D01*
X347024208Y-179502793D01*
X347005795Y-179491757D01*
X346988552Y-179478969D01*
X346972646Y-179464553D01*
X346958230Y-179448647D01*
X346945442Y-179431404D01*
X346934406Y-179412991D01*
X346925227Y-179393585D01*
X346917995Y-179373373D01*
X346912779Y-179352549D01*
X346909629Y-179331314D01*
X346908576Y-179309873D01*
X346908576Y-178797373D01*
X346909629Y-178775932D01*
X346912779Y-178754697D01*
X346917995Y-178733873D01*
X346925227Y-178713661D01*
X346934406Y-178694255D01*
X346945442Y-178675842D01*
X346958230Y-178658599D01*
X346972646Y-178642693D01*
X346988552Y-178628277D01*
X347005795Y-178615489D01*
X347024208Y-178604453D01*
X347043614Y-178595274D01*
X347063826Y-178588042D01*
X347084650Y-178582826D01*
X347105885Y-178579676D01*
X347127326Y-178578623D01*
X347564826Y-178578623D01*
X347586267Y-178579676D01*
X347586267Y-178579676D01*
G37*
D12*
X347346076Y-179053623D03*
D11*
G36*
X349161267Y-178579676D02*
X349182502Y-178582826D01*
X349203326Y-178588042D01*
X349223538Y-178595274D01*
X349242944Y-178604453D01*
X349261357Y-178615489D01*
X349278600Y-178628277D01*
X349294506Y-178642693D01*
X349308922Y-178658599D01*
X349321710Y-178675842D01*
X349332746Y-178694255D01*
X349341925Y-178713661D01*
X349349157Y-178733873D01*
X349354373Y-178754697D01*
X349357523Y-178775932D01*
X349358576Y-178797373D01*
X349358576Y-179309873D01*
X349357523Y-179331314D01*
X349354373Y-179352549D01*
X349349157Y-179373373D01*
X349341925Y-179393585D01*
X349332746Y-179412991D01*
X349321710Y-179431404D01*
X349308922Y-179448647D01*
X349294506Y-179464553D01*
X349278600Y-179478969D01*
X349261357Y-179491757D01*
X349242944Y-179502793D01*
X349223538Y-179511972D01*
X349203326Y-179519204D01*
X349182502Y-179524420D01*
X349161267Y-179527570D01*
X349139826Y-179528623D01*
X348702326Y-179528623D01*
X348680885Y-179527570D01*
X348659650Y-179524420D01*
X348638826Y-179519204D01*
X348618614Y-179511972D01*
X348599208Y-179502793D01*
X348580795Y-179491757D01*
X348563552Y-179478969D01*
X348547646Y-179464553D01*
X348533230Y-179448647D01*
X348520442Y-179431404D01*
X348509406Y-179412991D01*
X348500227Y-179393585D01*
X348492995Y-179373373D01*
X348487779Y-179352549D01*
X348484629Y-179331314D01*
X348483576Y-179309873D01*
X348483576Y-178797373D01*
X348484629Y-178775932D01*
X348487779Y-178754697D01*
X348492995Y-178733873D01*
X348500227Y-178713661D01*
X348509406Y-178694255D01*
X348520442Y-178675842D01*
X348533230Y-178658599D01*
X348547646Y-178642693D01*
X348563552Y-178628277D01*
X348580795Y-178615489D01*
X348599208Y-178604453D01*
X348618614Y-178595274D01*
X348638826Y-178588042D01*
X348659650Y-178582826D01*
X348680885Y-178579676D01*
X348702326Y-178578623D01*
X349139826Y-178578623D01*
X349161267Y-178579676D01*
X349161267Y-178579676D01*
G37*
D12*
X348921076Y-179053623D03*
G04 #@! TD*
D11*
G04 #@! TO.C,R3*
G36*
X87468564Y-123446928D02*
X87489799Y-123450078D01*
X87510623Y-123455294D01*
X87530835Y-123462526D01*
X87550241Y-123471705D01*
X87568654Y-123482741D01*
X87585897Y-123495529D01*
X87601803Y-123509945D01*
X87616219Y-123525851D01*
X87629007Y-123543094D01*
X87640043Y-123561507D01*
X87649222Y-123580913D01*
X87656454Y-123601125D01*
X87661670Y-123621949D01*
X87664820Y-123643184D01*
X87665873Y-123664625D01*
X87665873Y-124102125D01*
X87664820Y-124123566D01*
X87661670Y-124144801D01*
X87656454Y-124165625D01*
X87649222Y-124185837D01*
X87640043Y-124205243D01*
X87629007Y-124223656D01*
X87616219Y-124240899D01*
X87601803Y-124256805D01*
X87585897Y-124271221D01*
X87568654Y-124284009D01*
X87550241Y-124295045D01*
X87530835Y-124304224D01*
X87510623Y-124311456D01*
X87489799Y-124316672D01*
X87468564Y-124319822D01*
X87447123Y-124320875D01*
X86934623Y-124320875D01*
X86913182Y-124319822D01*
X86891947Y-124316672D01*
X86871123Y-124311456D01*
X86850911Y-124304224D01*
X86831505Y-124295045D01*
X86813092Y-124284009D01*
X86795849Y-124271221D01*
X86779943Y-124256805D01*
X86765527Y-124240899D01*
X86752739Y-124223656D01*
X86741703Y-124205243D01*
X86732524Y-124185837D01*
X86725292Y-124165625D01*
X86720076Y-124144801D01*
X86716926Y-124123566D01*
X86715873Y-124102125D01*
X86715873Y-123664625D01*
X86716926Y-123643184D01*
X86720076Y-123621949D01*
X86725292Y-123601125D01*
X86732524Y-123580913D01*
X86741703Y-123561507D01*
X86752739Y-123543094D01*
X86765527Y-123525851D01*
X86779943Y-123509945D01*
X86795849Y-123495529D01*
X86813092Y-123482741D01*
X86831505Y-123471705D01*
X86850911Y-123462526D01*
X86871123Y-123455294D01*
X86891947Y-123450078D01*
X86913182Y-123446928D01*
X86934623Y-123445875D01*
X87447123Y-123445875D01*
X87468564Y-123446928D01*
X87468564Y-123446928D01*
G37*
D12*
X87190873Y-123883375D03*
D11*
G36*
X87468564Y-125021928D02*
X87489799Y-125025078D01*
X87510623Y-125030294D01*
X87530835Y-125037526D01*
X87550241Y-125046705D01*
X87568654Y-125057741D01*
X87585897Y-125070529D01*
X87601803Y-125084945D01*
X87616219Y-125100851D01*
X87629007Y-125118094D01*
X87640043Y-125136507D01*
X87649222Y-125155913D01*
X87656454Y-125176125D01*
X87661670Y-125196949D01*
X87664820Y-125218184D01*
X87665873Y-125239625D01*
X87665873Y-125677125D01*
X87664820Y-125698566D01*
X87661670Y-125719801D01*
X87656454Y-125740625D01*
X87649222Y-125760837D01*
X87640043Y-125780243D01*
X87629007Y-125798656D01*
X87616219Y-125815899D01*
X87601803Y-125831805D01*
X87585897Y-125846221D01*
X87568654Y-125859009D01*
X87550241Y-125870045D01*
X87530835Y-125879224D01*
X87510623Y-125886456D01*
X87489799Y-125891672D01*
X87468564Y-125894822D01*
X87447123Y-125895875D01*
X86934623Y-125895875D01*
X86913182Y-125894822D01*
X86891947Y-125891672D01*
X86871123Y-125886456D01*
X86850911Y-125879224D01*
X86831505Y-125870045D01*
X86813092Y-125859009D01*
X86795849Y-125846221D01*
X86779943Y-125831805D01*
X86765527Y-125815899D01*
X86752739Y-125798656D01*
X86741703Y-125780243D01*
X86732524Y-125760837D01*
X86725292Y-125740625D01*
X86720076Y-125719801D01*
X86716926Y-125698566D01*
X86715873Y-125677125D01*
X86715873Y-125239625D01*
X86716926Y-125218184D01*
X86720076Y-125196949D01*
X86725292Y-125176125D01*
X86732524Y-125155913D01*
X86741703Y-125136507D01*
X86752739Y-125118094D01*
X86765527Y-125100851D01*
X86779943Y-125084945D01*
X86795849Y-125070529D01*
X86813092Y-125057741D01*
X86831505Y-125046705D01*
X86850911Y-125037526D01*
X86871123Y-125030294D01*
X86891947Y-125025078D01*
X86913182Y-125021928D01*
X86934623Y-125020875D01*
X87447123Y-125020875D01*
X87468564Y-125021928D01*
X87468564Y-125021928D01*
G37*
D12*
X87190873Y-125458375D03*
G04 #@! TD*
D11*
G04 #@! TO.C,R4*
G36*
X105117827Y-133691604D02*
X105139062Y-133694754D01*
X105159886Y-133699970D01*
X105180098Y-133707202D01*
X105199504Y-133716381D01*
X105217917Y-133727417D01*
X105235160Y-133740205D01*
X105251066Y-133754621D01*
X105613459Y-134117014D01*
X105627875Y-134132920D01*
X105640663Y-134150163D01*
X105651699Y-134168576D01*
X105660878Y-134187982D01*
X105668110Y-134208194D01*
X105673326Y-134229018D01*
X105676476Y-134250253D01*
X105677529Y-134271694D01*
X105676476Y-134293135D01*
X105673326Y-134314370D01*
X105668110Y-134335194D01*
X105660878Y-134355406D01*
X105651699Y-134374812D01*
X105640663Y-134393225D01*
X105627875Y-134410468D01*
X105613459Y-134426374D01*
X105304100Y-134735733D01*
X105288194Y-134750149D01*
X105270951Y-134762937D01*
X105252538Y-134773973D01*
X105233132Y-134783152D01*
X105212920Y-134790384D01*
X105192096Y-134795600D01*
X105170861Y-134798750D01*
X105149420Y-134799803D01*
X105127979Y-134798750D01*
X105106744Y-134795600D01*
X105085920Y-134790384D01*
X105065708Y-134783152D01*
X105046302Y-134773973D01*
X105027889Y-134762937D01*
X105010646Y-134750149D01*
X104994740Y-134735733D01*
X104632347Y-134373340D01*
X104617931Y-134357434D01*
X104605143Y-134340191D01*
X104594107Y-134321778D01*
X104584928Y-134302372D01*
X104577696Y-134282160D01*
X104572480Y-134261336D01*
X104569330Y-134240101D01*
X104568277Y-134218660D01*
X104569330Y-134197219D01*
X104572480Y-134175984D01*
X104577696Y-134155160D01*
X104584928Y-134134948D01*
X104594107Y-134115542D01*
X104605143Y-134097129D01*
X104617931Y-134079886D01*
X104632347Y-134063980D01*
X104941706Y-133754621D01*
X104957612Y-133740205D01*
X104974855Y-133727417D01*
X104993268Y-133716381D01*
X105012674Y-133707202D01*
X105032886Y-133699970D01*
X105053710Y-133694754D01*
X105074945Y-133691604D01*
X105096386Y-133690551D01*
X105117827Y-133691604D01*
X105117827Y-133691604D01*
G37*
D12*
X105122903Y-134245177D03*
D11*
G36*
X104004133Y-134805298D02*
X104025368Y-134808448D01*
X104046192Y-134813664D01*
X104066404Y-134820896D01*
X104085810Y-134830075D01*
X104104223Y-134841111D01*
X104121466Y-134853899D01*
X104137372Y-134868315D01*
X104499765Y-135230708D01*
X104514181Y-135246614D01*
X104526969Y-135263857D01*
X104538005Y-135282270D01*
X104547184Y-135301676D01*
X104554416Y-135321888D01*
X104559632Y-135342712D01*
X104562782Y-135363947D01*
X104563835Y-135385388D01*
X104562782Y-135406829D01*
X104559632Y-135428064D01*
X104554416Y-135448888D01*
X104547184Y-135469100D01*
X104538005Y-135488506D01*
X104526969Y-135506919D01*
X104514181Y-135524162D01*
X104499765Y-135540068D01*
X104190406Y-135849427D01*
X104174500Y-135863843D01*
X104157257Y-135876631D01*
X104138844Y-135887667D01*
X104119438Y-135896846D01*
X104099226Y-135904078D01*
X104078402Y-135909294D01*
X104057167Y-135912444D01*
X104035726Y-135913497D01*
X104014285Y-135912444D01*
X103993050Y-135909294D01*
X103972226Y-135904078D01*
X103952014Y-135896846D01*
X103932608Y-135887667D01*
X103914195Y-135876631D01*
X103896952Y-135863843D01*
X103881046Y-135849427D01*
X103518653Y-135487034D01*
X103504237Y-135471128D01*
X103491449Y-135453885D01*
X103480413Y-135435472D01*
X103471234Y-135416066D01*
X103464002Y-135395854D01*
X103458786Y-135375030D01*
X103455636Y-135353795D01*
X103454583Y-135332354D01*
X103455636Y-135310913D01*
X103458786Y-135289678D01*
X103464002Y-135268854D01*
X103471234Y-135248642D01*
X103480413Y-135229236D01*
X103491449Y-135210823D01*
X103504237Y-135193580D01*
X103518653Y-135177674D01*
X103828012Y-134868315D01*
X103843918Y-134853899D01*
X103861161Y-134841111D01*
X103879574Y-134830075D01*
X103898980Y-134820896D01*
X103919192Y-134813664D01*
X103940016Y-134808448D01*
X103961251Y-134805298D01*
X103982692Y-134804245D01*
X104004133Y-134805298D01*
X104004133Y-134805298D01*
G37*
D12*
X104009209Y-135358871D03*
G04 #@! TD*
D10*
G04 #@! TO.C,LED1*
X358562512Y-133278509D03*
X358562512Y-136478509D03*
X353662512Y-133278509D03*
X353662512Y-136478509D03*
G04 #@! TD*
G04 #@! TO.C,LED2*
X340224304Y-108370762D03*
X340224304Y-105170762D03*
X345124304Y-108370762D03*
X345124304Y-105170762D03*
G04 #@! TD*
G04 #@! TO.C,LED3*
X290093489Y-109788073D03*
X290093489Y-106588073D03*
X294993489Y-109788073D03*
X294993489Y-106588073D03*
G04 #@! TD*
G04 #@! TO.C,LED4*
X237986091Y-106430594D03*
X237986091Y-109630594D03*
X233086091Y-106430594D03*
X233086091Y-109630594D03*
G04 #@! TD*
G04 #@! TO.C,LED6*
X123446365Y-105958157D03*
X123446365Y-109158157D03*
X118546365Y-105958157D03*
X118546365Y-109158157D03*
G04 #@! TD*
G04 #@! TO.C,LED7*
X73087427Y-113200118D03*
X73087427Y-110000118D03*
X77987427Y-113200118D03*
X77987427Y-110000118D03*
G04 #@! TD*
G04 #@! TO.C,LED8*
X73525522Y-136299111D03*
X73525522Y-139499111D03*
X68625522Y-136299111D03*
X68625522Y-139499111D03*
G04 #@! TD*
G04 #@! TO.C,LED9*
X83848492Y-183698217D03*
X83848492Y-180498217D03*
X88748492Y-183698217D03*
X88748492Y-180498217D03*
G04 #@! TD*
G04 #@! TO.C,LED10*
X141346478Y-180393231D03*
X141346478Y-183593231D03*
X136446478Y-180393231D03*
X136446478Y-183593231D03*
G04 #@! TD*
G04 #@! TO.C,LED11*
X203952476Y-183908189D03*
X203952476Y-180708189D03*
X208852476Y-183908189D03*
X208852476Y-180708189D03*
G04 #@! TD*
G04 #@! TO.C,LED12*
X256726092Y-180708189D03*
X256726092Y-183908189D03*
X251826092Y-180708189D03*
X251826092Y-183908189D03*
G04 #@! TD*
G04 #@! TO.C,LED13*
X299332257Y-184433119D03*
X299332257Y-181233119D03*
X304232257Y-184433119D03*
X304232257Y-181233119D03*
G04 #@! TD*
G04 #@! TO.C,LED14*
X351843408Y-182335472D03*
X351843408Y-185535472D03*
X346943408Y-182335472D03*
X346943408Y-185535472D03*
G04 #@! TD*
M02*
