G04 #@! TF.GenerationSoftware,KiCad,Pcbnew,(5.0.0)*
G04 #@! TF.CreationDate,2019-08-12T19:05:11-04:00*
G04 #@! TF.ProjectId,mullet-pcb,6D756C6C65742D7063622E6B69636164,rev?*
G04 #@! TF.SameCoordinates,Original*
G04 #@! TF.FileFunction,Legend,Bot*
G04 #@! TF.FilePolarity,Positive*
%FSLAX46Y46*%
G04 Gerber Fmt 4.6, Leading zero omitted, Abs format (unit mm)*
G04 Created by KiCad (PCBNEW (5.0.0)) date 08/12/19 19:05:11*
%MOMM*%
%LPD*%
G01*
G04 APERTURE LIST*
%ADD10C,0.100000*%
%ADD11C,0.200000*%
%ADD12C,0.203200*%
%ADD13C,0.120000*%
%ADD14C,0.150000*%
G04 APERTURE END LIST*
D10*
X81052497Y-111384599D02*
X81052497Y-110851266D01*
X81052497Y-110927456D02*
X81014402Y-110889361D01*
X80938211Y-110851266D01*
X80823925Y-110851266D01*
X80747735Y-110889361D01*
X80709640Y-110965552D01*
X80709640Y-111384599D01*
X80709640Y-110965552D02*
X80671544Y-110889361D01*
X80595354Y-110851266D01*
X80481068Y-110851266D01*
X80404878Y-110889361D01*
X80366783Y-110965552D01*
X80366783Y-111384599D01*
X80023925Y-111156028D02*
X79642973Y-111156028D01*
X80100116Y-111384599D02*
X79833449Y-110584599D01*
X79566783Y-111384599D01*
X80885718Y-109692218D02*
X81266670Y-109692218D01*
X81304766Y-110073171D01*
X81266670Y-110035075D01*
X81190480Y-109996980D01*
X81000004Y-109996980D01*
X80923813Y-110035075D01*
X80885718Y-110073171D01*
X80847623Y-110149361D01*
X80847623Y-110339837D01*
X80885718Y-110416028D01*
X80923813Y-110454123D01*
X81000004Y-110492218D01*
X81190480Y-110492218D01*
X81266670Y-110454123D01*
X81304766Y-110416028D01*
X80352385Y-109692218D02*
X80276194Y-109692218D01*
X80200004Y-109730314D01*
X80161909Y-109768409D01*
X80123813Y-109844599D01*
X80085718Y-109996980D01*
X80085718Y-110187456D01*
X80123813Y-110339837D01*
X80161909Y-110416028D01*
X80200004Y-110454123D01*
X80276194Y-110492218D01*
X80352385Y-110492218D01*
X80428575Y-110454123D01*
X80466670Y-110416028D01*
X80504766Y-110339837D01*
X80542861Y-110187456D01*
X80542861Y-109996980D01*
X80504766Y-109844599D01*
X80466670Y-109768409D01*
X80428575Y-109730314D01*
X80352385Y-109692218D01*
X79590480Y-109692218D02*
X79514290Y-109692218D01*
X79438099Y-109730314D01*
X79400004Y-109768409D01*
X79361909Y-109844599D01*
X79323813Y-109996980D01*
X79323813Y-110187456D01*
X79361909Y-110339837D01*
X79400004Y-110416028D01*
X79438099Y-110454123D01*
X79514290Y-110492218D01*
X79590480Y-110492218D01*
X79666670Y-110454123D01*
X79704766Y-110416028D01*
X79742861Y-110339837D01*
X79780956Y-110187456D01*
X79780956Y-109996980D01*
X79742861Y-109844599D01*
X79704766Y-109768409D01*
X79666670Y-109730314D01*
X79590480Y-109692218D01*
X83471376Y-100466952D02*
X83204710Y-100466952D01*
X83090424Y-100885999D02*
X83471376Y-100885999D01*
X83471376Y-100085999D01*
X83090424Y-100085999D01*
X82785662Y-100847904D02*
X82671376Y-100885999D01*
X82480900Y-100885999D01*
X82404710Y-100847904D01*
X82366615Y-100809809D01*
X82328519Y-100733618D01*
X82328519Y-100657428D01*
X82366615Y-100581237D01*
X82404710Y-100543142D01*
X82480900Y-100505047D01*
X82633281Y-100466952D01*
X82709472Y-100428856D01*
X82747567Y-100390761D01*
X82785662Y-100314571D01*
X82785662Y-100238380D01*
X82747567Y-100162190D01*
X82709472Y-100124095D01*
X82633281Y-100085999D01*
X82442805Y-100085999D01*
X82328519Y-100124095D01*
X81985662Y-100885999D02*
X81985662Y-100085999D01*
X81795186Y-100085999D01*
X81680900Y-100124095D01*
X81604710Y-100200285D01*
X81566615Y-100276475D01*
X81528519Y-100428856D01*
X81528519Y-100543142D01*
X81566615Y-100695523D01*
X81604710Y-100771714D01*
X81680900Y-100847904D01*
X81795186Y-100885999D01*
X81985662Y-100885999D01*
D11*
X126645216Y-121226281D02*
X126721407Y-121188185D01*
X126835693Y-121188185D01*
X126949978Y-121226281D01*
X127026169Y-121302471D01*
X127064264Y-121378661D01*
X127102359Y-121531042D01*
X127102359Y-121645328D01*
X127064264Y-121797709D01*
X127026169Y-121873900D01*
X126949978Y-121950090D01*
X126835693Y-121988185D01*
X126759502Y-121988185D01*
X126645216Y-121950090D01*
X126607121Y-121911995D01*
X126607121Y-121645328D01*
X126759502Y-121645328D01*
X126264264Y-121988185D02*
X126264264Y-121188185D01*
X125807121Y-121988185D01*
X125807121Y-121188185D01*
X125426169Y-121988185D02*
X125426169Y-121188185D01*
X125235693Y-121188185D01*
X125121407Y-121226281D01*
X125045216Y-121302471D01*
X125007121Y-121378661D01*
X124969026Y-121531042D01*
X124969026Y-121645328D01*
X125007121Y-121797709D01*
X125045216Y-121873900D01*
X125121407Y-121950090D01*
X125235693Y-121988185D01*
X125426169Y-121988185D01*
X127082863Y-119710850D02*
X127082863Y-118910850D01*
X126816197Y-119482279D01*
X126549530Y-118910850D01*
X126549530Y-119710850D01*
X126016197Y-118910850D02*
X125863816Y-118910850D01*
X125787625Y-118948946D01*
X125711435Y-119025136D01*
X125673340Y-119177517D01*
X125673340Y-119444184D01*
X125711435Y-119596565D01*
X125787625Y-119672755D01*
X125863816Y-119710850D01*
X126016197Y-119710850D01*
X126092387Y-119672755D01*
X126168578Y-119596565D01*
X126206673Y-119444184D01*
X126206673Y-119177517D01*
X126168578Y-119025136D01*
X126092387Y-118948946D01*
X126016197Y-118910850D01*
X125368578Y-119672755D02*
X125254292Y-119710850D01*
X125063816Y-119710850D01*
X124987625Y-119672755D01*
X124949530Y-119634660D01*
X124911435Y-119558469D01*
X124911435Y-119482279D01*
X124949530Y-119406088D01*
X124987625Y-119367993D01*
X125063816Y-119329898D01*
X125216197Y-119291803D01*
X125292387Y-119253707D01*
X125330482Y-119215612D01*
X125368578Y-119139422D01*
X125368578Y-119063231D01*
X125330482Y-118987041D01*
X125292387Y-118948946D01*
X125216197Y-118910850D01*
X125025721Y-118910850D01*
X124911435Y-118948946D01*
X124568578Y-119710850D02*
X124568578Y-118910850D01*
X127102359Y-116253843D02*
X126835693Y-117053843D01*
X126569026Y-116253843D01*
X125845216Y-116977653D02*
X125883312Y-117015748D01*
X125997597Y-117053843D01*
X126073788Y-117053843D01*
X126188073Y-117015748D01*
X126264264Y-116939558D01*
X126302359Y-116863367D01*
X126340454Y-116710986D01*
X126340454Y-116596700D01*
X126302359Y-116444319D01*
X126264264Y-116368129D01*
X126188073Y-116291939D01*
X126073788Y-116253843D01*
X125997597Y-116253843D01*
X125883312Y-116291939D01*
X125845216Y-116330034D01*
X125045216Y-116977653D02*
X125083312Y-117015748D01*
X125197597Y-117053843D01*
X125273788Y-117053843D01*
X125388073Y-117015748D01*
X125464264Y-116939558D01*
X125502359Y-116863367D01*
X125540454Y-116710986D01*
X125540454Y-116596700D01*
X125502359Y-116444319D01*
X125464264Y-116368129D01*
X125388073Y-116291939D01*
X125273788Y-116253843D01*
X125197597Y-116253843D01*
X125083312Y-116291939D01*
X125045216Y-116330034D01*
X134248261Y-121935692D02*
X134514927Y-121554740D01*
X134705404Y-121935692D02*
X134705404Y-121135692D01*
X134400642Y-121135692D01*
X134324451Y-121173788D01*
X134286356Y-121211883D01*
X134248261Y-121288073D01*
X134248261Y-121402359D01*
X134286356Y-121478549D01*
X134324451Y-121516645D01*
X134400642Y-121554740D01*
X134705404Y-121554740D01*
X133943499Y-121897597D02*
X133829213Y-121935692D01*
X133638737Y-121935692D01*
X133562546Y-121897597D01*
X133524451Y-121859502D01*
X133486356Y-121783311D01*
X133486356Y-121707121D01*
X133524451Y-121630930D01*
X133562546Y-121592835D01*
X133638737Y-121554740D01*
X133791118Y-121516645D01*
X133867308Y-121478549D01*
X133905404Y-121440454D01*
X133943499Y-121364264D01*
X133943499Y-121288073D01*
X133905404Y-121211883D01*
X133867308Y-121173788D01*
X133791118Y-121135692D01*
X133600642Y-121135692D01*
X133486356Y-121173788D01*
X133257785Y-121135692D02*
X132800642Y-121135692D01*
X133029213Y-121935692D02*
X133029213Y-121135692D01*
X135802244Y-119672755D02*
X135687958Y-119710850D01*
X135497482Y-119710850D01*
X135421292Y-119672755D01*
X135383196Y-119634660D01*
X135345101Y-119558469D01*
X135345101Y-119482279D01*
X135383196Y-119406088D01*
X135421292Y-119367993D01*
X135497482Y-119329898D01*
X135649863Y-119291803D01*
X135726053Y-119253707D01*
X135764149Y-119215612D01*
X135802244Y-119139422D01*
X135802244Y-119063231D01*
X135764149Y-118987041D01*
X135726053Y-118948946D01*
X135649863Y-118910850D01*
X135459387Y-118910850D01*
X135345101Y-118948946D01*
X134545101Y-119634660D02*
X134583196Y-119672755D01*
X134697482Y-119710850D01*
X134773673Y-119710850D01*
X134887958Y-119672755D01*
X134964149Y-119596565D01*
X135002244Y-119520374D01*
X135040339Y-119367993D01*
X135040339Y-119253707D01*
X135002244Y-119101326D01*
X134964149Y-119025136D01*
X134887958Y-118948946D01*
X134773673Y-118910850D01*
X134697482Y-118910850D01*
X134583196Y-118948946D01*
X134545101Y-118987041D01*
X134202244Y-119710850D02*
X134202244Y-118910850D01*
X133745101Y-119710850D02*
X134087958Y-119253707D01*
X133745101Y-118910850D02*
X134202244Y-119367993D01*
X135417829Y-117267371D02*
X135417829Y-116467371D01*
X135151163Y-117038800D01*
X134884496Y-116467371D01*
X134884496Y-117267371D01*
X134503544Y-117267371D02*
X134503544Y-116467371D01*
X134160687Y-117229276D02*
X134046401Y-117267371D01*
X133855925Y-117267371D01*
X133779734Y-117229276D01*
X133741639Y-117191181D01*
X133703544Y-117114990D01*
X133703544Y-117038800D01*
X133741639Y-116962609D01*
X133779734Y-116924514D01*
X133855925Y-116886419D01*
X134008306Y-116848324D01*
X134084496Y-116810228D01*
X134122591Y-116772133D01*
X134160687Y-116695943D01*
X134160687Y-116619752D01*
X134122591Y-116543562D01*
X134084496Y-116505467D01*
X134008306Y-116467371D01*
X133817829Y-116467371D01*
X133703544Y-116505467D01*
X133208306Y-116467371D02*
X133055925Y-116467371D01*
X132979734Y-116505467D01*
X132903544Y-116581657D01*
X132865448Y-116734038D01*
X132865448Y-117000705D01*
X132903544Y-117153086D01*
X132979734Y-117229276D01*
X133055925Y-117267371D01*
X133208306Y-117267371D01*
X133284496Y-117229276D01*
X133360687Y-117153086D01*
X133398782Y-117000705D01*
X133398782Y-116734038D01*
X133360687Y-116581657D01*
X133284496Y-116505467D01*
X133208306Y-116467371D01*
G04 #@! TO.C,ISCP1*
X132550166Y-117626509D02*
X133350166Y-117626509D01*
X133350166Y-117626509D02*
X133350166Y-120176509D01*
X133350166Y-120176509D02*
X132550166Y-120176509D01*
D12*
X132540166Y-122686509D02*
X132540166Y-115066509D01*
X127460166Y-115066509D02*
X127460166Y-122686509D01*
X127460166Y-122686509D02*
X132540166Y-122686509D01*
X132540166Y-115066509D02*
X127460166Y-115066509D01*
D13*
G04 #@! TO.C,LED5*
X181968721Y-105385580D02*
X174668721Y-105385580D01*
X181968721Y-110885580D02*
X174668721Y-110885580D01*
X174668721Y-110885580D02*
X174668721Y-109735580D01*
G04 #@! TO.C,R1*
X80404346Y-101789227D02*
X80404346Y-101463669D01*
X79384346Y-101789227D02*
X79384346Y-101463669D01*
G04 #@! TO.C,R2*
X84791125Y-101789227D02*
X84791125Y-101463669D01*
X85811125Y-101789227D02*
X85811125Y-101463669D01*
G04 #@! TO.C,RESET1*
X94729641Y-112974628D02*
X95179641Y-112524628D01*
X98129641Y-112974628D02*
X97679641Y-112524628D01*
X98129641Y-117574628D02*
X97679641Y-118024628D01*
X94729641Y-117574628D02*
X95179641Y-118024628D01*
X99179641Y-116274628D02*
X99179641Y-114274628D01*
X95179641Y-112524628D02*
X97679641Y-112524628D01*
X93679641Y-116274628D02*
X93679641Y-114274628D01*
X95179641Y-118024628D02*
X97679641Y-118024628D01*
D14*
G04 #@! TO.C,U1*
X96338629Y-138413190D02*
X96338629Y-137638190D01*
X89088629Y-131163190D02*
X89088629Y-131938190D01*
X96338629Y-131163190D02*
X96338629Y-131938190D01*
X89088629Y-138413190D02*
X89863629Y-138413190D01*
X89088629Y-131163190D02*
X89863629Y-131163190D01*
X96338629Y-131163190D02*
X95563629Y-131163190D01*
X96338629Y-138413190D02*
X95563629Y-138413190D01*
D11*
G04 #@! TO.C,X1*
X90453110Y-123290501D02*
X90453110Y-127040501D01*
X90453110Y-127040501D02*
X95203110Y-127040501D01*
X95203110Y-127040501D02*
X95203110Y-123290501D01*
X95203110Y-123290501D02*
X90453110Y-123290501D01*
D13*
G04 #@! TO.C,D1*
X71056166Y-111982509D02*
X69056166Y-111982509D01*
D10*
X70056166Y-109482509D02*
X70056166Y-108982509D01*
X69656166Y-109482509D02*
X70056166Y-110082509D01*
X70456166Y-109482509D02*
X69656166Y-109482509D01*
X70056166Y-110082509D02*
X70456166Y-109482509D01*
X70056166Y-110082509D02*
X69506166Y-110082509D01*
X70056166Y-110082509D02*
X70606166Y-110082509D01*
X70056166Y-110482509D02*
X70056166Y-110082509D01*
D13*
X69056166Y-111982509D02*
X69056166Y-108082509D01*
X71056166Y-111982509D02*
X71056166Y-108082509D01*
G04 #@! TO.C,D2*
X89450705Y-111907877D02*
X87450705Y-111907877D01*
D10*
X88450705Y-109407877D02*
X88450705Y-108907877D01*
X88050705Y-109407877D02*
X88450705Y-110007877D01*
X88850705Y-109407877D02*
X88050705Y-109407877D01*
X88450705Y-110007877D02*
X88850705Y-109407877D01*
X88450705Y-110007877D02*
X87900705Y-110007877D01*
X88450705Y-110007877D02*
X89000705Y-110007877D01*
X88450705Y-110407877D02*
X88450705Y-110007877D01*
D13*
X87450705Y-111907877D02*
X87450705Y-108007877D01*
X89450705Y-111907877D02*
X89450705Y-108007877D01*
G04 #@! TO.C,D3*
X108648166Y-111982509D02*
X106648166Y-111982509D01*
D10*
X107648166Y-109482509D02*
X107648166Y-108982509D01*
X107248166Y-109482509D02*
X107648166Y-110082509D01*
X108048166Y-109482509D02*
X107248166Y-109482509D01*
X107648166Y-110082509D02*
X108048166Y-109482509D01*
X107648166Y-110082509D02*
X107098166Y-110082509D01*
X107648166Y-110082509D02*
X108198166Y-110082509D01*
X107648166Y-110482509D02*
X107648166Y-110082509D01*
D13*
X106648166Y-111982509D02*
X106648166Y-108082509D01*
X108648166Y-111982509D02*
X108648166Y-108082509D01*
G04 #@! TO.C,D4*
X128460166Y-111982509D02*
X126460166Y-111982509D01*
D10*
X127460166Y-109482509D02*
X127460166Y-108982509D01*
X127060166Y-109482509D02*
X127460166Y-110082509D01*
X127860166Y-109482509D02*
X127060166Y-109482509D01*
X127460166Y-110082509D02*
X127860166Y-109482509D01*
X127460166Y-110082509D02*
X126910166Y-110082509D01*
X127460166Y-110082509D02*
X128010166Y-110082509D01*
X127460166Y-110482509D02*
X127460166Y-110082509D01*
D13*
X126460166Y-111982509D02*
X126460166Y-108082509D01*
X128460166Y-111982509D02*
X128460166Y-108082509D01*
G04 #@! TO.C,D5*
X147510166Y-111982509D02*
X145510166Y-111982509D01*
D10*
X146510166Y-109482509D02*
X146510166Y-108982509D01*
X146110166Y-109482509D02*
X146510166Y-110082509D01*
X146910166Y-109482509D02*
X146110166Y-109482509D01*
X146510166Y-110082509D02*
X146910166Y-109482509D01*
X146510166Y-110082509D02*
X145960166Y-110082509D01*
X146510166Y-110082509D02*
X147060166Y-110082509D01*
X146510166Y-110482509D02*
X146510166Y-110082509D01*
D13*
X145510166Y-111982509D02*
X145510166Y-108082509D01*
X147510166Y-111982509D02*
X147510166Y-108082509D01*
G04 #@! TO.C,D6*
X166306166Y-111982509D02*
X164306166Y-111982509D01*
D10*
X165306166Y-109482509D02*
X165306166Y-108982509D01*
X164906166Y-109482509D02*
X165306166Y-110082509D01*
X165706166Y-109482509D02*
X164906166Y-109482509D01*
X165306166Y-110082509D02*
X165706166Y-109482509D01*
X165306166Y-110082509D02*
X164756166Y-110082509D01*
X165306166Y-110082509D02*
X165856166Y-110082509D01*
X165306166Y-110482509D02*
X165306166Y-110082509D01*
D13*
X164306166Y-111982509D02*
X164306166Y-108082509D01*
X166306166Y-111982509D02*
X166306166Y-108082509D01*
G04 #@! TO.C,D7*
X185356166Y-111982509D02*
X183356166Y-111982509D01*
D10*
X184356166Y-109482509D02*
X184356166Y-108982509D01*
X183956166Y-109482509D02*
X184356166Y-110082509D01*
X184756166Y-109482509D02*
X183956166Y-109482509D01*
X184356166Y-110082509D02*
X184756166Y-109482509D01*
X184356166Y-110082509D02*
X183806166Y-110082509D01*
X184356166Y-110082509D02*
X184906166Y-110082509D01*
X184356166Y-110482509D02*
X184356166Y-110082509D01*
D13*
X183356166Y-111982509D02*
X183356166Y-108082509D01*
X185356166Y-111982509D02*
X185356166Y-108082509D01*
G04 #@! TO.C,D8*
X204406166Y-111982509D02*
X202406166Y-111982509D01*
D10*
X203406166Y-109482509D02*
X203406166Y-108982509D01*
X203006166Y-109482509D02*
X203406166Y-110082509D01*
X203806166Y-109482509D02*
X203006166Y-109482509D01*
X203406166Y-110082509D02*
X203806166Y-109482509D01*
X203406166Y-110082509D02*
X202856166Y-110082509D01*
X203406166Y-110082509D02*
X203956166Y-110082509D01*
X203406166Y-110482509D02*
X203406166Y-110082509D01*
D13*
X202406166Y-111982509D02*
X202406166Y-108082509D01*
X204406166Y-111982509D02*
X204406166Y-108082509D01*
G04 #@! TO.C,D9*
X223456166Y-111982509D02*
X221456166Y-111982509D01*
D10*
X222456166Y-109482509D02*
X222456166Y-108982509D01*
X222056166Y-109482509D02*
X222456166Y-110082509D01*
X222856166Y-109482509D02*
X222056166Y-109482509D01*
X222456166Y-110082509D02*
X222856166Y-109482509D01*
X222456166Y-110082509D02*
X221906166Y-110082509D01*
X222456166Y-110082509D02*
X223006166Y-110082509D01*
X222456166Y-110482509D02*
X222456166Y-110082509D01*
D13*
X221456166Y-111982509D02*
X221456166Y-108082509D01*
X223456166Y-111982509D02*
X223456166Y-108082509D01*
G04 #@! TO.C,D10*
X242760166Y-111982509D02*
X242760166Y-108082509D01*
X240760166Y-111982509D02*
X240760166Y-108082509D01*
D10*
X241760166Y-110482509D02*
X241760166Y-110082509D01*
X241760166Y-110082509D02*
X242310166Y-110082509D01*
X241760166Y-110082509D02*
X241210166Y-110082509D01*
X241760166Y-110082509D02*
X242160166Y-109482509D01*
X242160166Y-109482509D02*
X241360166Y-109482509D01*
X241360166Y-109482509D02*
X241760166Y-110082509D01*
X241760166Y-109482509D02*
X241760166Y-108982509D01*
D13*
X242760166Y-111982509D02*
X240760166Y-111982509D01*
G04 #@! TO.C,D11*
X261556166Y-111982509D02*
X261556166Y-108082509D01*
X259556166Y-111982509D02*
X259556166Y-108082509D01*
D10*
X260556166Y-110482509D02*
X260556166Y-110082509D01*
X260556166Y-110082509D02*
X261106166Y-110082509D01*
X260556166Y-110082509D02*
X260006166Y-110082509D01*
X260556166Y-110082509D02*
X260956166Y-109482509D01*
X260956166Y-109482509D02*
X260156166Y-109482509D01*
X260156166Y-109482509D02*
X260556166Y-110082509D01*
X260556166Y-109482509D02*
X260556166Y-108982509D01*
D13*
X261556166Y-111982509D02*
X259556166Y-111982509D01*
G04 #@! TO.C,D12*
X280606166Y-111982509D02*
X280606166Y-108082509D01*
X278606166Y-111982509D02*
X278606166Y-108082509D01*
D10*
X279606166Y-110482509D02*
X279606166Y-110082509D01*
X279606166Y-110082509D02*
X280156166Y-110082509D01*
X279606166Y-110082509D02*
X279056166Y-110082509D01*
X279606166Y-110082509D02*
X280006166Y-109482509D01*
X280006166Y-109482509D02*
X279206166Y-109482509D01*
X279206166Y-109482509D02*
X279606166Y-110082509D01*
X279606166Y-109482509D02*
X279606166Y-108982509D01*
D13*
X280606166Y-111982509D02*
X278606166Y-111982509D01*
G04 #@! TO.C,D13*
X299656166Y-112236509D02*
X299656166Y-108336509D01*
X297656166Y-112236509D02*
X297656166Y-108336509D01*
D10*
X298656166Y-110736509D02*
X298656166Y-110336509D01*
X298656166Y-110336509D02*
X299206166Y-110336509D01*
X298656166Y-110336509D02*
X298106166Y-110336509D01*
X298656166Y-110336509D02*
X299056166Y-109736509D01*
X299056166Y-109736509D02*
X298256166Y-109736509D01*
X298256166Y-109736509D02*
X298656166Y-110336509D01*
X298656166Y-109736509D02*
X298656166Y-109236509D01*
D13*
X299656166Y-112236509D02*
X297656166Y-112236509D01*
G04 #@! TO.C,D14*
X328358166Y-111982509D02*
X328358166Y-108082509D01*
X326358166Y-111982509D02*
X326358166Y-108082509D01*
D10*
X327358166Y-110482509D02*
X327358166Y-110082509D01*
X327358166Y-110082509D02*
X327908166Y-110082509D01*
X327358166Y-110082509D02*
X326808166Y-110082509D01*
X327358166Y-110082509D02*
X327758166Y-109482509D01*
X327758166Y-109482509D02*
X326958166Y-109482509D01*
X326958166Y-109482509D02*
X327358166Y-110082509D01*
X327358166Y-109482509D02*
X327358166Y-108982509D01*
D13*
X328358166Y-111982509D02*
X326358166Y-111982509D01*
G04 #@! TO.C,D15*
X356806166Y-111982509D02*
X356806166Y-108082509D01*
X354806166Y-111982509D02*
X354806166Y-108082509D01*
D10*
X355806166Y-110482509D02*
X355806166Y-110082509D01*
X355806166Y-110082509D02*
X356356166Y-110082509D01*
X355806166Y-110082509D02*
X355256166Y-110082509D01*
X355806166Y-110082509D02*
X356206166Y-109482509D01*
X356206166Y-109482509D02*
X355406166Y-109482509D01*
X355406166Y-109482509D02*
X355806166Y-110082509D01*
X355806166Y-109482509D02*
X355806166Y-108982509D01*
D13*
X356806166Y-111982509D02*
X354806166Y-111982509D01*
G04 #@! TO.C,D16*
X70815690Y-125451071D02*
X70815690Y-121551071D01*
X68815690Y-125451071D02*
X68815690Y-121551071D01*
D10*
X69815690Y-123951071D02*
X69815690Y-123551071D01*
X69815690Y-123551071D02*
X70365690Y-123551071D01*
X69815690Y-123551071D02*
X69265690Y-123551071D01*
X69815690Y-123551071D02*
X70215690Y-122951071D01*
X70215690Y-122951071D02*
X69415690Y-122951071D01*
X69415690Y-122951071D02*
X69815690Y-123551071D01*
X69815690Y-122951071D02*
X69815690Y-122451071D01*
D13*
X70815690Y-125451071D02*
X68815690Y-125451071D01*
G04 #@! TO.C,D17*
X110867849Y-125556057D02*
X108867849Y-125556057D01*
D10*
X109867849Y-123056057D02*
X109867849Y-122556057D01*
X109467849Y-123056057D02*
X109867849Y-123656057D01*
X110267849Y-123056057D02*
X109467849Y-123056057D01*
X109867849Y-123656057D02*
X110267849Y-123056057D01*
X109867849Y-123656057D02*
X109317849Y-123656057D01*
X109867849Y-123656057D02*
X110417849Y-123656057D01*
X109867849Y-124056057D02*
X109867849Y-123656057D01*
D13*
X108867849Y-125556057D02*
X108867849Y-121656057D01*
X110867849Y-125556057D02*
X110867849Y-121656057D01*
G04 #@! TO.C,D18*
X113597485Y-125556057D02*
X113597485Y-121656057D01*
X111597485Y-125556057D02*
X111597485Y-121656057D01*
D10*
X112597485Y-124056057D02*
X112597485Y-123656057D01*
X112597485Y-123656057D02*
X113147485Y-123656057D01*
X112597485Y-123656057D02*
X112047485Y-123656057D01*
X112597485Y-123656057D02*
X112997485Y-123056057D01*
X112997485Y-123056057D02*
X112197485Y-123056057D01*
X112197485Y-123056057D02*
X112597485Y-123656057D01*
X112597485Y-123056057D02*
X112597485Y-122556057D01*
D13*
X113597485Y-125556057D02*
X111597485Y-125556057D01*
G04 #@! TO.C,D19*
X148872781Y-125608550D02*
X148872781Y-121708550D01*
X146872781Y-125608550D02*
X146872781Y-121708550D01*
D10*
X147872781Y-124108550D02*
X147872781Y-123708550D01*
X147872781Y-123708550D02*
X148422781Y-123708550D01*
X147872781Y-123708550D02*
X147322781Y-123708550D01*
X147872781Y-123708550D02*
X148272781Y-123108550D01*
X148272781Y-123108550D02*
X147472781Y-123108550D01*
X147472781Y-123108550D02*
X147872781Y-123708550D01*
X147872781Y-123108550D02*
X147872781Y-122608550D01*
D13*
X148872781Y-125608550D02*
X146872781Y-125608550D01*
G04 #@! TO.C,D20*
X151707403Y-125608550D02*
X151707403Y-121708550D01*
X149707403Y-125608550D02*
X149707403Y-121708550D01*
D10*
X150707403Y-124108550D02*
X150707403Y-123708550D01*
X150707403Y-123708550D02*
X151257403Y-123708550D01*
X150707403Y-123708550D02*
X150157403Y-123708550D01*
X150707403Y-123708550D02*
X151107403Y-123108550D01*
X151107403Y-123108550D02*
X150307403Y-123108550D01*
X150307403Y-123108550D02*
X150707403Y-123708550D01*
X150707403Y-123108550D02*
X150707403Y-122608550D01*
D13*
X151707403Y-125608550D02*
X149707403Y-125608550D01*
G04 #@! TO.C,D21*
X187140178Y-125818522D02*
X187140178Y-121918522D01*
X185140178Y-125818522D02*
X185140178Y-121918522D01*
D10*
X186140178Y-124318522D02*
X186140178Y-123918522D01*
X186140178Y-123918522D02*
X186690178Y-123918522D01*
X186140178Y-123918522D02*
X185590178Y-123918522D01*
X186140178Y-123918522D02*
X186540178Y-123318522D01*
X186540178Y-123318522D02*
X185740178Y-123318522D01*
X185740178Y-123318522D02*
X186140178Y-123918522D01*
X186140178Y-123318522D02*
X186140178Y-122818522D01*
D13*
X187140178Y-125818522D02*
X185140178Y-125818522D01*
G04 #@! TO.C,D22*
X189922307Y-125818522D02*
X189922307Y-121918522D01*
X187922307Y-125818522D02*
X187922307Y-121918522D01*
D10*
X188922307Y-124318522D02*
X188922307Y-123918522D01*
X188922307Y-123918522D02*
X189472307Y-123918522D01*
X188922307Y-123918522D02*
X188372307Y-123918522D01*
X188922307Y-123918522D02*
X189322307Y-123318522D01*
X189322307Y-123318522D02*
X188522307Y-123318522D01*
X188522307Y-123318522D02*
X188922307Y-123918522D01*
X188922307Y-123318522D02*
X188922307Y-122818522D01*
D13*
X189922307Y-125818522D02*
X187922307Y-125818522D01*
G04 #@! TO.C,D23*
X225092617Y-126028494D02*
X225092617Y-122128494D01*
X223092617Y-126028494D02*
X223092617Y-122128494D01*
D10*
X224092617Y-124528494D02*
X224092617Y-124128494D01*
X224092617Y-124128494D02*
X224642617Y-124128494D01*
X224092617Y-124128494D02*
X223542617Y-124128494D01*
X224092617Y-124128494D02*
X224492617Y-123528494D01*
X224492617Y-123528494D02*
X223692617Y-123528494D01*
X223692617Y-123528494D02*
X224092617Y-124128494D01*
X224092617Y-123528494D02*
X224092617Y-123028494D01*
D13*
X225092617Y-126028494D02*
X223092617Y-126028494D01*
G04 #@! TO.C,D24*
X227874746Y-125976001D02*
X227874746Y-122076001D01*
X225874746Y-125976001D02*
X225874746Y-122076001D01*
D10*
X226874746Y-124476001D02*
X226874746Y-124076001D01*
X226874746Y-124076001D02*
X227424746Y-124076001D01*
X226874746Y-124076001D02*
X226324746Y-124076001D01*
X226874746Y-124076001D02*
X227274746Y-123476001D01*
X227274746Y-123476001D02*
X226474746Y-123476001D01*
X226474746Y-123476001D02*
X226874746Y-124076001D01*
X226874746Y-123476001D02*
X226874746Y-122976001D01*
D13*
X227874746Y-125976001D02*
X225874746Y-125976001D01*
G04 #@! TO.C,D25*
X263360014Y-126028494D02*
X261360014Y-126028494D01*
D10*
X262360014Y-123528494D02*
X262360014Y-123028494D01*
X261960014Y-123528494D02*
X262360014Y-124128494D01*
X262760014Y-123528494D02*
X261960014Y-123528494D01*
X262360014Y-124128494D02*
X262760014Y-123528494D01*
X262360014Y-124128494D02*
X261810014Y-124128494D01*
X262360014Y-124128494D02*
X262910014Y-124128494D01*
X262360014Y-124528494D02*
X262360014Y-124128494D01*
D13*
X261360014Y-126028494D02*
X261360014Y-122128494D01*
X263360014Y-126028494D02*
X263360014Y-122128494D01*
G04 #@! TO.C,D26*
X266037157Y-126028494D02*
X266037157Y-122128494D01*
X264037157Y-126028494D02*
X264037157Y-122128494D01*
D10*
X265037157Y-124528494D02*
X265037157Y-124128494D01*
X265037157Y-124128494D02*
X265587157Y-124128494D01*
X265037157Y-124128494D02*
X264487157Y-124128494D01*
X265037157Y-124128494D02*
X265437157Y-123528494D01*
X265437157Y-123528494D02*
X264637157Y-123528494D01*
X264637157Y-123528494D02*
X265037157Y-124128494D01*
X265037157Y-123528494D02*
X265037157Y-123028494D01*
D13*
X266037157Y-126028494D02*
X264037157Y-126028494D01*
G04 #@! TO.C,D27*
X301469932Y-125871015D02*
X301469932Y-121971015D01*
X299469932Y-125871015D02*
X299469932Y-121971015D01*
D10*
X300469932Y-124371015D02*
X300469932Y-123971015D01*
X300469932Y-123971015D02*
X301019932Y-123971015D01*
X300469932Y-123971015D02*
X299919932Y-123971015D01*
X300469932Y-123971015D02*
X300869932Y-123371015D01*
X300869932Y-123371015D02*
X300069932Y-123371015D01*
X300069932Y-123371015D02*
X300469932Y-123971015D01*
X300469932Y-123371015D02*
X300469932Y-122871015D01*
D13*
X301469932Y-125871015D02*
X299469932Y-125871015D01*
G04 #@! TO.C,D28*
X304147075Y-125923508D02*
X304147075Y-122023508D01*
X302147075Y-125923508D02*
X302147075Y-122023508D01*
D10*
X303147075Y-124423508D02*
X303147075Y-124023508D01*
X303147075Y-124023508D02*
X303697075Y-124023508D01*
X303147075Y-124023508D02*
X302597075Y-124023508D01*
X303147075Y-124023508D02*
X303547075Y-123423508D01*
X303547075Y-123423508D02*
X302747075Y-123423508D01*
X302747075Y-123423508D02*
X303147075Y-124023508D01*
X303147075Y-123423508D02*
X303147075Y-122923508D01*
D13*
X304147075Y-125923508D02*
X302147075Y-125923508D01*
G04 #@! TO.C,D29*
X327139009Y-125976001D02*
X327139009Y-122076001D01*
X325139009Y-125976001D02*
X325139009Y-122076001D01*
D10*
X326139009Y-124476001D02*
X326139009Y-124076001D01*
X326139009Y-124076001D02*
X326689009Y-124076001D01*
X326139009Y-124076001D02*
X325589009Y-124076001D01*
X326139009Y-124076001D02*
X326539009Y-123476001D01*
X326539009Y-123476001D02*
X325739009Y-123476001D01*
X325739009Y-123476001D02*
X326139009Y-124076001D01*
X326139009Y-123476001D02*
X326139009Y-122976001D01*
D13*
X327139009Y-125976001D02*
X325139009Y-125976001D01*
G04 #@! TO.C,D30*
X351338282Y-126080987D02*
X351338282Y-122180987D01*
X349338282Y-126080987D02*
X349338282Y-122180987D01*
D10*
X350338282Y-124580987D02*
X350338282Y-124180987D01*
X350338282Y-124180987D02*
X350888282Y-124180987D01*
X350338282Y-124180987D02*
X349788282Y-124180987D01*
X350338282Y-124180987D02*
X350738282Y-123580987D01*
X350738282Y-123580987D02*
X349938282Y-123580987D01*
X349938282Y-123580987D02*
X350338282Y-124180987D01*
X350338282Y-123580987D02*
X350338282Y-123080987D01*
D13*
X351338282Y-126080987D02*
X349338282Y-126080987D01*
G04 #@! TO.C,D31*
X77914166Y-150082509D02*
X77914166Y-146182509D01*
X75914166Y-150082509D02*
X75914166Y-146182509D01*
D10*
X76914166Y-148582509D02*
X76914166Y-148182509D01*
X76914166Y-148182509D02*
X77464166Y-148182509D01*
X76914166Y-148182509D02*
X76364166Y-148182509D01*
X76914166Y-148182509D02*
X77314166Y-147582509D01*
X77314166Y-147582509D02*
X76514166Y-147582509D01*
X76514166Y-147582509D02*
X76914166Y-148182509D01*
X76914166Y-147582509D02*
X76914166Y-147082509D01*
D13*
X77914166Y-150082509D02*
X75914166Y-150082509D01*
G04 #@! TO.C,D32*
X104411210Y-150017795D02*
X104411210Y-146117795D01*
X102411210Y-150017795D02*
X102411210Y-146117795D01*
D10*
X103411210Y-148517795D02*
X103411210Y-148117795D01*
X103411210Y-148117795D02*
X103961210Y-148117795D01*
X103411210Y-148117795D02*
X102861210Y-148117795D01*
X103411210Y-148117795D02*
X103811210Y-147517795D01*
X103811210Y-147517795D02*
X103011210Y-147517795D01*
X103011210Y-147517795D02*
X103411210Y-148117795D01*
X103411210Y-147517795D02*
X103411210Y-147017795D01*
D13*
X104411210Y-150017795D02*
X102411210Y-150017795D01*
G04 #@! TO.C,D33*
X123634166Y-150082509D02*
X123634166Y-146182509D01*
X121634166Y-150082509D02*
X121634166Y-146182509D01*
D10*
X122634166Y-148582509D02*
X122634166Y-148182509D01*
X122634166Y-148182509D02*
X123184166Y-148182509D01*
X122634166Y-148182509D02*
X122084166Y-148182509D01*
X122634166Y-148182509D02*
X123034166Y-147582509D01*
X123034166Y-147582509D02*
X122234166Y-147582509D01*
X122234166Y-147582509D02*
X122634166Y-148182509D01*
X122634166Y-147582509D02*
X122634166Y-147082509D01*
D13*
X123634166Y-150082509D02*
X121634166Y-150082509D01*
G04 #@! TO.C,D34*
X142430166Y-150082509D02*
X140430166Y-150082509D01*
D10*
X141430166Y-147582509D02*
X141430166Y-147082509D01*
X141030166Y-147582509D02*
X141430166Y-148182509D01*
X141830166Y-147582509D02*
X141030166Y-147582509D01*
X141430166Y-148182509D02*
X141830166Y-147582509D01*
X141430166Y-148182509D02*
X140880166Y-148182509D01*
X141430166Y-148182509D02*
X141980166Y-148182509D01*
X141430166Y-148582509D02*
X141430166Y-148182509D01*
D13*
X140430166Y-150082509D02*
X140430166Y-146182509D01*
X142430166Y-150082509D02*
X142430166Y-146182509D01*
G04 #@! TO.C,D35*
X161734166Y-150082509D02*
X159734166Y-150082509D01*
D10*
X160734166Y-147582509D02*
X160734166Y-147082509D01*
X160334166Y-147582509D02*
X160734166Y-148182509D01*
X161134166Y-147582509D02*
X160334166Y-147582509D01*
X160734166Y-148182509D02*
X161134166Y-147582509D01*
X160734166Y-148182509D02*
X160184166Y-148182509D01*
X160734166Y-148182509D02*
X161284166Y-148182509D01*
X160734166Y-148582509D02*
X160734166Y-148182509D01*
D13*
X159734166Y-150082509D02*
X159734166Y-146182509D01*
X161734166Y-150082509D02*
X161734166Y-146182509D01*
G04 #@! TO.C,D36*
X180530166Y-150082509D02*
X178530166Y-150082509D01*
D10*
X179530166Y-147582509D02*
X179530166Y-147082509D01*
X179130166Y-147582509D02*
X179530166Y-148182509D01*
X179930166Y-147582509D02*
X179130166Y-147582509D01*
X179530166Y-148182509D02*
X179930166Y-147582509D01*
X179530166Y-148182509D02*
X178980166Y-148182509D01*
X179530166Y-148182509D02*
X180080166Y-148182509D01*
X179530166Y-148582509D02*
X179530166Y-148182509D01*
D13*
X178530166Y-150082509D02*
X178530166Y-146182509D01*
X180530166Y-150082509D02*
X180530166Y-146182509D01*
G04 #@! TO.C,D37*
X199580166Y-150082509D02*
X197580166Y-150082509D01*
D10*
X198580166Y-147582509D02*
X198580166Y-147082509D01*
X198180166Y-147582509D02*
X198580166Y-148182509D01*
X198980166Y-147582509D02*
X198180166Y-147582509D01*
X198580166Y-148182509D02*
X198980166Y-147582509D01*
X198580166Y-148182509D02*
X198030166Y-148182509D01*
X198580166Y-148182509D02*
X199130166Y-148182509D01*
X198580166Y-148582509D02*
X198580166Y-148182509D01*
D13*
X197580166Y-150082509D02*
X197580166Y-146182509D01*
X199580166Y-150082509D02*
X199580166Y-146182509D01*
G04 #@! TO.C,D38*
X218884166Y-150082509D02*
X216884166Y-150082509D01*
D10*
X217884166Y-147582509D02*
X217884166Y-147082509D01*
X217484166Y-147582509D02*
X217884166Y-148182509D01*
X218284166Y-147582509D02*
X217484166Y-147582509D01*
X217884166Y-148182509D02*
X218284166Y-147582509D01*
X217884166Y-148182509D02*
X217334166Y-148182509D01*
X217884166Y-148182509D02*
X218434166Y-148182509D01*
X217884166Y-148582509D02*
X217884166Y-148182509D01*
D13*
X216884166Y-150082509D02*
X216884166Y-146182509D01*
X218884166Y-150082509D02*
X218884166Y-146182509D01*
G04 #@! TO.C,D39*
X237934166Y-150082509D02*
X237934166Y-146182509D01*
X235934166Y-150082509D02*
X235934166Y-146182509D01*
D10*
X236934166Y-148582509D02*
X236934166Y-148182509D01*
X236934166Y-148182509D02*
X237484166Y-148182509D01*
X236934166Y-148182509D02*
X236384166Y-148182509D01*
X236934166Y-148182509D02*
X237334166Y-147582509D01*
X237334166Y-147582509D02*
X236534166Y-147582509D01*
X236534166Y-147582509D02*
X236934166Y-148182509D01*
X236934166Y-147582509D02*
X236934166Y-147082509D01*
D13*
X237934166Y-150082509D02*
X235934166Y-150082509D01*
G04 #@! TO.C,D40*
X257238166Y-150082509D02*
X255238166Y-150082509D01*
D10*
X256238166Y-147582509D02*
X256238166Y-147082509D01*
X255838166Y-147582509D02*
X256238166Y-148182509D01*
X256638166Y-147582509D02*
X255838166Y-147582509D01*
X256238166Y-148182509D02*
X256638166Y-147582509D01*
X256238166Y-148182509D02*
X255688166Y-148182509D01*
X256238166Y-148182509D02*
X256788166Y-148182509D01*
X256238166Y-148582509D02*
X256238166Y-148182509D01*
D13*
X255238166Y-150082509D02*
X255238166Y-146182509D01*
X257238166Y-150082509D02*
X257238166Y-146182509D01*
G04 #@! TO.C,D41*
X275780166Y-150082509D02*
X273780166Y-150082509D01*
D10*
X274780166Y-147582509D02*
X274780166Y-147082509D01*
X274380166Y-147582509D02*
X274780166Y-148182509D01*
X275180166Y-147582509D02*
X274380166Y-147582509D01*
X274780166Y-148182509D02*
X275180166Y-147582509D01*
X274780166Y-148182509D02*
X274230166Y-148182509D01*
X274780166Y-148182509D02*
X275330166Y-148182509D01*
X274780166Y-148582509D02*
X274780166Y-148182509D01*
D13*
X273780166Y-150082509D02*
X273780166Y-146182509D01*
X275780166Y-150082509D02*
X275780166Y-146182509D01*
G04 #@! TO.C,D42*
X294830166Y-150082509D02*
X292830166Y-150082509D01*
D10*
X293830166Y-147582509D02*
X293830166Y-147082509D01*
X293430166Y-147582509D02*
X293830166Y-148182509D01*
X294230166Y-147582509D02*
X293430166Y-147582509D01*
X293830166Y-148182509D02*
X294230166Y-147582509D01*
X293830166Y-148182509D02*
X293280166Y-148182509D01*
X293830166Y-148182509D02*
X294380166Y-148182509D01*
X293830166Y-148582509D02*
X293830166Y-148182509D01*
D13*
X292830166Y-150082509D02*
X292830166Y-146182509D01*
X294830166Y-150082509D02*
X294830166Y-146182509D01*
G04 #@! TO.C,D43*
X325818166Y-150082509D02*
X323818166Y-150082509D01*
D10*
X324818166Y-147582509D02*
X324818166Y-147082509D01*
X324418166Y-147582509D02*
X324818166Y-148182509D01*
X325218166Y-147582509D02*
X324418166Y-147582509D01*
X324818166Y-148182509D02*
X325218166Y-147582509D01*
X324818166Y-148182509D02*
X324268166Y-148182509D01*
X324818166Y-148182509D02*
X325368166Y-148182509D01*
X324818166Y-148582509D02*
X324818166Y-148182509D01*
D13*
X323818166Y-150082509D02*
X323818166Y-146182509D01*
X325818166Y-150082509D02*
X325818166Y-146182509D01*
G04 #@! TO.C,D44*
X356806166Y-150082509D02*
X354806166Y-150082509D01*
D10*
X355806166Y-147582509D02*
X355806166Y-147082509D01*
X355406166Y-147582509D02*
X355806166Y-148182509D01*
X356206166Y-147582509D02*
X355406166Y-147582509D01*
X355806166Y-148182509D02*
X356206166Y-147582509D01*
X355806166Y-148182509D02*
X355256166Y-148182509D01*
X355806166Y-148182509D02*
X356356166Y-148182509D01*
X355806166Y-148582509D02*
X355806166Y-148182509D01*
D13*
X354806166Y-150082509D02*
X354806166Y-146182509D01*
X356806166Y-150082509D02*
X356806166Y-146182509D01*
G04 #@! TO.C,D45*
X82740166Y-169132509D02*
X80740166Y-169132509D01*
D10*
X81740166Y-166632509D02*
X81740166Y-166132509D01*
X81340166Y-166632509D02*
X81740166Y-167232509D01*
X82140166Y-166632509D02*
X81340166Y-166632509D01*
X81740166Y-167232509D02*
X82140166Y-166632509D01*
X81740166Y-167232509D02*
X81190166Y-167232509D01*
X81740166Y-167232509D02*
X82290166Y-167232509D01*
X81740166Y-167632509D02*
X81740166Y-167232509D01*
D13*
X80740166Y-169132509D02*
X80740166Y-165232509D01*
X82740166Y-169132509D02*
X82740166Y-165232509D01*
G04 #@! TO.C,D46*
X113982166Y-169132509D02*
X111982166Y-169132509D01*
D10*
X112982166Y-166632509D02*
X112982166Y-166132509D01*
X112582166Y-166632509D02*
X112982166Y-167232509D01*
X113382166Y-166632509D02*
X112582166Y-166632509D01*
X112982166Y-167232509D02*
X113382166Y-166632509D01*
X112982166Y-167232509D02*
X112432166Y-167232509D01*
X112982166Y-167232509D02*
X113532166Y-167232509D01*
X112982166Y-167632509D02*
X112982166Y-167232509D01*
D13*
X111982166Y-169132509D02*
X111982166Y-165232509D01*
X113982166Y-169132509D02*
X113982166Y-165232509D01*
G04 #@! TO.C,D47*
X133032166Y-169132509D02*
X131032166Y-169132509D01*
D10*
X132032166Y-166632509D02*
X132032166Y-166132509D01*
X131632166Y-166632509D02*
X132032166Y-167232509D01*
X132432166Y-166632509D02*
X131632166Y-166632509D01*
X132032166Y-167232509D02*
X132432166Y-166632509D01*
X132032166Y-167232509D02*
X131482166Y-167232509D01*
X132032166Y-167232509D02*
X132582166Y-167232509D01*
X132032166Y-167632509D02*
X132032166Y-167232509D01*
D13*
X131032166Y-169132509D02*
X131032166Y-165232509D01*
X133032166Y-169132509D02*
X133032166Y-165232509D01*
G04 #@! TO.C,D48*
X152082166Y-169132509D02*
X150082166Y-169132509D01*
D10*
X151082166Y-166632509D02*
X151082166Y-166132509D01*
X150682166Y-166632509D02*
X151082166Y-167232509D01*
X151482166Y-166632509D02*
X150682166Y-166632509D01*
X151082166Y-167232509D02*
X151482166Y-166632509D01*
X151082166Y-167232509D02*
X150532166Y-167232509D01*
X151082166Y-167232509D02*
X151632166Y-167232509D01*
X151082166Y-167632509D02*
X151082166Y-167232509D01*
D13*
X150082166Y-169132509D02*
X150082166Y-165232509D01*
X152082166Y-169132509D02*
X152082166Y-165232509D01*
G04 #@! TO.C,D49*
X171132166Y-169132509D02*
X169132166Y-169132509D01*
D10*
X170132166Y-166632509D02*
X170132166Y-166132509D01*
X169732166Y-166632509D02*
X170132166Y-167232509D01*
X170532166Y-166632509D02*
X169732166Y-166632509D01*
X170132166Y-167232509D02*
X170532166Y-166632509D01*
X170132166Y-167232509D02*
X169582166Y-167232509D01*
X170132166Y-167232509D02*
X170682166Y-167232509D01*
X170132166Y-167632509D02*
X170132166Y-167232509D01*
D13*
X169132166Y-169132509D02*
X169132166Y-165232509D01*
X171132166Y-169132509D02*
X171132166Y-165232509D01*
G04 #@! TO.C,D50*
X189928166Y-169132509D02*
X187928166Y-169132509D01*
D10*
X188928166Y-166632509D02*
X188928166Y-166132509D01*
X188528166Y-166632509D02*
X188928166Y-167232509D01*
X189328166Y-166632509D02*
X188528166Y-166632509D01*
X188928166Y-167232509D02*
X189328166Y-166632509D01*
X188928166Y-167232509D02*
X188378166Y-167232509D01*
X188928166Y-167232509D02*
X189478166Y-167232509D01*
X188928166Y-167632509D02*
X188928166Y-167232509D01*
D13*
X187928166Y-169132509D02*
X187928166Y-165232509D01*
X189928166Y-169132509D02*
X189928166Y-165232509D01*
G04 #@! TO.C,D51*
X209232166Y-169132509D02*
X209232166Y-165232509D01*
X207232166Y-169132509D02*
X207232166Y-165232509D01*
D10*
X208232166Y-167632509D02*
X208232166Y-167232509D01*
X208232166Y-167232509D02*
X208782166Y-167232509D01*
X208232166Y-167232509D02*
X207682166Y-167232509D01*
X208232166Y-167232509D02*
X208632166Y-166632509D01*
X208632166Y-166632509D02*
X207832166Y-166632509D01*
X207832166Y-166632509D02*
X208232166Y-167232509D01*
X208232166Y-166632509D02*
X208232166Y-166132509D01*
D13*
X209232166Y-169132509D02*
X207232166Y-169132509D01*
G04 #@! TO.C,D52*
X228536166Y-169132509D02*
X228536166Y-165232509D01*
X226536166Y-169132509D02*
X226536166Y-165232509D01*
D10*
X227536166Y-167632509D02*
X227536166Y-167232509D01*
X227536166Y-167232509D02*
X228086166Y-167232509D01*
X227536166Y-167232509D02*
X226986166Y-167232509D01*
X227536166Y-167232509D02*
X227936166Y-166632509D01*
X227936166Y-166632509D02*
X227136166Y-166632509D01*
X227136166Y-166632509D02*
X227536166Y-167232509D01*
X227536166Y-166632509D02*
X227536166Y-166132509D01*
D13*
X228536166Y-169132509D02*
X226536166Y-169132509D01*
G04 #@! TO.C,D53*
X247332166Y-169132509D02*
X245332166Y-169132509D01*
D10*
X246332166Y-166632509D02*
X246332166Y-166132509D01*
X245932166Y-166632509D02*
X246332166Y-167232509D01*
X246732166Y-166632509D02*
X245932166Y-166632509D01*
X246332166Y-167232509D02*
X246732166Y-166632509D01*
X246332166Y-167232509D02*
X245782166Y-167232509D01*
X246332166Y-167232509D02*
X246882166Y-167232509D01*
X246332166Y-167632509D02*
X246332166Y-167232509D01*
D13*
X245332166Y-169132509D02*
X245332166Y-165232509D01*
X247332166Y-169132509D02*
X247332166Y-165232509D01*
G04 #@! TO.C,D54*
X266382166Y-169132509D02*
X264382166Y-169132509D01*
D10*
X265382166Y-166632509D02*
X265382166Y-166132509D01*
X264982166Y-166632509D02*
X265382166Y-167232509D01*
X265782166Y-166632509D02*
X264982166Y-166632509D01*
X265382166Y-167232509D02*
X265782166Y-166632509D01*
X265382166Y-167232509D02*
X264832166Y-167232509D01*
X265382166Y-167232509D02*
X265932166Y-167232509D01*
X265382166Y-167632509D02*
X265382166Y-167232509D01*
D13*
X264382166Y-169132509D02*
X264382166Y-165232509D01*
X266382166Y-169132509D02*
X266382166Y-165232509D01*
G04 #@! TO.C,D55*
X285432166Y-169132509D02*
X283432166Y-169132509D01*
D10*
X284432166Y-166632509D02*
X284432166Y-166132509D01*
X284032166Y-166632509D02*
X284432166Y-167232509D01*
X284832166Y-166632509D02*
X284032166Y-166632509D01*
X284432166Y-167232509D02*
X284832166Y-166632509D01*
X284432166Y-167232509D02*
X283882166Y-167232509D01*
X284432166Y-167232509D02*
X284982166Y-167232509D01*
X284432166Y-167632509D02*
X284432166Y-167232509D01*
D13*
X283432166Y-169132509D02*
X283432166Y-165232509D01*
X285432166Y-169132509D02*
X285432166Y-165232509D01*
G04 #@! TO.C,D56*
X311340166Y-169132509D02*
X309340166Y-169132509D01*
D10*
X310340166Y-166632509D02*
X310340166Y-166132509D01*
X309940166Y-166632509D02*
X310340166Y-167232509D01*
X310740166Y-166632509D02*
X309940166Y-166632509D01*
X310340166Y-167232509D02*
X310740166Y-166632509D01*
X310340166Y-167232509D02*
X309790166Y-167232509D01*
X310340166Y-167232509D02*
X310890166Y-167232509D01*
X310340166Y-167632509D02*
X310340166Y-167232509D01*
D13*
X309340166Y-169132509D02*
X309340166Y-165232509D01*
X311340166Y-169132509D02*
X311340166Y-165232509D01*
G04 #@! TO.C,D57*
X337756166Y-169132509D02*
X335756166Y-169132509D01*
D10*
X336756166Y-166632509D02*
X336756166Y-166132509D01*
X336356166Y-166632509D02*
X336756166Y-167232509D01*
X337156166Y-166632509D02*
X336356166Y-166632509D01*
X336756166Y-167232509D02*
X337156166Y-166632509D01*
X336756166Y-167232509D02*
X336206166Y-167232509D01*
X336756166Y-167232509D02*
X337306166Y-167232509D01*
X336756166Y-167632509D02*
X336756166Y-167232509D01*
D13*
X335756166Y-169132509D02*
X335756166Y-165232509D01*
X337756166Y-169132509D02*
X337756166Y-165232509D01*
G04 #@! TO.C,D58*
X356806166Y-169132509D02*
X354806166Y-169132509D01*
D10*
X355806166Y-166632509D02*
X355806166Y-166132509D01*
X355406166Y-166632509D02*
X355806166Y-167232509D01*
X356206166Y-166632509D02*
X355406166Y-166632509D01*
X355806166Y-167232509D02*
X356206166Y-166632509D01*
X355806166Y-167232509D02*
X355256166Y-167232509D01*
X355806166Y-167232509D02*
X356356166Y-167232509D01*
X355806166Y-167632509D02*
X355806166Y-167232509D01*
D13*
X354806166Y-169132509D02*
X354806166Y-165232509D01*
X356806166Y-169132509D02*
X356806166Y-165232509D01*
G04 #@! TO.C,D59*
X73342166Y-187928509D02*
X73342166Y-184028509D01*
X71342166Y-187928509D02*
X71342166Y-184028509D01*
D10*
X72342166Y-186428509D02*
X72342166Y-186028509D01*
X72342166Y-186028509D02*
X72892166Y-186028509D01*
X72342166Y-186028509D02*
X71792166Y-186028509D01*
X72342166Y-186028509D02*
X72742166Y-185428509D01*
X72742166Y-185428509D02*
X71942166Y-185428509D01*
X71942166Y-185428509D02*
X72342166Y-186028509D01*
X72342166Y-185428509D02*
X72342166Y-184928509D01*
D13*
X73342166Y-187928509D02*
X71342166Y-187928509D01*
G04 #@! TO.C,D60*
X97218166Y-187928509D02*
X97218166Y-184028509D01*
X95218166Y-187928509D02*
X95218166Y-184028509D01*
D10*
X96218166Y-186428509D02*
X96218166Y-186028509D01*
X96218166Y-186028509D02*
X96768166Y-186028509D01*
X96218166Y-186028509D02*
X95668166Y-186028509D01*
X96218166Y-186028509D02*
X96618166Y-185428509D01*
X96618166Y-185428509D02*
X95818166Y-185428509D01*
X95818166Y-185428509D02*
X96218166Y-186028509D01*
X96218166Y-185428509D02*
X96218166Y-184928509D01*
D13*
X97218166Y-187928509D02*
X95218166Y-187928509D01*
G04 #@! TO.C,D61*
X121094166Y-187928509D02*
X121094166Y-184028509D01*
X119094166Y-187928509D02*
X119094166Y-184028509D01*
D10*
X120094166Y-186428509D02*
X120094166Y-186028509D01*
X120094166Y-186028509D02*
X120644166Y-186028509D01*
X120094166Y-186028509D02*
X119544166Y-186028509D01*
X120094166Y-186028509D02*
X120494166Y-185428509D01*
X120494166Y-185428509D02*
X119694166Y-185428509D01*
X119694166Y-185428509D02*
X120094166Y-186028509D01*
X120094166Y-185428509D02*
X120094166Y-184928509D01*
D13*
X121094166Y-187928509D02*
X119094166Y-187928509D01*
G04 #@! TO.C,D62*
X192468166Y-187928509D02*
X192468166Y-184028509D01*
X190468166Y-187928509D02*
X190468166Y-184028509D01*
D10*
X191468166Y-186428509D02*
X191468166Y-186028509D01*
X191468166Y-186028509D02*
X192018166Y-186028509D01*
X191468166Y-186028509D02*
X190918166Y-186028509D01*
X191468166Y-186028509D02*
X191868166Y-185428509D01*
X191868166Y-185428509D02*
X191068166Y-185428509D01*
X191068166Y-185428509D02*
X191468166Y-186028509D01*
X191468166Y-185428509D02*
X191468166Y-184928509D01*
D13*
X192468166Y-187928509D02*
X190468166Y-187928509D01*
G04 #@! TO.C,D63*
X263842166Y-187928509D02*
X263842166Y-184028509D01*
X261842166Y-187928509D02*
X261842166Y-184028509D01*
D10*
X262842166Y-186428509D02*
X262842166Y-186028509D01*
X262842166Y-186028509D02*
X263392166Y-186028509D01*
X262842166Y-186028509D02*
X262292166Y-186028509D01*
X262842166Y-186028509D02*
X263242166Y-185428509D01*
X263242166Y-185428509D02*
X262442166Y-185428509D01*
X262442166Y-185428509D02*
X262842166Y-186028509D01*
X262842166Y-185428509D02*
X262842166Y-184928509D01*
D13*
X263842166Y-187928509D02*
X261842166Y-187928509D01*
G04 #@! TO.C,D64*
X287464166Y-187674509D02*
X285464166Y-187674509D01*
D10*
X286464166Y-185174509D02*
X286464166Y-184674509D01*
X286064166Y-185174509D02*
X286464166Y-185774509D01*
X286864166Y-185174509D02*
X286064166Y-185174509D01*
X286464166Y-185774509D02*
X286864166Y-185174509D01*
X286464166Y-185774509D02*
X285914166Y-185774509D01*
X286464166Y-185774509D02*
X287014166Y-185774509D01*
X286464166Y-186174509D02*
X286464166Y-185774509D01*
D13*
X285464166Y-187674509D02*
X285464166Y-183774509D01*
X287464166Y-187674509D02*
X287464166Y-183774509D01*
G04 #@! TO.C,D65*
X318706166Y-187928509D02*
X318706166Y-184028509D01*
X316706166Y-187928509D02*
X316706166Y-184028509D01*
D10*
X317706166Y-186428509D02*
X317706166Y-186028509D01*
X317706166Y-186028509D02*
X318256166Y-186028509D01*
X317706166Y-186028509D02*
X317156166Y-186028509D01*
X317706166Y-186028509D02*
X318106166Y-185428509D01*
X318106166Y-185428509D02*
X317306166Y-185428509D01*
X317306166Y-185428509D02*
X317706166Y-186028509D01*
X317706166Y-185428509D02*
X317706166Y-184928509D01*
D13*
X318706166Y-187928509D02*
X316706166Y-187928509D01*
G04 #@! TO.C,D66*
X337756166Y-187928509D02*
X337756166Y-184028509D01*
X335756166Y-187928509D02*
X335756166Y-184028509D01*
D10*
X336756166Y-186428509D02*
X336756166Y-186028509D01*
X336756166Y-186028509D02*
X337306166Y-186028509D01*
X336756166Y-186028509D02*
X336206166Y-186028509D01*
X336756166Y-186028509D02*
X337156166Y-185428509D01*
X337156166Y-185428509D02*
X336356166Y-185428509D01*
X336356166Y-185428509D02*
X336756166Y-186028509D01*
X336756166Y-185428509D02*
X336756166Y-184928509D01*
D13*
X337756166Y-187928509D02*
X335756166Y-187928509D01*
G04 #@! TO.C,D67*
X356806166Y-187928509D02*
X356806166Y-184028509D01*
X354806166Y-187928509D02*
X354806166Y-184028509D01*
D10*
X355806166Y-186428509D02*
X355806166Y-186028509D01*
X355806166Y-186028509D02*
X356356166Y-186028509D01*
X355806166Y-186028509D02*
X355256166Y-186028509D01*
X355806166Y-186028509D02*
X356206166Y-185428509D01*
X356206166Y-185428509D02*
X355406166Y-185428509D01*
X355406166Y-185428509D02*
X355806166Y-186028509D01*
X355806166Y-185428509D02*
X355806166Y-184928509D01*
D13*
X356806166Y-187928509D02*
X354806166Y-187928509D01*
D14*
G04 #@! TO.C,U2*
X83221489Y-104073815D02*
X81921489Y-104073815D01*
X83221489Y-101173815D02*
X83221489Y-104073815D01*
X81921489Y-101173815D02*
X83221489Y-101173815D01*
X81921489Y-101173815D02*
X81921489Y-104073815D01*
D13*
G04 #@! TO.C,F1*
X81129276Y-106556903D02*
X81129276Y-106039747D01*
X79709276Y-106556903D02*
X79709276Y-106039747D01*
G04 #@! TO.C,R5*
X81851517Y-106461104D02*
X81851517Y-106135546D01*
X82871517Y-106461104D02*
X82871517Y-106135546D01*
G04 #@! TO.C,R6*
X84551293Y-106461104D02*
X84551293Y-106135546D01*
X83531293Y-106461104D02*
X83531293Y-106135546D01*
G04 #@! TO.C,C1*
X87175943Y-132497632D02*
X87175943Y-132172074D01*
X86155943Y-132497632D02*
X86155943Y-132172074D01*
G04 #@! TO.C,C2*
X89800593Y-125033026D02*
X89800593Y-125358584D01*
X88780593Y-125033026D02*
X88780593Y-125358584D01*
G04 #@! TO.C,C3*
X93810291Y-121641211D02*
X93484733Y-121641211D01*
X93810291Y-122661211D02*
X93484733Y-122661211D01*
G04 #@! TO.C,C4*
X86208436Y-129138080D02*
X86208436Y-128812522D01*
X87228436Y-129138080D02*
X87228436Y-128812522D01*
G04 #@! TO.C,C5*
X88623114Y-128235099D02*
X88623114Y-128560657D01*
X89643114Y-128235099D02*
X89643114Y-128560657D01*
G04 #@! TO.C,C6*
X99269563Y-132057458D02*
X98944005Y-132057458D01*
X99269563Y-131037458D02*
X98944005Y-131037458D01*
G04 #@! TO.C,C7*
X98587154Y-137914041D02*
X98261596Y-137914041D01*
X98587154Y-138934041D02*
X98261596Y-138934041D01*
G04 #@! TO.C,C8*
X89652744Y-140666310D02*
X89978302Y-140666310D01*
X89652744Y-139646310D02*
X89978302Y-139646310D01*
G04 #@! TO.C,C9*
X359256792Y-130407542D02*
X359582350Y-130407542D01*
X359256792Y-131427542D02*
X359582350Y-131427542D01*
G04 #@! TO.C,C10*
X340999828Y-102166308D02*
X340674270Y-102166308D01*
X340999828Y-103186308D02*
X340674270Y-103186308D01*
G04 #@! TO.C,C11*
X291341450Y-104866084D02*
X291015892Y-104866084D01*
X291341450Y-103846084D02*
X291015892Y-103846084D01*
G04 #@! TO.C,C12*
X234281559Y-103163675D02*
X233956001Y-103163675D01*
X234281559Y-104183675D02*
X233956001Y-104183675D01*
G04 #@! TO.C,C13*
X177064189Y-104183675D02*
X176738631Y-104183675D01*
X177064189Y-103163675D02*
X176738631Y-103163675D01*
G04 #@! TO.C,C14*
X119584354Y-102796224D02*
X119258796Y-102796224D01*
X119584354Y-103816224D02*
X119258796Y-103816224D01*
G04 #@! TO.C,C15*
X77274996Y-108173143D02*
X76949438Y-108173143D01*
X77274996Y-107153143D02*
X76949438Y-107153143D01*
G04 #@! TO.C,C16*
X72025696Y-134314657D02*
X71700138Y-134314657D01*
X72025696Y-133294657D02*
X71700138Y-133294657D01*
G04 #@! TO.C,C17*
X84473911Y-176338917D02*
X84148353Y-176338917D01*
X84473911Y-177358917D02*
X84148353Y-177358917D01*
G04 #@! TO.C,C18*
X137484467Y-178461270D02*
X137158909Y-178461270D01*
X137484467Y-177441270D02*
X137158909Y-177441270D01*
G04 #@! TO.C,C19*
X206407776Y-177441270D02*
X206082218Y-177441270D01*
X206407776Y-178461270D02*
X206082218Y-178461270D01*
G04 #@! TO.C,C20*
X253336518Y-178146312D02*
X253010960Y-178146312D01*
X253336518Y-177126312D02*
X253010960Y-177126312D01*
G04 #@! TO.C,C21*
X301892543Y-178018693D02*
X301566985Y-178018693D01*
X301892543Y-179038693D02*
X301566985Y-179038693D01*
G04 #@! TO.C,C22*
X348296355Y-179563623D02*
X347970797Y-179563623D01*
X348296355Y-178543623D02*
X347970797Y-178543623D01*
G04 #@! TO.C,R3*
X86680873Y-124833654D02*
X86680873Y-124508096D01*
X87700873Y-124833654D02*
X87700873Y-124508096D01*
G04 #@! TO.C,R4*
X104320534Y-134326297D02*
X104090329Y-134556502D01*
X105041783Y-135047546D02*
X104811578Y-135277751D01*
G04 #@! TO.C,LED1*
X352462512Y-137628509D02*
X352462512Y-136478509D01*
X359762512Y-137628509D02*
X352462512Y-137628509D01*
X359762512Y-132128509D02*
X352462512Y-132128509D01*
G04 #@! TO.C,LED2*
X346324304Y-104020762D02*
X339024304Y-104020762D01*
X346324304Y-109520762D02*
X339024304Y-109520762D01*
X339024304Y-109520762D02*
X339024304Y-108370762D01*
G04 #@! TO.C,LED3*
X296193489Y-105438073D02*
X288893489Y-105438073D01*
X296193489Y-110938073D02*
X288893489Y-110938073D01*
X288893489Y-110938073D02*
X288893489Y-109788073D01*
G04 #@! TO.C,LED4*
X231886091Y-110780594D02*
X231886091Y-109630594D01*
X239186091Y-110780594D02*
X231886091Y-110780594D01*
X239186091Y-105280594D02*
X231886091Y-105280594D01*
G04 #@! TO.C,LED6*
X117346365Y-110308157D02*
X117346365Y-109158157D01*
X124646365Y-110308157D02*
X117346365Y-110308157D01*
X124646365Y-104808157D02*
X117346365Y-104808157D01*
G04 #@! TO.C,LED7*
X79187427Y-108850118D02*
X71887427Y-108850118D01*
X79187427Y-114350118D02*
X71887427Y-114350118D01*
X71887427Y-114350118D02*
X71887427Y-113200118D01*
G04 #@! TO.C,LED8*
X67425522Y-140649111D02*
X67425522Y-139499111D01*
X74725522Y-140649111D02*
X67425522Y-140649111D01*
X74725522Y-135149111D02*
X67425522Y-135149111D01*
G04 #@! TO.C,LED9*
X89948492Y-179348217D02*
X82648492Y-179348217D01*
X89948492Y-184848217D02*
X82648492Y-184848217D01*
X82648492Y-184848217D02*
X82648492Y-183698217D01*
G04 #@! TO.C,LED10*
X135246478Y-184743231D02*
X135246478Y-183593231D01*
X142546478Y-184743231D02*
X135246478Y-184743231D01*
X142546478Y-179243231D02*
X135246478Y-179243231D01*
G04 #@! TO.C,LED11*
X210052476Y-179558189D02*
X202752476Y-179558189D01*
X210052476Y-185058189D02*
X202752476Y-185058189D01*
X202752476Y-185058189D02*
X202752476Y-183908189D01*
G04 #@! TO.C,LED12*
X250626092Y-185058189D02*
X250626092Y-183908189D01*
X257926092Y-185058189D02*
X250626092Y-185058189D01*
X257926092Y-179558189D02*
X250626092Y-179558189D01*
G04 #@! TO.C,LED13*
X305432257Y-180083119D02*
X298132257Y-180083119D01*
X305432257Y-185583119D02*
X298132257Y-185583119D01*
X298132257Y-185583119D02*
X298132257Y-184433119D01*
G04 #@! TO.C,LED14*
X345743408Y-186685472D02*
X345743408Y-185535472D01*
X353043408Y-186685472D02*
X345743408Y-186685472D01*
X353043408Y-181185472D02*
X345743408Y-181185472D01*
G04 #@! TO.C,R1*
D14*
X78347903Y-101410929D02*
X78614570Y-101029977D01*
X78805046Y-101410929D02*
X78805046Y-100610929D01*
X78500284Y-100610929D01*
X78424093Y-100649025D01*
X78385998Y-100687120D01*
X78347903Y-100763310D01*
X78347903Y-100877596D01*
X78385998Y-100953786D01*
X78424093Y-100991882D01*
X78500284Y-101029977D01*
X78805046Y-101029977D01*
X77585998Y-101410929D02*
X78043141Y-101410929D01*
X77814570Y-101410929D02*
X77814570Y-100610929D01*
X77890760Y-100725215D01*
X77966950Y-100801405D01*
X78043141Y-100839501D01*
X78604373Y-101975747D02*
X78985326Y-101975747D01*
X79023421Y-102356700D01*
X78985326Y-102318604D01*
X78909135Y-102280509D01*
X78718659Y-102280509D01*
X78642469Y-102318604D01*
X78604373Y-102356700D01*
X78566278Y-102432890D01*
X78566278Y-102623366D01*
X78604373Y-102699557D01*
X78642469Y-102737652D01*
X78718659Y-102775747D01*
X78909135Y-102775747D01*
X78985326Y-102737652D01*
X79023421Y-102699557D01*
X78223421Y-102699557D02*
X78185326Y-102737652D01*
X78223421Y-102775747D01*
X78261516Y-102737652D01*
X78223421Y-102699557D01*
X78223421Y-102775747D01*
X77423421Y-102775747D02*
X77880564Y-102775747D01*
X77651992Y-102775747D02*
X77651992Y-101975747D01*
X77728183Y-102090033D01*
X77804373Y-102166223D01*
X77880564Y-102204319D01*
X77080564Y-102775747D02*
X77080564Y-101975747D01*
X77004373Y-102470985D02*
X76775802Y-102775747D01*
X76775802Y-102242414D02*
X77080564Y-102547176D01*
G04 #@! TO.C,R2*
X86956755Y-99573674D02*
X87223422Y-99192722D01*
X87413898Y-99573674D02*
X87413898Y-98773674D01*
X87109136Y-98773674D01*
X87032945Y-98811770D01*
X86994850Y-98849865D01*
X86956755Y-98926055D01*
X86956755Y-99040341D01*
X86994850Y-99116531D01*
X87032945Y-99154627D01*
X87109136Y-99192722D01*
X87413898Y-99192722D01*
X86651993Y-98849865D02*
X86613898Y-98811770D01*
X86537707Y-98773674D01*
X86347231Y-98773674D01*
X86271041Y-98811770D01*
X86232945Y-98849865D01*
X86194850Y-98926055D01*
X86194850Y-99002246D01*
X86232945Y-99116531D01*
X86690088Y-99573674D01*
X86194850Y-99573674D01*
X87948127Y-99823534D02*
X88329080Y-99823534D01*
X88367175Y-100204487D01*
X88329080Y-100166391D01*
X88252889Y-100128296D01*
X88062413Y-100128296D01*
X87986223Y-100166391D01*
X87948127Y-100204487D01*
X87910032Y-100280677D01*
X87910032Y-100471153D01*
X87948127Y-100547344D01*
X87986223Y-100585439D01*
X88062413Y-100623534D01*
X88252889Y-100623534D01*
X88329080Y-100585439D01*
X88367175Y-100547344D01*
X87567175Y-100547344D02*
X87529080Y-100585439D01*
X87567175Y-100623534D01*
X87605270Y-100585439D01*
X87567175Y-100547344D01*
X87567175Y-100623534D01*
X86767175Y-100623534D02*
X87224318Y-100623534D01*
X86995746Y-100623534D02*
X86995746Y-99823534D01*
X87071937Y-99937820D01*
X87148127Y-100014010D01*
X87224318Y-100052106D01*
X86424318Y-100623534D02*
X86424318Y-99823534D01*
X86348127Y-100318772D02*
X86119556Y-100623534D01*
X86119556Y-100090201D02*
X86424318Y-100394963D01*
G04 #@! TO.C,RESET1*
G04 #@! TO.C,D1*
X68535801Y-109024767D02*
X67535801Y-109024767D01*
X67535801Y-109262863D01*
X67583421Y-109405720D01*
X67678659Y-109500958D01*
X67773897Y-109548577D01*
X67964373Y-109596196D01*
X68107230Y-109596196D01*
X68297706Y-109548577D01*
X68392944Y-109500958D01*
X68488182Y-109405720D01*
X68535801Y-109262863D01*
X68535801Y-109024767D01*
X68535801Y-110548577D02*
X68535801Y-109977148D01*
X68535801Y-110262863D02*
X67535801Y-110262863D01*
X67678659Y-110167624D01*
X67773897Y-110072386D01*
X67821516Y-109977148D01*
G04 #@! TO.C,D2*
X90903085Y-108919781D02*
X89903085Y-108919781D01*
X89903085Y-109157877D01*
X89950705Y-109300734D01*
X90045943Y-109395972D01*
X90141181Y-109443591D01*
X90331657Y-109491210D01*
X90474514Y-109491210D01*
X90664990Y-109443591D01*
X90760228Y-109395972D01*
X90855466Y-109300734D01*
X90903085Y-109157877D01*
X90903085Y-108919781D01*
X89998324Y-109872162D02*
X89950705Y-109919781D01*
X89903085Y-110015019D01*
X89903085Y-110253115D01*
X89950705Y-110348353D01*
X89998324Y-110395972D01*
X90093562Y-110443591D01*
X90188800Y-110443591D01*
X90331657Y-110395972D01*
X90903085Y-109824543D01*
X90903085Y-110443591D01*
G04 #@! TO.C,D3*
X110100546Y-108994413D02*
X109100546Y-108994413D01*
X109100546Y-109232509D01*
X109148166Y-109375366D01*
X109243404Y-109470604D01*
X109338642Y-109518223D01*
X109529118Y-109565842D01*
X109671975Y-109565842D01*
X109862451Y-109518223D01*
X109957689Y-109470604D01*
X110052927Y-109375366D01*
X110100546Y-109232509D01*
X110100546Y-108994413D01*
X109100546Y-109899175D02*
X109100546Y-110518223D01*
X109481499Y-110184889D01*
X109481499Y-110327747D01*
X109529118Y-110422985D01*
X109576737Y-110470604D01*
X109671975Y-110518223D01*
X109910070Y-110518223D01*
X110005308Y-110470604D01*
X110052927Y-110422985D01*
X110100546Y-110327747D01*
X110100546Y-110042032D01*
X110052927Y-109946794D01*
X110005308Y-109899175D01*
G04 #@! TO.C,D4*
X129912546Y-108994413D02*
X128912546Y-108994413D01*
X128912546Y-109232509D01*
X128960166Y-109375366D01*
X129055404Y-109470604D01*
X129150642Y-109518223D01*
X129341118Y-109565842D01*
X129483975Y-109565842D01*
X129674451Y-109518223D01*
X129769689Y-109470604D01*
X129864927Y-109375366D01*
X129912546Y-109232509D01*
X129912546Y-108994413D01*
X129245880Y-110422985D02*
X129912546Y-110422985D01*
X128864927Y-110184889D02*
X129579213Y-109946794D01*
X129579213Y-110565842D01*
G04 #@! TO.C,D5*
X148962546Y-108994413D02*
X147962546Y-108994413D01*
X147962546Y-109232509D01*
X148010166Y-109375366D01*
X148105404Y-109470604D01*
X148200642Y-109518223D01*
X148391118Y-109565842D01*
X148533975Y-109565842D01*
X148724451Y-109518223D01*
X148819689Y-109470604D01*
X148914927Y-109375366D01*
X148962546Y-109232509D01*
X148962546Y-108994413D01*
X147962546Y-110470604D02*
X147962546Y-109994413D01*
X148438737Y-109946794D01*
X148391118Y-109994413D01*
X148343499Y-110089651D01*
X148343499Y-110327747D01*
X148391118Y-110422985D01*
X148438737Y-110470604D01*
X148533975Y-110518223D01*
X148772070Y-110518223D01*
X148867308Y-110470604D01*
X148914927Y-110422985D01*
X148962546Y-110327747D01*
X148962546Y-110089651D01*
X148914927Y-109994413D01*
X148867308Y-109946794D01*
G04 #@! TO.C,D6*
X167758546Y-108994413D02*
X166758546Y-108994413D01*
X166758546Y-109232509D01*
X166806166Y-109375366D01*
X166901404Y-109470604D01*
X166996642Y-109518223D01*
X167187118Y-109565842D01*
X167329975Y-109565842D01*
X167520451Y-109518223D01*
X167615689Y-109470604D01*
X167710927Y-109375366D01*
X167758546Y-109232509D01*
X167758546Y-108994413D01*
X166758546Y-110422985D02*
X166758546Y-110232509D01*
X166806166Y-110137270D01*
X166853785Y-110089651D01*
X166996642Y-109994413D01*
X167187118Y-109946794D01*
X167568070Y-109946794D01*
X167663308Y-109994413D01*
X167710927Y-110042032D01*
X167758546Y-110137270D01*
X167758546Y-110327747D01*
X167710927Y-110422985D01*
X167663308Y-110470604D01*
X167568070Y-110518223D01*
X167329975Y-110518223D01*
X167234737Y-110470604D01*
X167187118Y-110422985D01*
X167139499Y-110327747D01*
X167139499Y-110137270D01*
X167187118Y-110042032D01*
X167234737Y-109994413D01*
X167329975Y-109946794D01*
G04 #@! TO.C,D7*
X186808546Y-108994413D02*
X185808546Y-108994413D01*
X185808546Y-109232509D01*
X185856166Y-109375366D01*
X185951404Y-109470604D01*
X186046642Y-109518223D01*
X186237118Y-109565842D01*
X186379975Y-109565842D01*
X186570451Y-109518223D01*
X186665689Y-109470604D01*
X186760927Y-109375366D01*
X186808546Y-109232509D01*
X186808546Y-108994413D01*
X185808546Y-109899175D02*
X185808546Y-110565842D01*
X186808546Y-110137270D01*
G04 #@! TO.C,D8*
X205858546Y-108994413D02*
X204858546Y-108994413D01*
X204858546Y-109232509D01*
X204906166Y-109375366D01*
X205001404Y-109470604D01*
X205096642Y-109518223D01*
X205287118Y-109565842D01*
X205429975Y-109565842D01*
X205620451Y-109518223D01*
X205715689Y-109470604D01*
X205810927Y-109375366D01*
X205858546Y-109232509D01*
X205858546Y-108994413D01*
X205287118Y-110137270D02*
X205239499Y-110042032D01*
X205191880Y-109994413D01*
X205096642Y-109946794D01*
X205049023Y-109946794D01*
X204953785Y-109994413D01*
X204906166Y-110042032D01*
X204858546Y-110137270D01*
X204858546Y-110327747D01*
X204906166Y-110422985D01*
X204953785Y-110470604D01*
X205049023Y-110518223D01*
X205096642Y-110518223D01*
X205191880Y-110470604D01*
X205239499Y-110422985D01*
X205287118Y-110327747D01*
X205287118Y-110137270D01*
X205334737Y-110042032D01*
X205382356Y-109994413D01*
X205477594Y-109946794D01*
X205668070Y-109946794D01*
X205763308Y-109994413D01*
X205810927Y-110042032D01*
X205858546Y-110137270D01*
X205858546Y-110327747D01*
X205810927Y-110422985D01*
X205763308Y-110470604D01*
X205668070Y-110518223D01*
X205477594Y-110518223D01*
X205382356Y-110470604D01*
X205334737Y-110422985D01*
X205287118Y-110327747D01*
G04 #@! TO.C,D9*
X224908546Y-108994413D02*
X223908546Y-108994413D01*
X223908546Y-109232509D01*
X223956166Y-109375366D01*
X224051404Y-109470604D01*
X224146642Y-109518223D01*
X224337118Y-109565842D01*
X224479975Y-109565842D01*
X224670451Y-109518223D01*
X224765689Y-109470604D01*
X224860927Y-109375366D01*
X224908546Y-109232509D01*
X224908546Y-108994413D01*
X224908546Y-110042032D02*
X224908546Y-110232509D01*
X224860927Y-110327747D01*
X224813308Y-110375366D01*
X224670451Y-110470604D01*
X224479975Y-110518223D01*
X224099023Y-110518223D01*
X224003785Y-110470604D01*
X223956166Y-110422985D01*
X223908546Y-110327747D01*
X223908546Y-110137270D01*
X223956166Y-110042032D01*
X224003785Y-109994413D01*
X224099023Y-109946794D01*
X224337118Y-109946794D01*
X224432356Y-109994413D01*
X224479975Y-110042032D01*
X224527594Y-110137270D01*
X224527594Y-110327747D01*
X224479975Y-110422985D01*
X224432356Y-110470604D01*
X224337118Y-110518223D01*
G04 #@! TO.C,D10*
X244212546Y-108518223D02*
X243212546Y-108518223D01*
X243212546Y-108756318D01*
X243260166Y-108899175D01*
X243355404Y-108994413D01*
X243450642Y-109042032D01*
X243641118Y-109089651D01*
X243783975Y-109089651D01*
X243974451Y-109042032D01*
X244069689Y-108994413D01*
X244164927Y-108899175D01*
X244212546Y-108756318D01*
X244212546Y-108518223D01*
X244212546Y-110042032D02*
X244212546Y-109470604D01*
X244212546Y-109756318D02*
X243212546Y-109756318D01*
X243355404Y-109661080D01*
X243450642Y-109565842D01*
X243498261Y-109470604D01*
X243212546Y-110661080D02*
X243212546Y-110756318D01*
X243260166Y-110851556D01*
X243307785Y-110899175D01*
X243403023Y-110946794D01*
X243593499Y-110994413D01*
X243831594Y-110994413D01*
X244022070Y-110946794D01*
X244117308Y-110899175D01*
X244164927Y-110851556D01*
X244212546Y-110756318D01*
X244212546Y-110661080D01*
X244164927Y-110565842D01*
X244117308Y-110518223D01*
X244022070Y-110470604D01*
X243831594Y-110422985D01*
X243593499Y-110422985D01*
X243403023Y-110470604D01*
X243307785Y-110518223D01*
X243260166Y-110565842D01*
X243212546Y-110661080D01*
G04 #@! TO.C,D11*
X263008546Y-108518223D02*
X262008546Y-108518223D01*
X262008546Y-108756318D01*
X262056166Y-108899175D01*
X262151404Y-108994413D01*
X262246642Y-109042032D01*
X262437118Y-109089651D01*
X262579975Y-109089651D01*
X262770451Y-109042032D01*
X262865689Y-108994413D01*
X262960927Y-108899175D01*
X263008546Y-108756318D01*
X263008546Y-108518223D01*
X263008546Y-110042032D02*
X263008546Y-109470604D01*
X263008546Y-109756318D02*
X262008546Y-109756318D01*
X262151404Y-109661080D01*
X262246642Y-109565842D01*
X262294261Y-109470604D01*
X263008546Y-110994413D02*
X263008546Y-110422985D01*
X263008546Y-110708699D02*
X262008546Y-110708699D01*
X262151404Y-110613461D01*
X262246642Y-110518223D01*
X262294261Y-110422985D01*
G04 #@! TO.C,D12*
X282058546Y-108518223D02*
X281058546Y-108518223D01*
X281058546Y-108756318D01*
X281106166Y-108899175D01*
X281201404Y-108994413D01*
X281296642Y-109042032D01*
X281487118Y-109089651D01*
X281629975Y-109089651D01*
X281820451Y-109042032D01*
X281915689Y-108994413D01*
X282010927Y-108899175D01*
X282058546Y-108756318D01*
X282058546Y-108518223D01*
X282058546Y-110042032D02*
X282058546Y-109470604D01*
X282058546Y-109756318D02*
X281058546Y-109756318D01*
X281201404Y-109661080D01*
X281296642Y-109565842D01*
X281344261Y-109470604D01*
X281153785Y-110422985D02*
X281106166Y-110470604D01*
X281058546Y-110565842D01*
X281058546Y-110803937D01*
X281106166Y-110899175D01*
X281153785Y-110946794D01*
X281249023Y-110994413D01*
X281344261Y-110994413D01*
X281487118Y-110946794D01*
X282058546Y-110375366D01*
X282058546Y-110994413D01*
G04 #@! TO.C,D13*
X301108546Y-108772223D02*
X300108546Y-108772223D01*
X300108546Y-109010318D01*
X300156166Y-109153175D01*
X300251404Y-109248413D01*
X300346642Y-109296032D01*
X300537118Y-109343651D01*
X300679975Y-109343651D01*
X300870451Y-109296032D01*
X300965689Y-109248413D01*
X301060927Y-109153175D01*
X301108546Y-109010318D01*
X301108546Y-108772223D01*
X301108546Y-110296032D02*
X301108546Y-109724604D01*
X301108546Y-110010318D02*
X300108546Y-110010318D01*
X300251404Y-109915080D01*
X300346642Y-109819842D01*
X300394261Y-109724604D01*
X300108546Y-110629366D02*
X300108546Y-111248413D01*
X300489499Y-110915080D01*
X300489499Y-111057937D01*
X300537118Y-111153175D01*
X300584737Y-111200794D01*
X300679975Y-111248413D01*
X300918070Y-111248413D01*
X301013308Y-111200794D01*
X301060927Y-111153175D01*
X301108546Y-111057937D01*
X301108546Y-110772223D01*
X301060927Y-110676985D01*
X301013308Y-110629366D01*
G04 #@! TO.C,D14*
X329810546Y-108518223D02*
X328810546Y-108518223D01*
X328810546Y-108756318D01*
X328858166Y-108899175D01*
X328953404Y-108994413D01*
X329048642Y-109042032D01*
X329239118Y-109089651D01*
X329381975Y-109089651D01*
X329572451Y-109042032D01*
X329667689Y-108994413D01*
X329762927Y-108899175D01*
X329810546Y-108756318D01*
X329810546Y-108518223D01*
X329810546Y-110042032D02*
X329810546Y-109470604D01*
X329810546Y-109756318D02*
X328810546Y-109756318D01*
X328953404Y-109661080D01*
X329048642Y-109565842D01*
X329096261Y-109470604D01*
X329143880Y-110899175D02*
X329810546Y-110899175D01*
X328762927Y-110661080D02*
X329477213Y-110422985D01*
X329477213Y-111042032D01*
G04 #@! TO.C,D15*
X358258546Y-108518223D02*
X357258546Y-108518223D01*
X357258546Y-108756318D01*
X357306166Y-108899175D01*
X357401404Y-108994413D01*
X357496642Y-109042032D01*
X357687118Y-109089651D01*
X357829975Y-109089651D01*
X358020451Y-109042032D01*
X358115689Y-108994413D01*
X358210927Y-108899175D01*
X358258546Y-108756318D01*
X358258546Y-108518223D01*
X358258546Y-110042032D02*
X358258546Y-109470604D01*
X358258546Y-109756318D02*
X357258546Y-109756318D01*
X357401404Y-109661080D01*
X357496642Y-109565842D01*
X357544261Y-109470604D01*
X357258546Y-110946794D02*
X357258546Y-110470604D01*
X357734737Y-110422985D01*
X357687118Y-110470604D01*
X357639499Y-110565842D01*
X357639499Y-110803937D01*
X357687118Y-110899175D01*
X357734737Y-110946794D01*
X357829975Y-110994413D01*
X358068070Y-110994413D01*
X358163308Y-110946794D01*
X358210927Y-110899175D01*
X358258546Y-110803937D01*
X358258546Y-110565842D01*
X358210927Y-110470604D01*
X358163308Y-110422985D01*
G04 #@! TO.C,D16*
X68378322Y-121776813D02*
X67378322Y-121776813D01*
X67378322Y-122014908D01*
X67425942Y-122157765D01*
X67521180Y-122253003D01*
X67616418Y-122300622D01*
X67806894Y-122348241D01*
X67949751Y-122348241D01*
X68140227Y-122300622D01*
X68235465Y-122253003D01*
X68330703Y-122157765D01*
X68378322Y-122014908D01*
X68378322Y-121776813D01*
X68378322Y-123300622D02*
X68378322Y-122729194D01*
X68378322Y-123014908D02*
X67378322Y-123014908D01*
X67521180Y-122919670D01*
X67616418Y-122824432D01*
X67664037Y-122729194D01*
X67378322Y-124157765D02*
X67378322Y-123967289D01*
X67425942Y-123872051D01*
X67473561Y-123824432D01*
X67616418Y-123729194D01*
X67806894Y-123681575D01*
X68187846Y-123681575D01*
X68283084Y-123729194D01*
X68330703Y-123776813D01*
X68378322Y-123872051D01*
X68378322Y-124062527D01*
X68330703Y-124157765D01*
X68283084Y-124205384D01*
X68187846Y-124253003D01*
X67949751Y-124253003D01*
X67854513Y-124205384D01*
X67806894Y-124157765D01*
X67759275Y-124062527D01*
X67759275Y-123872051D01*
X67806894Y-123776813D01*
X67854513Y-123729194D01*
X67949751Y-123681575D01*
G04 #@! TO.C,D17*
X108430481Y-120149530D02*
X107430481Y-120149530D01*
X107430481Y-120387625D01*
X107478101Y-120530482D01*
X107573339Y-120625720D01*
X107668577Y-120673339D01*
X107859053Y-120720958D01*
X108001910Y-120720958D01*
X108192386Y-120673339D01*
X108287624Y-120625720D01*
X108382862Y-120530482D01*
X108430481Y-120387625D01*
X108430481Y-120149530D01*
X108430481Y-121673339D02*
X108430481Y-121101911D01*
X108430481Y-121387625D02*
X107430481Y-121387625D01*
X107573339Y-121292387D01*
X107668577Y-121197149D01*
X107716196Y-121101911D01*
X107430481Y-122006673D02*
X107430481Y-122673339D01*
X108430481Y-122244768D01*
G04 #@! TO.C,D18*
X115049865Y-120254516D02*
X114049865Y-120254516D01*
X114049865Y-120492611D01*
X114097485Y-120635468D01*
X114192723Y-120730706D01*
X114287961Y-120778325D01*
X114478437Y-120825944D01*
X114621294Y-120825944D01*
X114811770Y-120778325D01*
X114907008Y-120730706D01*
X115002246Y-120635468D01*
X115049865Y-120492611D01*
X115049865Y-120254516D01*
X115049865Y-121778325D02*
X115049865Y-121206897D01*
X115049865Y-121492611D02*
X114049865Y-121492611D01*
X114192723Y-121397373D01*
X114287961Y-121302135D01*
X114335580Y-121206897D01*
X114478437Y-122349754D02*
X114430818Y-122254516D01*
X114383199Y-122206897D01*
X114287961Y-122159278D01*
X114240342Y-122159278D01*
X114145104Y-122206897D01*
X114097485Y-122254516D01*
X114049865Y-122349754D01*
X114049865Y-122540230D01*
X114097485Y-122635468D01*
X114145104Y-122683087D01*
X114240342Y-122730706D01*
X114287961Y-122730706D01*
X114383199Y-122683087D01*
X114430818Y-122635468D01*
X114478437Y-122540230D01*
X114478437Y-122349754D01*
X114526056Y-122254516D01*
X114573675Y-122206897D01*
X114668913Y-122159278D01*
X114859389Y-122159278D01*
X114954627Y-122206897D01*
X115002246Y-122254516D01*
X115049865Y-122349754D01*
X115049865Y-122540230D01*
X115002246Y-122635468D01*
X114954627Y-122683087D01*
X114859389Y-122730706D01*
X114668913Y-122730706D01*
X114573675Y-122683087D01*
X114526056Y-122635468D01*
X114478437Y-122540230D01*
G04 #@! TO.C,D19*
X146540399Y-120097037D02*
X145540399Y-120097037D01*
X145540399Y-120335132D01*
X145588019Y-120477989D01*
X145683257Y-120573227D01*
X145778495Y-120620846D01*
X145968971Y-120668465D01*
X146111828Y-120668465D01*
X146302304Y-120620846D01*
X146397542Y-120573227D01*
X146492780Y-120477989D01*
X146540399Y-120335132D01*
X146540399Y-120097037D01*
X146540399Y-121620846D02*
X146540399Y-121049418D01*
X146540399Y-121335132D02*
X145540399Y-121335132D01*
X145683257Y-121239894D01*
X145778495Y-121144656D01*
X145826114Y-121049418D01*
X146540399Y-122097037D02*
X146540399Y-122287513D01*
X146492780Y-122382751D01*
X146445161Y-122430370D01*
X146302304Y-122525608D01*
X146111828Y-122573227D01*
X145730876Y-122573227D01*
X145635638Y-122525608D01*
X145588019Y-122477989D01*
X145540399Y-122382751D01*
X145540399Y-122192275D01*
X145588019Y-122097037D01*
X145635638Y-122049418D01*
X145730876Y-122001799D01*
X145968971Y-122001799D01*
X146064209Y-122049418D01*
X146111828Y-122097037D01*
X146159447Y-122192275D01*
X146159447Y-122382751D01*
X146111828Y-122477989D01*
X146064209Y-122525608D01*
X145968971Y-122573227D01*
G04 #@! TO.C,D20*
X153159783Y-120149530D02*
X152159783Y-120149530D01*
X152159783Y-120387625D01*
X152207403Y-120530482D01*
X152302641Y-120625720D01*
X152397879Y-120673339D01*
X152588355Y-120720958D01*
X152731212Y-120720958D01*
X152921688Y-120673339D01*
X153016926Y-120625720D01*
X153112164Y-120530482D01*
X153159783Y-120387625D01*
X153159783Y-120149530D01*
X152255022Y-121101911D02*
X152207403Y-121149530D01*
X152159783Y-121244768D01*
X152159783Y-121482863D01*
X152207403Y-121578101D01*
X152255022Y-121625720D01*
X152350260Y-121673339D01*
X152445498Y-121673339D01*
X152588355Y-121625720D01*
X153159783Y-121054292D01*
X153159783Y-121673339D01*
X152159783Y-122292387D02*
X152159783Y-122387625D01*
X152207403Y-122482863D01*
X152255022Y-122530482D01*
X152350260Y-122578101D01*
X152540736Y-122625720D01*
X152778831Y-122625720D01*
X152969307Y-122578101D01*
X153064545Y-122530482D01*
X153112164Y-122482863D01*
X153159783Y-122387625D01*
X153159783Y-122292387D01*
X153112164Y-122197149D01*
X153064545Y-122149530D01*
X152969307Y-122101911D01*
X152778831Y-122054292D01*
X152540736Y-122054292D01*
X152350260Y-122101911D01*
X152255022Y-122149530D01*
X152207403Y-122197149D01*
X152159783Y-122292387D01*
G04 #@! TO.C,D21*
X184702810Y-120254516D02*
X183702810Y-120254516D01*
X183702810Y-120492611D01*
X183750430Y-120635468D01*
X183845668Y-120730706D01*
X183940906Y-120778325D01*
X184131382Y-120825944D01*
X184274239Y-120825944D01*
X184464715Y-120778325D01*
X184559953Y-120730706D01*
X184655191Y-120635468D01*
X184702810Y-120492611D01*
X184702810Y-120254516D01*
X183798049Y-121206897D02*
X183750430Y-121254516D01*
X183702810Y-121349754D01*
X183702810Y-121587849D01*
X183750430Y-121683087D01*
X183798049Y-121730706D01*
X183893287Y-121778325D01*
X183988525Y-121778325D01*
X184131382Y-121730706D01*
X184702810Y-121159278D01*
X184702810Y-121778325D01*
X184702810Y-122730706D02*
X184702810Y-122159278D01*
X184702810Y-122444992D02*
X183702810Y-122444992D01*
X183845668Y-122349754D01*
X183940906Y-122254516D01*
X183988525Y-122159278D01*
G04 #@! TO.C,D22*
X191374687Y-120202023D02*
X190374687Y-120202023D01*
X190374687Y-120440118D01*
X190422307Y-120582975D01*
X190517545Y-120678213D01*
X190612783Y-120725832D01*
X190803259Y-120773451D01*
X190946116Y-120773451D01*
X191136592Y-120725832D01*
X191231830Y-120678213D01*
X191327068Y-120582975D01*
X191374687Y-120440118D01*
X191374687Y-120202023D01*
X190469926Y-121154404D02*
X190422307Y-121202023D01*
X190374687Y-121297261D01*
X190374687Y-121535356D01*
X190422307Y-121630594D01*
X190469926Y-121678213D01*
X190565164Y-121725832D01*
X190660402Y-121725832D01*
X190803259Y-121678213D01*
X191374687Y-121106785D01*
X191374687Y-121725832D01*
X190469926Y-122106785D02*
X190422307Y-122154404D01*
X190374687Y-122249642D01*
X190374687Y-122487737D01*
X190422307Y-122582975D01*
X190469926Y-122630594D01*
X190565164Y-122678213D01*
X190660402Y-122678213D01*
X190803259Y-122630594D01*
X191374687Y-122059166D01*
X191374687Y-122678213D01*
G04 #@! TO.C,D23*
X222917714Y-120097037D02*
X221917714Y-120097037D01*
X221917714Y-120335132D01*
X221965334Y-120477989D01*
X222060572Y-120573227D01*
X222155810Y-120620846D01*
X222346286Y-120668465D01*
X222489143Y-120668465D01*
X222679619Y-120620846D01*
X222774857Y-120573227D01*
X222870095Y-120477989D01*
X222917714Y-120335132D01*
X222917714Y-120097037D01*
X222012953Y-121049418D02*
X221965334Y-121097037D01*
X221917714Y-121192275D01*
X221917714Y-121430370D01*
X221965334Y-121525608D01*
X222012953Y-121573227D01*
X222108191Y-121620846D01*
X222203429Y-121620846D01*
X222346286Y-121573227D01*
X222917714Y-121001799D01*
X222917714Y-121620846D01*
X221917714Y-121954180D02*
X221917714Y-122573227D01*
X222298667Y-122239894D01*
X222298667Y-122382751D01*
X222346286Y-122477989D01*
X222393905Y-122525608D01*
X222489143Y-122573227D01*
X222727238Y-122573227D01*
X222822476Y-122525608D01*
X222870095Y-122477989D01*
X222917714Y-122382751D01*
X222917714Y-122097037D01*
X222870095Y-122001799D01*
X222822476Y-121954180D01*
G04 #@! TO.C,D24*
X229216874Y-120149530D02*
X228216874Y-120149530D01*
X228216874Y-120387625D01*
X228264494Y-120530482D01*
X228359732Y-120625720D01*
X228454970Y-120673339D01*
X228645446Y-120720958D01*
X228788303Y-120720958D01*
X228978779Y-120673339D01*
X229074017Y-120625720D01*
X229169255Y-120530482D01*
X229216874Y-120387625D01*
X229216874Y-120149530D01*
X228312113Y-121101911D02*
X228264494Y-121149530D01*
X228216874Y-121244768D01*
X228216874Y-121482863D01*
X228264494Y-121578101D01*
X228312113Y-121625720D01*
X228407351Y-121673339D01*
X228502589Y-121673339D01*
X228645446Y-121625720D01*
X229216874Y-121054292D01*
X229216874Y-121673339D01*
X228550208Y-122530482D02*
X229216874Y-122530482D01*
X228169255Y-122292387D02*
X228883541Y-122054292D01*
X228883541Y-122673339D01*
G04 #@! TO.C,D25*
X261027632Y-120202023D02*
X260027632Y-120202023D01*
X260027632Y-120440118D01*
X260075252Y-120582975D01*
X260170490Y-120678213D01*
X260265728Y-120725832D01*
X260456204Y-120773451D01*
X260599061Y-120773451D01*
X260789537Y-120725832D01*
X260884775Y-120678213D01*
X260980013Y-120582975D01*
X261027632Y-120440118D01*
X261027632Y-120202023D01*
X260122871Y-121154404D02*
X260075252Y-121202023D01*
X260027632Y-121297261D01*
X260027632Y-121535356D01*
X260075252Y-121630594D01*
X260122871Y-121678213D01*
X260218109Y-121725832D01*
X260313347Y-121725832D01*
X260456204Y-121678213D01*
X261027632Y-121106785D01*
X261027632Y-121725832D01*
X260027632Y-122630594D02*
X260027632Y-122154404D01*
X260503823Y-122106785D01*
X260456204Y-122154404D01*
X260408585Y-122249642D01*
X260408585Y-122487737D01*
X260456204Y-122582975D01*
X260503823Y-122630594D01*
X260599061Y-122678213D01*
X260837156Y-122678213D01*
X260932394Y-122630594D01*
X260980013Y-122582975D01*
X261027632Y-122487737D01*
X261027632Y-122249642D01*
X260980013Y-122154404D01*
X260932394Y-122106785D01*
G04 #@! TO.C,D26*
X267484271Y-120149530D02*
X266484271Y-120149530D01*
X266484271Y-120387625D01*
X266531891Y-120530482D01*
X266627129Y-120625720D01*
X266722367Y-120673339D01*
X266912843Y-120720958D01*
X267055700Y-120720958D01*
X267246176Y-120673339D01*
X267341414Y-120625720D01*
X267436652Y-120530482D01*
X267484271Y-120387625D01*
X267484271Y-120149530D01*
X266579510Y-121101911D02*
X266531891Y-121149530D01*
X266484271Y-121244768D01*
X266484271Y-121482863D01*
X266531891Y-121578101D01*
X266579510Y-121625720D01*
X266674748Y-121673339D01*
X266769986Y-121673339D01*
X266912843Y-121625720D01*
X267484271Y-121054292D01*
X267484271Y-121673339D01*
X266484271Y-122530482D02*
X266484271Y-122340006D01*
X266531891Y-122244768D01*
X266579510Y-122197149D01*
X266722367Y-122101911D01*
X266912843Y-122054292D01*
X267293795Y-122054292D01*
X267389033Y-122101911D01*
X267436652Y-122149530D01*
X267484271Y-122244768D01*
X267484271Y-122435244D01*
X267436652Y-122530482D01*
X267389033Y-122578101D01*
X267293795Y-122625720D01*
X267055700Y-122625720D01*
X266960462Y-122578101D01*
X266912843Y-122530482D01*
X266865224Y-122435244D01*
X266865224Y-122244768D01*
X266912843Y-122149530D01*
X266960462Y-122101911D01*
X267055700Y-122054292D01*
G04 #@! TO.C,D27*
X299085057Y-120097037D02*
X298085057Y-120097037D01*
X298085057Y-120335132D01*
X298132677Y-120477989D01*
X298227915Y-120573227D01*
X298323153Y-120620846D01*
X298513629Y-120668465D01*
X298656486Y-120668465D01*
X298846962Y-120620846D01*
X298942200Y-120573227D01*
X299037438Y-120477989D01*
X299085057Y-120335132D01*
X299085057Y-120097037D01*
X298180296Y-121049418D02*
X298132677Y-121097037D01*
X298085057Y-121192275D01*
X298085057Y-121430370D01*
X298132677Y-121525608D01*
X298180296Y-121573227D01*
X298275534Y-121620846D01*
X298370772Y-121620846D01*
X298513629Y-121573227D01*
X299085057Y-121001799D01*
X299085057Y-121620846D01*
X298085057Y-121954180D02*
X298085057Y-122620846D01*
X299085057Y-122192275D01*
G04 #@! TO.C,D28*
X305541696Y-120097037D02*
X304541696Y-120097037D01*
X304541696Y-120335132D01*
X304589316Y-120477989D01*
X304684554Y-120573227D01*
X304779792Y-120620846D01*
X304970268Y-120668465D01*
X305113125Y-120668465D01*
X305303601Y-120620846D01*
X305398839Y-120573227D01*
X305494077Y-120477989D01*
X305541696Y-120335132D01*
X305541696Y-120097037D01*
X304636935Y-121049418D02*
X304589316Y-121097037D01*
X304541696Y-121192275D01*
X304541696Y-121430370D01*
X304589316Y-121525608D01*
X304636935Y-121573227D01*
X304732173Y-121620846D01*
X304827411Y-121620846D01*
X304970268Y-121573227D01*
X305541696Y-121001799D01*
X305541696Y-121620846D01*
X304970268Y-122192275D02*
X304922649Y-122097037D01*
X304875030Y-122049418D01*
X304779792Y-122001799D01*
X304732173Y-122001799D01*
X304636935Y-122049418D01*
X304589316Y-122097037D01*
X304541696Y-122192275D01*
X304541696Y-122382751D01*
X304589316Y-122477989D01*
X304636935Y-122525608D01*
X304732173Y-122573227D01*
X304779792Y-122573227D01*
X304875030Y-122525608D01*
X304922649Y-122477989D01*
X304970268Y-122382751D01*
X304970268Y-122192275D01*
X305017887Y-122097037D01*
X305065506Y-122049418D01*
X305160744Y-122001799D01*
X305351220Y-122001799D01*
X305446458Y-122049418D01*
X305494077Y-122097037D01*
X305541696Y-122192275D01*
X305541696Y-122382751D01*
X305494077Y-122477989D01*
X305446458Y-122525608D01*
X305351220Y-122573227D01*
X305160744Y-122573227D01*
X305065506Y-122525608D01*
X305017887Y-122477989D01*
X304970268Y-122382751D01*
G04 #@! TO.C,D29*
X328591389Y-122511715D02*
X327591389Y-122511715D01*
X327591389Y-122749810D01*
X327639009Y-122892667D01*
X327734247Y-122987905D01*
X327829485Y-123035524D01*
X328019961Y-123083143D01*
X328162818Y-123083143D01*
X328353294Y-123035524D01*
X328448532Y-122987905D01*
X328543770Y-122892667D01*
X328591389Y-122749810D01*
X328591389Y-122511715D01*
X327686628Y-123464096D02*
X327639009Y-123511715D01*
X327591389Y-123606953D01*
X327591389Y-123845048D01*
X327639009Y-123940286D01*
X327686628Y-123987905D01*
X327781866Y-124035524D01*
X327877104Y-124035524D01*
X328019961Y-123987905D01*
X328591389Y-123416477D01*
X328591389Y-124035524D01*
X328591389Y-124511715D02*
X328591389Y-124702191D01*
X328543770Y-124797429D01*
X328496151Y-124845048D01*
X328353294Y-124940286D01*
X328162818Y-124987905D01*
X327781866Y-124987905D01*
X327686628Y-124940286D01*
X327639009Y-124892667D01*
X327591389Y-124797429D01*
X327591389Y-124606953D01*
X327639009Y-124511715D01*
X327686628Y-124464096D01*
X327781866Y-124416477D01*
X328019961Y-124416477D01*
X328115199Y-124464096D01*
X328162818Y-124511715D01*
X328210437Y-124606953D01*
X328210437Y-124797429D01*
X328162818Y-124892667D01*
X328115199Y-124940286D01*
X328019961Y-124987905D01*
G04 #@! TO.C,D30*
X352790662Y-122616701D02*
X351790662Y-122616701D01*
X351790662Y-122854796D01*
X351838282Y-122997653D01*
X351933520Y-123092891D01*
X352028758Y-123140510D01*
X352219234Y-123188129D01*
X352362091Y-123188129D01*
X352552567Y-123140510D01*
X352647805Y-123092891D01*
X352743043Y-122997653D01*
X352790662Y-122854796D01*
X352790662Y-122616701D01*
X351790662Y-123521463D02*
X351790662Y-124140510D01*
X352171615Y-123807177D01*
X352171615Y-123950034D01*
X352219234Y-124045272D01*
X352266853Y-124092891D01*
X352362091Y-124140510D01*
X352600186Y-124140510D01*
X352695424Y-124092891D01*
X352743043Y-124045272D01*
X352790662Y-123950034D01*
X352790662Y-123664320D01*
X352743043Y-123569082D01*
X352695424Y-123521463D01*
X351790662Y-124759558D02*
X351790662Y-124854796D01*
X351838282Y-124950034D01*
X351885901Y-124997653D01*
X351981139Y-125045272D01*
X352171615Y-125092891D01*
X352409710Y-125092891D01*
X352600186Y-125045272D01*
X352695424Y-124997653D01*
X352743043Y-124950034D01*
X352790662Y-124854796D01*
X352790662Y-124759558D01*
X352743043Y-124664320D01*
X352695424Y-124616701D01*
X352600186Y-124569082D01*
X352409710Y-124521463D01*
X352171615Y-124521463D01*
X351981139Y-124569082D01*
X351885901Y-124616701D01*
X351838282Y-124664320D01*
X351790662Y-124759558D01*
G04 #@! TO.C,D31*
X79366546Y-146618223D02*
X78366546Y-146618223D01*
X78366546Y-146856318D01*
X78414166Y-146999175D01*
X78509404Y-147094413D01*
X78604642Y-147142032D01*
X78795118Y-147189651D01*
X78937975Y-147189651D01*
X79128451Y-147142032D01*
X79223689Y-147094413D01*
X79318927Y-146999175D01*
X79366546Y-146856318D01*
X79366546Y-146618223D01*
X78366546Y-147522985D02*
X78366546Y-148142032D01*
X78747499Y-147808699D01*
X78747499Y-147951556D01*
X78795118Y-148046794D01*
X78842737Y-148094413D01*
X78937975Y-148142032D01*
X79176070Y-148142032D01*
X79271308Y-148094413D01*
X79318927Y-148046794D01*
X79366546Y-147951556D01*
X79366546Y-147665842D01*
X79318927Y-147570604D01*
X79271308Y-147522985D01*
X79366546Y-149094413D02*
X79366546Y-148522985D01*
X79366546Y-148808699D02*
X78366546Y-148808699D01*
X78509404Y-148713461D01*
X78604642Y-148618223D01*
X78652261Y-148522985D01*
G04 #@! TO.C,D32*
X105863590Y-146553509D02*
X104863590Y-146553509D01*
X104863590Y-146791604D01*
X104911210Y-146934461D01*
X105006448Y-147029699D01*
X105101686Y-147077318D01*
X105292162Y-147124937D01*
X105435019Y-147124937D01*
X105625495Y-147077318D01*
X105720733Y-147029699D01*
X105815971Y-146934461D01*
X105863590Y-146791604D01*
X105863590Y-146553509D01*
X104863590Y-147458271D02*
X104863590Y-148077318D01*
X105244543Y-147743985D01*
X105244543Y-147886842D01*
X105292162Y-147982080D01*
X105339781Y-148029699D01*
X105435019Y-148077318D01*
X105673114Y-148077318D01*
X105768352Y-148029699D01*
X105815971Y-147982080D01*
X105863590Y-147886842D01*
X105863590Y-147601128D01*
X105815971Y-147505890D01*
X105768352Y-147458271D01*
X104958829Y-148458271D02*
X104911210Y-148505890D01*
X104863590Y-148601128D01*
X104863590Y-148839223D01*
X104911210Y-148934461D01*
X104958829Y-148982080D01*
X105054067Y-149029699D01*
X105149305Y-149029699D01*
X105292162Y-148982080D01*
X105863590Y-148410652D01*
X105863590Y-149029699D01*
G04 #@! TO.C,D33*
X125086546Y-146618223D02*
X124086546Y-146618223D01*
X124086546Y-146856318D01*
X124134166Y-146999175D01*
X124229404Y-147094413D01*
X124324642Y-147142032D01*
X124515118Y-147189651D01*
X124657975Y-147189651D01*
X124848451Y-147142032D01*
X124943689Y-147094413D01*
X125038927Y-146999175D01*
X125086546Y-146856318D01*
X125086546Y-146618223D01*
X124086546Y-147522985D02*
X124086546Y-148142032D01*
X124467499Y-147808699D01*
X124467499Y-147951556D01*
X124515118Y-148046794D01*
X124562737Y-148094413D01*
X124657975Y-148142032D01*
X124896070Y-148142032D01*
X124991308Y-148094413D01*
X125038927Y-148046794D01*
X125086546Y-147951556D01*
X125086546Y-147665842D01*
X125038927Y-147570604D01*
X124991308Y-147522985D01*
X124086546Y-148475366D02*
X124086546Y-149094413D01*
X124467499Y-148761080D01*
X124467499Y-148903937D01*
X124515118Y-148999175D01*
X124562737Y-149046794D01*
X124657975Y-149094413D01*
X124896070Y-149094413D01*
X124991308Y-149046794D01*
X125038927Y-148999175D01*
X125086546Y-148903937D01*
X125086546Y-148618223D01*
X125038927Y-148522985D01*
X124991308Y-148475366D01*
G04 #@! TO.C,D34*
X143882546Y-146618223D02*
X142882546Y-146618223D01*
X142882546Y-146856318D01*
X142930166Y-146999175D01*
X143025404Y-147094413D01*
X143120642Y-147142032D01*
X143311118Y-147189651D01*
X143453975Y-147189651D01*
X143644451Y-147142032D01*
X143739689Y-147094413D01*
X143834927Y-146999175D01*
X143882546Y-146856318D01*
X143882546Y-146618223D01*
X142882546Y-147522985D02*
X142882546Y-148142032D01*
X143263499Y-147808699D01*
X143263499Y-147951556D01*
X143311118Y-148046794D01*
X143358737Y-148094413D01*
X143453975Y-148142032D01*
X143692070Y-148142032D01*
X143787308Y-148094413D01*
X143834927Y-148046794D01*
X143882546Y-147951556D01*
X143882546Y-147665842D01*
X143834927Y-147570604D01*
X143787308Y-147522985D01*
X143215880Y-148999175D02*
X143882546Y-148999175D01*
X142834927Y-148761080D02*
X143549213Y-148522985D01*
X143549213Y-149142032D01*
G04 #@! TO.C,D35*
X163186546Y-146618223D02*
X162186546Y-146618223D01*
X162186546Y-146856318D01*
X162234166Y-146999175D01*
X162329404Y-147094413D01*
X162424642Y-147142032D01*
X162615118Y-147189651D01*
X162757975Y-147189651D01*
X162948451Y-147142032D01*
X163043689Y-147094413D01*
X163138927Y-146999175D01*
X163186546Y-146856318D01*
X163186546Y-146618223D01*
X162186546Y-147522985D02*
X162186546Y-148142032D01*
X162567499Y-147808699D01*
X162567499Y-147951556D01*
X162615118Y-148046794D01*
X162662737Y-148094413D01*
X162757975Y-148142032D01*
X162996070Y-148142032D01*
X163091308Y-148094413D01*
X163138927Y-148046794D01*
X163186546Y-147951556D01*
X163186546Y-147665842D01*
X163138927Y-147570604D01*
X163091308Y-147522985D01*
X162186546Y-149046794D02*
X162186546Y-148570604D01*
X162662737Y-148522985D01*
X162615118Y-148570604D01*
X162567499Y-148665842D01*
X162567499Y-148903937D01*
X162615118Y-148999175D01*
X162662737Y-149046794D01*
X162757975Y-149094413D01*
X162996070Y-149094413D01*
X163091308Y-149046794D01*
X163138927Y-148999175D01*
X163186546Y-148903937D01*
X163186546Y-148665842D01*
X163138927Y-148570604D01*
X163091308Y-148522985D01*
G04 #@! TO.C,D36*
X181982546Y-146618223D02*
X180982546Y-146618223D01*
X180982546Y-146856318D01*
X181030166Y-146999175D01*
X181125404Y-147094413D01*
X181220642Y-147142032D01*
X181411118Y-147189651D01*
X181553975Y-147189651D01*
X181744451Y-147142032D01*
X181839689Y-147094413D01*
X181934927Y-146999175D01*
X181982546Y-146856318D01*
X181982546Y-146618223D01*
X180982546Y-147522985D02*
X180982546Y-148142032D01*
X181363499Y-147808699D01*
X181363499Y-147951556D01*
X181411118Y-148046794D01*
X181458737Y-148094413D01*
X181553975Y-148142032D01*
X181792070Y-148142032D01*
X181887308Y-148094413D01*
X181934927Y-148046794D01*
X181982546Y-147951556D01*
X181982546Y-147665842D01*
X181934927Y-147570604D01*
X181887308Y-147522985D01*
X180982546Y-148999175D02*
X180982546Y-148808699D01*
X181030166Y-148713461D01*
X181077785Y-148665842D01*
X181220642Y-148570604D01*
X181411118Y-148522985D01*
X181792070Y-148522985D01*
X181887308Y-148570604D01*
X181934927Y-148618223D01*
X181982546Y-148713461D01*
X181982546Y-148903937D01*
X181934927Y-148999175D01*
X181887308Y-149046794D01*
X181792070Y-149094413D01*
X181553975Y-149094413D01*
X181458737Y-149046794D01*
X181411118Y-148999175D01*
X181363499Y-148903937D01*
X181363499Y-148713461D01*
X181411118Y-148618223D01*
X181458737Y-148570604D01*
X181553975Y-148522985D01*
G04 #@! TO.C,D37*
X201032546Y-146618223D02*
X200032546Y-146618223D01*
X200032546Y-146856318D01*
X200080166Y-146999175D01*
X200175404Y-147094413D01*
X200270642Y-147142032D01*
X200461118Y-147189651D01*
X200603975Y-147189651D01*
X200794451Y-147142032D01*
X200889689Y-147094413D01*
X200984927Y-146999175D01*
X201032546Y-146856318D01*
X201032546Y-146618223D01*
X200032546Y-147522985D02*
X200032546Y-148142032D01*
X200413499Y-147808699D01*
X200413499Y-147951556D01*
X200461118Y-148046794D01*
X200508737Y-148094413D01*
X200603975Y-148142032D01*
X200842070Y-148142032D01*
X200937308Y-148094413D01*
X200984927Y-148046794D01*
X201032546Y-147951556D01*
X201032546Y-147665842D01*
X200984927Y-147570604D01*
X200937308Y-147522985D01*
X200032546Y-148475366D02*
X200032546Y-149142032D01*
X201032546Y-148713461D01*
G04 #@! TO.C,D38*
X220336546Y-146618223D02*
X219336546Y-146618223D01*
X219336546Y-146856318D01*
X219384166Y-146999175D01*
X219479404Y-147094413D01*
X219574642Y-147142032D01*
X219765118Y-147189651D01*
X219907975Y-147189651D01*
X220098451Y-147142032D01*
X220193689Y-147094413D01*
X220288927Y-146999175D01*
X220336546Y-146856318D01*
X220336546Y-146618223D01*
X219336546Y-147522985D02*
X219336546Y-148142032D01*
X219717499Y-147808699D01*
X219717499Y-147951556D01*
X219765118Y-148046794D01*
X219812737Y-148094413D01*
X219907975Y-148142032D01*
X220146070Y-148142032D01*
X220241308Y-148094413D01*
X220288927Y-148046794D01*
X220336546Y-147951556D01*
X220336546Y-147665842D01*
X220288927Y-147570604D01*
X220241308Y-147522985D01*
X219765118Y-148713461D02*
X219717499Y-148618223D01*
X219669880Y-148570604D01*
X219574642Y-148522985D01*
X219527023Y-148522985D01*
X219431785Y-148570604D01*
X219384166Y-148618223D01*
X219336546Y-148713461D01*
X219336546Y-148903937D01*
X219384166Y-148999175D01*
X219431785Y-149046794D01*
X219527023Y-149094413D01*
X219574642Y-149094413D01*
X219669880Y-149046794D01*
X219717499Y-148999175D01*
X219765118Y-148903937D01*
X219765118Y-148713461D01*
X219812737Y-148618223D01*
X219860356Y-148570604D01*
X219955594Y-148522985D01*
X220146070Y-148522985D01*
X220241308Y-148570604D01*
X220288927Y-148618223D01*
X220336546Y-148713461D01*
X220336546Y-148903937D01*
X220288927Y-148999175D01*
X220241308Y-149046794D01*
X220146070Y-149094413D01*
X219955594Y-149094413D01*
X219860356Y-149046794D01*
X219812737Y-148999175D01*
X219765118Y-148903937D01*
G04 #@! TO.C,D39*
X239386546Y-146618223D02*
X238386546Y-146618223D01*
X238386546Y-146856318D01*
X238434166Y-146999175D01*
X238529404Y-147094413D01*
X238624642Y-147142032D01*
X238815118Y-147189651D01*
X238957975Y-147189651D01*
X239148451Y-147142032D01*
X239243689Y-147094413D01*
X239338927Y-146999175D01*
X239386546Y-146856318D01*
X239386546Y-146618223D01*
X238386546Y-147522985D02*
X238386546Y-148142032D01*
X238767499Y-147808699D01*
X238767499Y-147951556D01*
X238815118Y-148046794D01*
X238862737Y-148094413D01*
X238957975Y-148142032D01*
X239196070Y-148142032D01*
X239291308Y-148094413D01*
X239338927Y-148046794D01*
X239386546Y-147951556D01*
X239386546Y-147665842D01*
X239338927Y-147570604D01*
X239291308Y-147522985D01*
X239386546Y-148618223D02*
X239386546Y-148808699D01*
X239338927Y-148903937D01*
X239291308Y-148951556D01*
X239148451Y-149046794D01*
X238957975Y-149094413D01*
X238577023Y-149094413D01*
X238481785Y-149046794D01*
X238434166Y-148999175D01*
X238386546Y-148903937D01*
X238386546Y-148713461D01*
X238434166Y-148618223D01*
X238481785Y-148570604D01*
X238577023Y-148522985D01*
X238815118Y-148522985D01*
X238910356Y-148570604D01*
X238957975Y-148618223D01*
X239005594Y-148713461D01*
X239005594Y-148903937D01*
X238957975Y-148999175D01*
X238910356Y-149046794D01*
X238815118Y-149094413D01*
G04 #@! TO.C,D40*
X258690546Y-146618223D02*
X257690546Y-146618223D01*
X257690546Y-146856318D01*
X257738166Y-146999175D01*
X257833404Y-147094413D01*
X257928642Y-147142032D01*
X258119118Y-147189651D01*
X258261975Y-147189651D01*
X258452451Y-147142032D01*
X258547689Y-147094413D01*
X258642927Y-146999175D01*
X258690546Y-146856318D01*
X258690546Y-146618223D01*
X258023880Y-148046794D02*
X258690546Y-148046794D01*
X257642927Y-147808699D02*
X258357213Y-147570604D01*
X258357213Y-148189651D01*
X257690546Y-148761080D02*
X257690546Y-148856318D01*
X257738166Y-148951556D01*
X257785785Y-148999175D01*
X257881023Y-149046794D01*
X258071499Y-149094413D01*
X258309594Y-149094413D01*
X258500070Y-149046794D01*
X258595308Y-148999175D01*
X258642927Y-148951556D01*
X258690546Y-148856318D01*
X258690546Y-148761080D01*
X258642927Y-148665842D01*
X258595308Y-148618223D01*
X258500070Y-148570604D01*
X258309594Y-148522985D01*
X258071499Y-148522985D01*
X257881023Y-148570604D01*
X257785785Y-148618223D01*
X257738166Y-148665842D01*
X257690546Y-148761080D01*
G04 #@! TO.C,D41*
X277232546Y-146618223D02*
X276232546Y-146618223D01*
X276232546Y-146856318D01*
X276280166Y-146999175D01*
X276375404Y-147094413D01*
X276470642Y-147142032D01*
X276661118Y-147189651D01*
X276803975Y-147189651D01*
X276994451Y-147142032D01*
X277089689Y-147094413D01*
X277184927Y-146999175D01*
X277232546Y-146856318D01*
X277232546Y-146618223D01*
X276565880Y-148046794D02*
X277232546Y-148046794D01*
X276184927Y-147808699D02*
X276899213Y-147570604D01*
X276899213Y-148189651D01*
X277232546Y-149094413D02*
X277232546Y-148522985D01*
X277232546Y-148808699D02*
X276232546Y-148808699D01*
X276375404Y-148713461D01*
X276470642Y-148618223D01*
X276518261Y-148522985D01*
G04 #@! TO.C,D42*
X296282546Y-146618223D02*
X295282546Y-146618223D01*
X295282546Y-146856318D01*
X295330166Y-146999175D01*
X295425404Y-147094413D01*
X295520642Y-147142032D01*
X295711118Y-147189651D01*
X295853975Y-147189651D01*
X296044451Y-147142032D01*
X296139689Y-147094413D01*
X296234927Y-146999175D01*
X296282546Y-146856318D01*
X296282546Y-146618223D01*
X295615880Y-148046794D02*
X296282546Y-148046794D01*
X295234927Y-147808699D02*
X295949213Y-147570604D01*
X295949213Y-148189651D01*
X295377785Y-148522985D02*
X295330166Y-148570604D01*
X295282546Y-148665842D01*
X295282546Y-148903937D01*
X295330166Y-148999175D01*
X295377785Y-149046794D01*
X295473023Y-149094413D01*
X295568261Y-149094413D01*
X295711118Y-149046794D01*
X296282546Y-148475366D01*
X296282546Y-149094413D01*
G04 #@! TO.C,D43*
X327270546Y-146618223D02*
X326270546Y-146618223D01*
X326270546Y-146856318D01*
X326318166Y-146999175D01*
X326413404Y-147094413D01*
X326508642Y-147142032D01*
X326699118Y-147189651D01*
X326841975Y-147189651D01*
X327032451Y-147142032D01*
X327127689Y-147094413D01*
X327222927Y-146999175D01*
X327270546Y-146856318D01*
X327270546Y-146618223D01*
X326603880Y-148046794D02*
X327270546Y-148046794D01*
X326222927Y-147808699D02*
X326937213Y-147570604D01*
X326937213Y-148189651D01*
X326270546Y-148475366D02*
X326270546Y-149094413D01*
X326651499Y-148761080D01*
X326651499Y-148903937D01*
X326699118Y-148999175D01*
X326746737Y-149046794D01*
X326841975Y-149094413D01*
X327080070Y-149094413D01*
X327175308Y-149046794D01*
X327222927Y-148999175D01*
X327270546Y-148903937D01*
X327270546Y-148618223D01*
X327222927Y-148522985D01*
X327175308Y-148475366D01*
G04 #@! TO.C,D44*
X358258546Y-146618223D02*
X357258546Y-146618223D01*
X357258546Y-146856318D01*
X357306166Y-146999175D01*
X357401404Y-147094413D01*
X357496642Y-147142032D01*
X357687118Y-147189651D01*
X357829975Y-147189651D01*
X358020451Y-147142032D01*
X358115689Y-147094413D01*
X358210927Y-146999175D01*
X358258546Y-146856318D01*
X358258546Y-146618223D01*
X357591880Y-148046794D02*
X358258546Y-148046794D01*
X357210927Y-147808699D02*
X357925213Y-147570604D01*
X357925213Y-148189651D01*
X357591880Y-148999175D02*
X358258546Y-148999175D01*
X357210927Y-148761080D02*
X357925213Y-148522985D01*
X357925213Y-149142032D01*
G04 #@! TO.C,D45*
X84192546Y-165668223D02*
X83192546Y-165668223D01*
X83192546Y-165906318D01*
X83240166Y-166049175D01*
X83335404Y-166144413D01*
X83430642Y-166192032D01*
X83621118Y-166239651D01*
X83763975Y-166239651D01*
X83954451Y-166192032D01*
X84049689Y-166144413D01*
X84144927Y-166049175D01*
X84192546Y-165906318D01*
X84192546Y-165668223D01*
X83525880Y-167096794D02*
X84192546Y-167096794D01*
X83144927Y-166858699D02*
X83859213Y-166620604D01*
X83859213Y-167239651D01*
X83192546Y-168096794D02*
X83192546Y-167620604D01*
X83668737Y-167572985D01*
X83621118Y-167620604D01*
X83573499Y-167715842D01*
X83573499Y-167953937D01*
X83621118Y-168049175D01*
X83668737Y-168096794D01*
X83763975Y-168144413D01*
X84002070Y-168144413D01*
X84097308Y-168096794D01*
X84144927Y-168049175D01*
X84192546Y-167953937D01*
X84192546Y-167715842D01*
X84144927Y-167620604D01*
X84097308Y-167572985D01*
G04 #@! TO.C,D46*
X115434546Y-165668223D02*
X114434546Y-165668223D01*
X114434546Y-165906318D01*
X114482166Y-166049175D01*
X114577404Y-166144413D01*
X114672642Y-166192032D01*
X114863118Y-166239651D01*
X115005975Y-166239651D01*
X115196451Y-166192032D01*
X115291689Y-166144413D01*
X115386927Y-166049175D01*
X115434546Y-165906318D01*
X115434546Y-165668223D01*
X114767880Y-167096794D02*
X115434546Y-167096794D01*
X114386927Y-166858699D02*
X115101213Y-166620604D01*
X115101213Y-167239651D01*
X114434546Y-168049175D02*
X114434546Y-167858699D01*
X114482166Y-167763461D01*
X114529785Y-167715842D01*
X114672642Y-167620604D01*
X114863118Y-167572985D01*
X115244070Y-167572985D01*
X115339308Y-167620604D01*
X115386927Y-167668223D01*
X115434546Y-167763461D01*
X115434546Y-167953937D01*
X115386927Y-168049175D01*
X115339308Y-168096794D01*
X115244070Y-168144413D01*
X115005975Y-168144413D01*
X114910737Y-168096794D01*
X114863118Y-168049175D01*
X114815499Y-167953937D01*
X114815499Y-167763461D01*
X114863118Y-167668223D01*
X114910737Y-167620604D01*
X115005975Y-167572985D01*
G04 #@! TO.C,D47*
X134484546Y-165668223D02*
X133484546Y-165668223D01*
X133484546Y-165906318D01*
X133532166Y-166049175D01*
X133627404Y-166144413D01*
X133722642Y-166192032D01*
X133913118Y-166239651D01*
X134055975Y-166239651D01*
X134246451Y-166192032D01*
X134341689Y-166144413D01*
X134436927Y-166049175D01*
X134484546Y-165906318D01*
X134484546Y-165668223D01*
X133817880Y-167096794D02*
X134484546Y-167096794D01*
X133436927Y-166858699D02*
X134151213Y-166620604D01*
X134151213Y-167239651D01*
X133484546Y-167525366D02*
X133484546Y-168192032D01*
X134484546Y-167763461D01*
G04 #@! TO.C,D48*
X153534546Y-165668223D02*
X152534546Y-165668223D01*
X152534546Y-165906318D01*
X152582166Y-166049175D01*
X152677404Y-166144413D01*
X152772642Y-166192032D01*
X152963118Y-166239651D01*
X153105975Y-166239651D01*
X153296451Y-166192032D01*
X153391689Y-166144413D01*
X153486927Y-166049175D01*
X153534546Y-165906318D01*
X153534546Y-165668223D01*
X152867880Y-167096794D02*
X153534546Y-167096794D01*
X152486927Y-166858699D02*
X153201213Y-166620604D01*
X153201213Y-167239651D01*
X152963118Y-167763461D02*
X152915499Y-167668223D01*
X152867880Y-167620604D01*
X152772642Y-167572985D01*
X152725023Y-167572985D01*
X152629785Y-167620604D01*
X152582166Y-167668223D01*
X152534546Y-167763461D01*
X152534546Y-167953937D01*
X152582166Y-168049175D01*
X152629785Y-168096794D01*
X152725023Y-168144413D01*
X152772642Y-168144413D01*
X152867880Y-168096794D01*
X152915499Y-168049175D01*
X152963118Y-167953937D01*
X152963118Y-167763461D01*
X153010737Y-167668223D01*
X153058356Y-167620604D01*
X153153594Y-167572985D01*
X153344070Y-167572985D01*
X153439308Y-167620604D01*
X153486927Y-167668223D01*
X153534546Y-167763461D01*
X153534546Y-167953937D01*
X153486927Y-168049175D01*
X153439308Y-168096794D01*
X153344070Y-168144413D01*
X153153594Y-168144413D01*
X153058356Y-168096794D01*
X153010737Y-168049175D01*
X152963118Y-167953937D01*
G04 #@! TO.C,D49*
X172584546Y-165668223D02*
X171584546Y-165668223D01*
X171584546Y-165906318D01*
X171632166Y-166049175D01*
X171727404Y-166144413D01*
X171822642Y-166192032D01*
X172013118Y-166239651D01*
X172155975Y-166239651D01*
X172346451Y-166192032D01*
X172441689Y-166144413D01*
X172536927Y-166049175D01*
X172584546Y-165906318D01*
X172584546Y-165668223D01*
X171917880Y-167096794D02*
X172584546Y-167096794D01*
X171536927Y-166858699D02*
X172251213Y-166620604D01*
X172251213Y-167239651D01*
X172584546Y-167668223D02*
X172584546Y-167858699D01*
X172536927Y-167953937D01*
X172489308Y-168001556D01*
X172346451Y-168096794D01*
X172155975Y-168144413D01*
X171775023Y-168144413D01*
X171679785Y-168096794D01*
X171632166Y-168049175D01*
X171584546Y-167953937D01*
X171584546Y-167763461D01*
X171632166Y-167668223D01*
X171679785Y-167620604D01*
X171775023Y-167572985D01*
X172013118Y-167572985D01*
X172108356Y-167620604D01*
X172155975Y-167668223D01*
X172203594Y-167763461D01*
X172203594Y-167953937D01*
X172155975Y-168049175D01*
X172108356Y-168096794D01*
X172013118Y-168144413D01*
G04 #@! TO.C,D50*
X191380546Y-165668223D02*
X190380546Y-165668223D01*
X190380546Y-165906318D01*
X190428166Y-166049175D01*
X190523404Y-166144413D01*
X190618642Y-166192032D01*
X190809118Y-166239651D01*
X190951975Y-166239651D01*
X191142451Y-166192032D01*
X191237689Y-166144413D01*
X191332927Y-166049175D01*
X191380546Y-165906318D01*
X191380546Y-165668223D01*
X190380546Y-167144413D02*
X190380546Y-166668223D01*
X190856737Y-166620604D01*
X190809118Y-166668223D01*
X190761499Y-166763461D01*
X190761499Y-167001556D01*
X190809118Y-167096794D01*
X190856737Y-167144413D01*
X190951975Y-167192032D01*
X191190070Y-167192032D01*
X191285308Y-167144413D01*
X191332927Y-167096794D01*
X191380546Y-167001556D01*
X191380546Y-166763461D01*
X191332927Y-166668223D01*
X191285308Y-166620604D01*
X190380546Y-167811080D02*
X190380546Y-167906318D01*
X190428166Y-168001556D01*
X190475785Y-168049175D01*
X190571023Y-168096794D01*
X190761499Y-168144413D01*
X190999594Y-168144413D01*
X191190070Y-168096794D01*
X191285308Y-168049175D01*
X191332927Y-168001556D01*
X191380546Y-167906318D01*
X191380546Y-167811080D01*
X191332927Y-167715842D01*
X191285308Y-167668223D01*
X191190070Y-167620604D01*
X190999594Y-167572985D01*
X190761499Y-167572985D01*
X190571023Y-167620604D01*
X190475785Y-167668223D01*
X190428166Y-167715842D01*
X190380546Y-167811080D01*
G04 #@! TO.C,D51*
X210684546Y-165668223D02*
X209684546Y-165668223D01*
X209684546Y-165906318D01*
X209732166Y-166049175D01*
X209827404Y-166144413D01*
X209922642Y-166192032D01*
X210113118Y-166239651D01*
X210255975Y-166239651D01*
X210446451Y-166192032D01*
X210541689Y-166144413D01*
X210636927Y-166049175D01*
X210684546Y-165906318D01*
X210684546Y-165668223D01*
X209684546Y-167144413D02*
X209684546Y-166668223D01*
X210160737Y-166620604D01*
X210113118Y-166668223D01*
X210065499Y-166763461D01*
X210065499Y-167001556D01*
X210113118Y-167096794D01*
X210160737Y-167144413D01*
X210255975Y-167192032D01*
X210494070Y-167192032D01*
X210589308Y-167144413D01*
X210636927Y-167096794D01*
X210684546Y-167001556D01*
X210684546Y-166763461D01*
X210636927Y-166668223D01*
X210589308Y-166620604D01*
X210684546Y-168144413D02*
X210684546Y-167572985D01*
X210684546Y-167858699D02*
X209684546Y-167858699D01*
X209827404Y-167763461D01*
X209922642Y-167668223D01*
X209970261Y-167572985D01*
G04 #@! TO.C,D52*
X229988546Y-165668223D02*
X228988546Y-165668223D01*
X228988546Y-165906318D01*
X229036166Y-166049175D01*
X229131404Y-166144413D01*
X229226642Y-166192032D01*
X229417118Y-166239651D01*
X229559975Y-166239651D01*
X229750451Y-166192032D01*
X229845689Y-166144413D01*
X229940927Y-166049175D01*
X229988546Y-165906318D01*
X229988546Y-165668223D01*
X228988546Y-167144413D02*
X228988546Y-166668223D01*
X229464737Y-166620604D01*
X229417118Y-166668223D01*
X229369499Y-166763461D01*
X229369499Y-167001556D01*
X229417118Y-167096794D01*
X229464737Y-167144413D01*
X229559975Y-167192032D01*
X229798070Y-167192032D01*
X229893308Y-167144413D01*
X229940927Y-167096794D01*
X229988546Y-167001556D01*
X229988546Y-166763461D01*
X229940927Y-166668223D01*
X229893308Y-166620604D01*
X229083785Y-167572985D02*
X229036166Y-167620604D01*
X228988546Y-167715842D01*
X228988546Y-167953937D01*
X229036166Y-168049175D01*
X229083785Y-168096794D01*
X229179023Y-168144413D01*
X229274261Y-168144413D01*
X229417118Y-168096794D01*
X229988546Y-167525366D01*
X229988546Y-168144413D01*
G04 #@! TO.C,D53*
X248784546Y-165668223D02*
X247784546Y-165668223D01*
X247784546Y-165906318D01*
X247832166Y-166049175D01*
X247927404Y-166144413D01*
X248022642Y-166192032D01*
X248213118Y-166239651D01*
X248355975Y-166239651D01*
X248546451Y-166192032D01*
X248641689Y-166144413D01*
X248736927Y-166049175D01*
X248784546Y-165906318D01*
X248784546Y-165668223D01*
X247784546Y-167144413D02*
X247784546Y-166668223D01*
X248260737Y-166620604D01*
X248213118Y-166668223D01*
X248165499Y-166763461D01*
X248165499Y-167001556D01*
X248213118Y-167096794D01*
X248260737Y-167144413D01*
X248355975Y-167192032D01*
X248594070Y-167192032D01*
X248689308Y-167144413D01*
X248736927Y-167096794D01*
X248784546Y-167001556D01*
X248784546Y-166763461D01*
X248736927Y-166668223D01*
X248689308Y-166620604D01*
X247784546Y-167525366D02*
X247784546Y-168144413D01*
X248165499Y-167811080D01*
X248165499Y-167953937D01*
X248213118Y-168049175D01*
X248260737Y-168096794D01*
X248355975Y-168144413D01*
X248594070Y-168144413D01*
X248689308Y-168096794D01*
X248736927Y-168049175D01*
X248784546Y-167953937D01*
X248784546Y-167668223D01*
X248736927Y-167572985D01*
X248689308Y-167525366D01*
G04 #@! TO.C,D54*
X267834546Y-165668223D02*
X266834546Y-165668223D01*
X266834546Y-165906318D01*
X266882166Y-166049175D01*
X266977404Y-166144413D01*
X267072642Y-166192032D01*
X267263118Y-166239651D01*
X267405975Y-166239651D01*
X267596451Y-166192032D01*
X267691689Y-166144413D01*
X267786927Y-166049175D01*
X267834546Y-165906318D01*
X267834546Y-165668223D01*
X266834546Y-167144413D02*
X266834546Y-166668223D01*
X267310737Y-166620604D01*
X267263118Y-166668223D01*
X267215499Y-166763461D01*
X267215499Y-167001556D01*
X267263118Y-167096794D01*
X267310737Y-167144413D01*
X267405975Y-167192032D01*
X267644070Y-167192032D01*
X267739308Y-167144413D01*
X267786927Y-167096794D01*
X267834546Y-167001556D01*
X267834546Y-166763461D01*
X267786927Y-166668223D01*
X267739308Y-166620604D01*
X267167880Y-168049175D02*
X267834546Y-168049175D01*
X266786927Y-167811080D02*
X267501213Y-167572985D01*
X267501213Y-168192032D01*
G04 #@! TO.C,D55*
X286884546Y-165668223D02*
X285884546Y-165668223D01*
X285884546Y-165906318D01*
X285932166Y-166049175D01*
X286027404Y-166144413D01*
X286122642Y-166192032D01*
X286313118Y-166239651D01*
X286455975Y-166239651D01*
X286646451Y-166192032D01*
X286741689Y-166144413D01*
X286836927Y-166049175D01*
X286884546Y-165906318D01*
X286884546Y-165668223D01*
X285884546Y-167144413D02*
X285884546Y-166668223D01*
X286360737Y-166620604D01*
X286313118Y-166668223D01*
X286265499Y-166763461D01*
X286265499Y-167001556D01*
X286313118Y-167096794D01*
X286360737Y-167144413D01*
X286455975Y-167192032D01*
X286694070Y-167192032D01*
X286789308Y-167144413D01*
X286836927Y-167096794D01*
X286884546Y-167001556D01*
X286884546Y-166763461D01*
X286836927Y-166668223D01*
X286789308Y-166620604D01*
X285884546Y-168096794D02*
X285884546Y-167620604D01*
X286360737Y-167572985D01*
X286313118Y-167620604D01*
X286265499Y-167715842D01*
X286265499Y-167953937D01*
X286313118Y-168049175D01*
X286360737Y-168096794D01*
X286455975Y-168144413D01*
X286694070Y-168144413D01*
X286789308Y-168096794D01*
X286836927Y-168049175D01*
X286884546Y-167953937D01*
X286884546Y-167715842D01*
X286836927Y-167620604D01*
X286789308Y-167572985D01*
G04 #@! TO.C,D56*
X312792546Y-165668223D02*
X311792546Y-165668223D01*
X311792546Y-165906318D01*
X311840166Y-166049175D01*
X311935404Y-166144413D01*
X312030642Y-166192032D01*
X312221118Y-166239651D01*
X312363975Y-166239651D01*
X312554451Y-166192032D01*
X312649689Y-166144413D01*
X312744927Y-166049175D01*
X312792546Y-165906318D01*
X312792546Y-165668223D01*
X311792546Y-167144413D02*
X311792546Y-166668223D01*
X312268737Y-166620604D01*
X312221118Y-166668223D01*
X312173499Y-166763461D01*
X312173499Y-167001556D01*
X312221118Y-167096794D01*
X312268737Y-167144413D01*
X312363975Y-167192032D01*
X312602070Y-167192032D01*
X312697308Y-167144413D01*
X312744927Y-167096794D01*
X312792546Y-167001556D01*
X312792546Y-166763461D01*
X312744927Y-166668223D01*
X312697308Y-166620604D01*
X311792546Y-168049175D02*
X311792546Y-167858699D01*
X311840166Y-167763461D01*
X311887785Y-167715842D01*
X312030642Y-167620604D01*
X312221118Y-167572985D01*
X312602070Y-167572985D01*
X312697308Y-167620604D01*
X312744927Y-167668223D01*
X312792546Y-167763461D01*
X312792546Y-167953937D01*
X312744927Y-168049175D01*
X312697308Y-168096794D01*
X312602070Y-168144413D01*
X312363975Y-168144413D01*
X312268737Y-168096794D01*
X312221118Y-168049175D01*
X312173499Y-167953937D01*
X312173499Y-167763461D01*
X312221118Y-167668223D01*
X312268737Y-167620604D01*
X312363975Y-167572985D01*
G04 #@! TO.C,D57*
X339208546Y-165668223D02*
X338208546Y-165668223D01*
X338208546Y-165906318D01*
X338256166Y-166049175D01*
X338351404Y-166144413D01*
X338446642Y-166192032D01*
X338637118Y-166239651D01*
X338779975Y-166239651D01*
X338970451Y-166192032D01*
X339065689Y-166144413D01*
X339160927Y-166049175D01*
X339208546Y-165906318D01*
X339208546Y-165668223D01*
X338208546Y-167144413D02*
X338208546Y-166668223D01*
X338684737Y-166620604D01*
X338637118Y-166668223D01*
X338589499Y-166763461D01*
X338589499Y-167001556D01*
X338637118Y-167096794D01*
X338684737Y-167144413D01*
X338779975Y-167192032D01*
X339018070Y-167192032D01*
X339113308Y-167144413D01*
X339160927Y-167096794D01*
X339208546Y-167001556D01*
X339208546Y-166763461D01*
X339160927Y-166668223D01*
X339113308Y-166620604D01*
X338208546Y-167525366D02*
X338208546Y-168192032D01*
X339208546Y-167763461D01*
G04 #@! TO.C,D58*
X358258546Y-165668223D02*
X357258546Y-165668223D01*
X357258546Y-165906318D01*
X357306166Y-166049175D01*
X357401404Y-166144413D01*
X357496642Y-166192032D01*
X357687118Y-166239651D01*
X357829975Y-166239651D01*
X358020451Y-166192032D01*
X358115689Y-166144413D01*
X358210927Y-166049175D01*
X358258546Y-165906318D01*
X358258546Y-165668223D01*
X357258546Y-167144413D02*
X357258546Y-166668223D01*
X357734737Y-166620604D01*
X357687118Y-166668223D01*
X357639499Y-166763461D01*
X357639499Y-167001556D01*
X357687118Y-167096794D01*
X357734737Y-167144413D01*
X357829975Y-167192032D01*
X358068070Y-167192032D01*
X358163308Y-167144413D01*
X358210927Y-167096794D01*
X358258546Y-167001556D01*
X358258546Y-166763461D01*
X358210927Y-166668223D01*
X358163308Y-166620604D01*
X357687118Y-167763461D02*
X357639499Y-167668223D01*
X357591880Y-167620604D01*
X357496642Y-167572985D01*
X357449023Y-167572985D01*
X357353785Y-167620604D01*
X357306166Y-167668223D01*
X357258546Y-167763461D01*
X357258546Y-167953937D01*
X357306166Y-168049175D01*
X357353785Y-168096794D01*
X357449023Y-168144413D01*
X357496642Y-168144413D01*
X357591880Y-168096794D01*
X357639499Y-168049175D01*
X357687118Y-167953937D01*
X357687118Y-167763461D01*
X357734737Y-167668223D01*
X357782356Y-167620604D01*
X357877594Y-167572985D01*
X358068070Y-167572985D01*
X358163308Y-167620604D01*
X358210927Y-167668223D01*
X358258546Y-167763461D01*
X358258546Y-167953937D01*
X358210927Y-168049175D01*
X358163308Y-168096794D01*
X358068070Y-168144413D01*
X357877594Y-168144413D01*
X357782356Y-168096794D01*
X357734737Y-168049175D01*
X357687118Y-167953937D01*
G04 #@! TO.C,D59*
X74794546Y-184464223D02*
X73794546Y-184464223D01*
X73794546Y-184702318D01*
X73842166Y-184845175D01*
X73937404Y-184940413D01*
X74032642Y-184988032D01*
X74223118Y-185035651D01*
X74365975Y-185035651D01*
X74556451Y-184988032D01*
X74651689Y-184940413D01*
X74746927Y-184845175D01*
X74794546Y-184702318D01*
X74794546Y-184464223D01*
X73794546Y-185940413D02*
X73794546Y-185464223D01*
X74270737Y-185416604D01*
X74223118Y-185464223D01*
X74175499Y-185559461D01*
X74175499Y-185797556D01*
X74223118Y-185892794D01*
X74270737Y-185940413D01*
X74365975Y-185988032D01*
X74604070Y-185988032D01*
X74699308Y-185940413D01*
X74746927Y-185892794D01*
X74794546Y-185797556D01*
X74794546Y-185559461D01*
X74746927Y-185464223D01*
X74699308Y-185416604D01*
X74794546Y-186464223D02*
X74794546Y-186654699D01*
X74746927Y-186749937D01*
X74699308Y-186797556D01*
X74556451Y-186892794D01*
X74365975Y-186940413D01*
X73985023Y-186940413D01*
X73889785Y-186892794D01*
X73842166Y-186845175D01*
X73794546Y-186749937D01*
X73794546Y-186559461D01*
X73842166Y-186464223D01*
X73889785Y-186416604D01*
X73985023Y-186368985D01*
X74223118Y-186368985D01*
X74318356Y-186416604D01*
X74365975Y-186464223D01*
X74413594Y-186559461D01*
X74413594Y-186749937D01*
X74365975Y-186845175D01*
X74318356Y-186892794D01*
X74223118Y-186940413D01*
G04 #@! TO.C,D60*
X98670546Y-184464223D02*
X97670546Y-184464223D01*
X97670546Y-184702318D01*
X97718166Y-184845175D01*
X97813404Y-184940413D01*
X97908642Y-184988032D01*
X98099118Y-185035651D01*
X98241975Y-185035651D01*
X98432451Y-184988032D01*
X98527689Y-184940413D01*
X98622927Y-184845175D01*
X98670546Y-184702318D01*
X98670546Y-184464223D01*
X97670546Y-185892794D02*
X97670546Y-185702318D01*
X97718166Y-185607080D01*
X97765785Y-185559461D01*
X97908642Y-185464223D01*
X98099118Y-185416604D01*
X98480070Y-185416604D01*
X98575308Y-185464223D01*
X98622927Y-185511842D01*
X98670546Y-185607080D01*
X98670546Y-185797556D01*
X98622927Y-185892794D01*
X98575308Y-185940413D01*
X98480070Y-185988032D01*
X98241975Y-185988032D01*
X98146737Y-185940413D01*
X98099118Y-185892794D01*
X98051499Y-185797556D01*
X98051499Y-185607080D01*
X98099118Y-185511842D01*
X98146737Y-185464223D01*
X98241975Y-185416604D01*
X97670546Y-186607080D02*
X97670546Y-186702318D01*
X97718166Y-186797556D01*
X97765785Y-186845175D01*
X97861023Y-186892794D01*
X98051499Y-186940413D01*
X98289594Y-186940413D01*
X98480070Y-186892794D01*
X98575308Y-186845175D01*
X98622927Y-186797556D01*
X98670546Y-186702318D01*
X98670546Y-186607080D01*
X98622927Y-186511842D01*
X98575308Y-186464223D01*
X98480070Y-186416604D01*
X98289594Y-186368985D01*
X98051499Y-186368985D01*
X97861023Y-186416604D01*
X97765785Y-186464223D01*
X97718166Y-186511842D01*
X97670546Y-186607080D01*
G04 #@! TO.C,D61*
X122546546Y-184464223D02*
X121546546Y-184464223D01*
X121546546Y-184702318D01*
X121594166Y-184845175D01*
X121689404Y-184940413D01*
X121784642Y-184988032D01*
X121975118Y-185035651D01*
X122117975Y-185035651D01*
X122308451Y-184988032D01*
X122403689Y-184940413D01*
X122498927Y-184845175D01*
X122546546Y-184702318D01*
X122546546Y-184464223D01*
X121546546Y-185892794D02*
X121546546Y-185702318D01*
X121594166Y-185607080D01*
X121641785Y-185559461D01*
X121784642Y-185464223D01*
X121975118Y-185416604D01*
X122356070Y-185416604D01*
X122451308Y-185464223D01*
X122498927Y-185511842D01*
X122546546Y-185607080D01*
X122546546Y-185797556D01*
X122498927Y-185892794D01*
X122451308Y-185940413D01*
X122356070Y-185988032D01*
X122117975Y-185988032D01*
X122022737Y-185940413D01*
X121975118Y-185892794D01*
X121927499Y-185797556D01*
X121927499Y-185607080D01*
X121975118Y-185511842D01*
X122022737Y-185464223D01*
X122117975Y-185416604D01*
X122546546Y-186940413D02*
X122546546Y-186368985D01*
X122546546Y-186654699D02*
X121546546Y-186654699D01*
X121689404Y-186559461D01*
X121784642Y-186464223D01*
X121832261Y-186368985D01*
G04 #@! TO.C,D62*
X193920546Y-184464223D02*
X192920546Y-184464223D01*
X192920546Y-184702318D01*
X192968166Y-184845175D01*
X193063404Y-184940413D01*
X193158642Y-184988032D01*
X193349118Y-185035651D01*
X193491975Y-185035651D01*
X193682451Y-184988032D01*
X193777689Y-184940413D01*
X193872927Y-184845175D01*
X193920546Y-184702318D01*
X193920546Y-184464223D01*
X192920546Y-185892794D02*
X192920546Y-185702318D01*
X192968166Y-185607080D01*
X193015785Y-185559461D01*
X193158642Y-185464223D01*
X193349118Y-185416604D01*
X193730070Y-185416604D01*
X193825308Y-185464223D01*
X193872927Y-185511842D01*
X193920546Y-185607080D01*
X193920546Y-185797556D01*
X193872927Y-185892794D01*
X193825308Y-185940413D01*
X193730070Y-185988032D01*
X193491975Y-185988032D01*
X193396737Y-185940413D01*
X193349118Y-185892794D01*
X193301499Y-185797556D01*
X193301499Y-185607080D01*
X193349118Y-185511842D01*
X193396737Y-185464223D01*
X193491975Y-185416604D01*
X193015785Y-186368985D02*
X192968166Y-186416604D01*
X192920546Y-186511842D01*
X192920546Y-186749937D01*
X192968166Y-186845175D01*
X193015785Y-186892794D01*
X193111023Y-186940413D01*
X193206261Y-186940413D01*
X193349118Y-186892794D01*
X193920546Y-186321366D01*
X193920546Y-186940413D01*
G04 #@! TO.C,D63*
X265294546Y-184464223D02*
X264294546Y-184464223D01*
X264294546Y-184702318D01*
X264342166Y-184845175D01*
X264437404Y-184940413D01*
X264532642Y-184988032D01*
X264723118Y-185035651D01*
X264865975Y-185035651D01*
X265056451Y-184988032D01*
X265151689Y-184940413D01*
X265246927Y-184845175D01*
X265294546Y-184702318D01*
X265294546Y-184464223D01*
X264294546Y-185892794D02*
X264294546Y-185702318D01*
X264342166Y-185607080D01*
X264389785Y-185559461D01*
X264532642Y-185464223D01*
X264723118Y-185416604D01*
X265104070Y-185416604D01*
X265199308Y-185464223D01*
X265246927Y-185511842D01*
X265294546Y-185607080D01*
X265294546Y-185797556D01*
X265246927Y-185892794D01*
X265199308Y-185940413D01*
X265104070Y-185988032D01*
X264865975Y-185988032D01*
X264770737Y-185940413D01*
X264723118Y-185892794D01*
X264675499Y-185797556D01*
X264675499Y-185607080D01*
X264723118Y-185511842D01*
X264770737Y-185464223D01*
X264865975Y-185416604D01*
X264294546Y-186321366D02*
X264294546Y-186940413D01*
X264675499Y-186607080D01*
X264675499Y-186749937D01*
X264723118Y-186845175D01*
X264770737Y-186892794D01*
X264865975Y-186940413D01*
X265104070Y-186940413D01*
X265199308Y-186892794D01*
X265246927Y-186845175D01*
X265294546Y-186749937D01*
X265294546Y-186464223D01*
X265246927Y-186368985D01*
X265199308Y-186321366D01*
G04 #@! TO.C,D64*
X288916546Y-184210223D02*
X287916546Y-184210223D01*
X287916546Y-184448318D01*
X287964166Y-184591175D01*
X288059404Y-184686413D01*
X288154642Y-184734032D01*
X288345118Y-184781651D01*
X288487975Y-184781651D01*
X288678451Y-184734032D01*
X288773689Y-184686413D01*
X288868927Y-184591175D01*
X288916546Y-184448318D01*
X288916546Y-184210223D01*
X287916546Y-185638794D02*
X287916546Y-185448318D01*
X287964166Y-185353080D01*
X288011785Y-185305461D01*
X288154642Y-185210223D01*
X288345118Y-185162604D01*
X288726070Y-185162604D01*
X288821308Y-185210223D01*
X288868927Y-185257842D01*
X288916546Y-185353080D01*
X288916546Y-185543556D01*
X288868927Y-185638794D01*
X288821308Y-185686413D01*
X288726070Y-185734032D01*
X288487975Y-185734032D01*
X288392737Y-185686413D01*
X288345118Y-185638794D01*
X288297499Y-185543556D01*
X288297499Y-185353080D01*
X288345118Y-185257842D01*
X288392737Y-185210223D01*
X288487975Y-185162604D01*
X288249880Y-186591175D02*
X288916546Y-186591175D01*
X287868927Y-186353080D02*
X288583213Y-186114985D01*
X288583213Y-186734032D01*
G04 #@! TO.C,D65*
X320158546Y-184464223D02*
X319158546Y-184464223D01*
X319158546Y-184702318D01*
X319206166Y-184845175D01*
X319301404Y-184940413D01*
X319396642Y-184988032D01*
X319587118Y-185035651D01*
X319729975Y-185035651D01*
X319920451Y-184988032D01*
X320015689Y-184940413D01*
X320110927Y-184845175D01*
X320158546Y-184702318D01*
X320158546Y-184464223D01*
X319158546Y-185892794D02*
X319158546Y-185702318D01*
X319206166Y-185607080D01*
X319253785Y-185559461D01*
X319396642Y-185464223D01*
X319587118Y-185416604D01*
X319968070Y-185416604D01*
X320063308Y-185464223D01*
X320110927Y-185511842D01*
X320158546Y-185607080D01*
X320158546Y-185797556D01*
X320110927Y-185892794D01*
X320063308Y-185940413D01*
X319968070Y-185988032D01*
X319729975Y-185988032D01*
X319634737Y-185940413D01*
X319587118Y-185892794D01*
X319539499Y-185797556D01*
X319539499Y-185607080D01*
X319587118Y-185511842D01*
X319634737Y-185464223D01*
X319729975Y-185416604D01*
X319158546Y-186892794D02*
X319158546Y-186416604D01*
X319634737Y-186368985D01*
X319587118Y-186416604D01*
X319539499Y-186511842D01*
X319539499Y-186749937D01*
X319587118Y-186845175D01*
X319634737Y-186892794D01*
X319729975Y-186940413D01*
X319968070Y-186940413D01*
X320063308Y-186892794D01*
X320110927Y-186845175D01*
X320158546Y-186749937D01*
X320158546Y-186511842D01*
X320110927Y-186416604D01*
X320063308Y-186368985D01*
G04 #@! TO.C,D66*
X339208546Y-184464223D02*
X338208546Y-184464223D01*
X338208546Y-184702318D01*
X338256166Y-184845175D01*
X338351404Y-184940413D01*
X338446642Y-184988032D01*
X338637118Y-185035651D01*
X338779975Y-185035651D01*
X338970451Y-184988032D01*
X339065689Y-184940413D01*
X339160927Y-184845175D01*
X339208546Y-184702318D01*
X339208546Y-184464223D01*
X338208546Y-185892794D02*
X338208546Y-185702318D01*
X338256166Y-185607080D01*
X338303785Y-185559461D01*
X338446642Y-185464223D01*
X338637118Y-185416604D01*
X339018070Y-185416604D01*
X339113308Y-185464223D01*
X339160927Y-185511842D01*
X339208546Y-185607080D01*
X339208546Y-185797556D01*
X339160927Y-185892794D01*
X339113308Y-185940413D01*
X339018070Y-185988032D01*
X338779975Y-185988032D01*
X338684737Y-185940413D01*
X338637118Y-185892794D01*
X338589499Y-185797556D01*
X338589499Y-185607080D01*
X338637118Y-185511842D01*
X338684737Y-185464223D01*
X338779975Y-185416604D01*
X338208546Y-186845175D02*
X338208546Y-186654699D01*
X338256166Y-186559461D01*
X338303785Y-186511842D01*
X338446642Y-186416604D01*
X338637118Y-186368985D01*
X339018070Y-186368985D01*
X339113308Y-186416604D01*
X339160927Y-186464223D01*
X339208546Y-186559461D01*
X339208546Y-186749937D01*
X339160927Y-186845175D01*
X339113308Y-186892794D01*
X339018070Y-186940413D01*
X338779975Y-186940413D01*
X338684737Y-186892794D01*
X338637118Y-186845175D01*
X338589499Y-186749937D01*
X338589499Y-186559461D01*
X338637118Y-186464223D01*
X338684737Y-186416604D01*
X338779975Y-186368985D01*
G04 #@! TO.C,D67*
X358258546Y-184464223D02*
X357258546Y-184464223D01*
X357258546Y-184702318D01*
X357306166Y-184845175D01*
X357401404Y-184940413D01*
X357496642Y-184988032D01*
X357687118Y-185035651D01*
X357829975Y-185035651D01*
X358020451Y-184988032D01*
X358115689Y-184940413D01*
X358210927Y-184845175D01*
X358258546Y-184702318D01*
X358258546Y-184464223D01*
X357258546Y-185892794D02*
X357258546Y-185702318D01*
X357306166Y-185607080D01*
X357353785Y-185559461D01*
X357496642Y-185464223D01*
X357687118Y-185416604D01*
X358068070Y-185416604D01*
X358163308Y-185464223D01*
X358210927Y-185511842D01*
X358258546Y-185607080D01*
X358258546Y-185797556D01*
X358210927Y-185892794D01*
X358163308Y-185940413D01*
X358068070Y-185988032D01*
X357829975Y-185988032D01*
X357734737Y-185940413D01*
X357687118Y-185892794D01*
X357639499Y-185797556D01*
X357639499Y-185607080D01*
X357687118Y-185511842D01*
X357734737Y-185464223D01*
X357829975Y-185416604D01*
X357258546Y-186321366D02*
X357258546Y-186988032D01*
X358258546Y-186559461D01*
G04 #@! TO.C,USB1*
X83942133Y-92102525D02*
X83942133Y-92912049D01*
X83894514Y-93007287D01*
X83846895Y-93054906D01*
X83751657Y-93102525D01*
X83561180Y-93102525D01*
X83465942Y-93054906D01*
X83418323Y-93007287D01*
X83370704Y-92912049D01*
X83370704Y-92102525D01*
X82942133Y-93054906D02*
X82799276Y-93102525D01*
X82561180Y-93102525D01*
X82465942Y-93054906D01*
X82418323Y-93007287D01*
X82370704Y-92912049D01*
X82370704Y-92816811D01*
X82418323Y-92721573D01*
X82465942Y-92673954D01*
X82561180Y-92626335D01*
X82751657Y-92578716D01*
X82846895Y-92531097D01*
X82894514Y-92483478D01*
X82942133Y-92388240D01*
X82942133Y-92293002D01*
X82894514Y-92197764D01*
X82846895Y-92150145D01*
X82751657Y-92102525D01*
X82513561Y-92102525D01*
X82370704Y-92150145D01*
X81608799Y-92578716D02*
X81465942Y-92626335D01*
X81418323Y-92673954D01*
X81370704Y-92769192D01*
X81370704Y-92912049D01*
X81418323Y-93007287D01*
X81465942Y-93054906D01*
X81561180Y-93102525D01*
X81942133Y-93102525D01*
X81942133Y-92102525D01*
X81608799Y-92102525D01*
X81513561Y-92150145D01*
X81465942Y-92197764D01*
X81418323Y-92293002D01*
X81418323Y-92388240D01*
X81465942Y-92483478D01*
X81513561Y-92531097D01*
X81608799Y-92578716D01*
X81942133Y-92578716D01*
X80418323Y-93102525D02*
X80989752Y-93102525D01*
X80704038Y-93102525D02*
X80704038Y-92102525D01*
X80799276Y-92245383D01*
X80894514Y-92340621D01*
X80989752Y-92388240D01*
G04 #@! TO.C,F1*
X80475970Y-108708353D02*
X80742637Y-108708353D01*
X80742637Y-109127400D02*
X80742637Y-108327400D01*
X80361684Y-108327400D01*
X79637875Y-109127400D02*
X80095018Y-109127400D01*
X79866446Y-109127400D02*
X79866446Y-108327400D01*
X79942637Y-108441686D01*
X80018827Y-108517876D01*
X80095018Y-108555972D01*
G04 #@! TO.C,R5*
X82222917Y-109127400D02*
X82489584Y-108746448D01*
X82680060Y-109127400D02*
X82680060Y-108327400D01*
X82375298Y-108327400D01*
X82299107Y-108365496D01*
X82261012Y-108403591D01*
X82222917Y-108479781D01*
X82222917Y-108594067D01*
X82261012Y-108670257D01*
X82299107Y-108708353D01*
X82375298Y-108746448D01*
X82680060Y-108746448D01*
X81499107Y-108327400D02*
X81880060Y-108327400D01*
X81918155Y-108708353D01*
X81880060Y-108670257D01*
X81803869Y-108632162D01*
X81613393Y-108632162D01*
X81537203Y-108670257D01*
X81499107Y-108708353D01*
X81461012Y-108784543D01*
X81461012Y-108975019D01*
X81499107Y-109051210D01*
X81537203Y-109089305D01*
X81613393Y-109127400D01*
X81803869Y-109127400D01*
X81880060Y-109089305D01*
X81918155Y-109051210D01*
G04 #@! TO.C,R6*
X84489584Y-109127400D02*
X84756251Y-108746448D01*
X84946727Y-109127400D02*
X84946727Y-108327400D01*
X84641965Y-108327400D01*
X84565774Y-108365496D01*
X84527679Y-108403591D01*
X84489584Y-108479781D01*
X84489584Y-108594067D01*
X84527679Y-108670257D01*
X84565774Y-108708353D01*
X84641965Y-108746448D01*
X84946727Y-108746448D01*
X83803870Y-108327400D02*
X83956251Y-108327400D01*
X84032441Y-108365496D01*
X84070536Y-108403591D01*
X84146727Y-108517876D01*
X84184822Y-108670257D01*
X84184822Y-108975019D01*
X84146727Y-109051210D01*
X84108631Y-109089305D01*
X84032441Y-109127400D01*
X83880060Y-109127400D01*
X83803870Y-109089305D01*
X83765774Y-109051210D01*
X83727679Y-108975019D01*
X83727679Y-108784543D01*
X83765774Y-108708353D01*
X83803870Y-108670257D01*
X83880060Y-108632162D01*
X84032441Y-108632162D01*
X84108631Y-108670257D01*
X84146727Y-108708353D01*
X84184822Y-108784543D01*
D10*
X84210928Y-109768409D02*
X84172833Y-109730314D01*
X84096643Y-109692218D01*
X83906166Y-109692218D01*
X83829976Y-109730314D01*
X83791881Y-109768409D01*
X83753785Y-109844599D01*
X83753785Y-109920790D01*
X83791881Y-110035075D01*
X84249024Y-110492218D01*
X83753785Y-110492218D01*
X83449024Y-109768409D02*
X83410928Y-109730314D01*
X83334738Y-109692218D01*
X83144262Y-109692218D01*
X83068071Y-109730314D01*
X83029976Y-109768409D01*
X82991881Y-109844599D01*
X82991881Y-109920790D01*
X83029976Y-110035075D01*
X83487119Y-110492218D01*
X82991881Y-110492218D01*
X82191881Y-110492218D02*
X82458547Y-110111266D01*
X82649024Y-110492218D02*
X82649024Y-109692218D01*
X82344262Y-109692218D01*
X82268071Y-109730314D01*
X82229976Y-109768409D01*
X82191881Y-109844599D01*
X82191881Y-109958885D01*
X82229976Y-110035075D01*
X82268071Y-110073171D01*
X82344262Y-110111266D01*
X82649024Y-110111266D01*
G04 #@! TO.C,C1*
D14*
X83649696Y-132043144D02*
X83687791Y-132081239D01*
X83802077Y-132119334D01*
X83878267Y-132119334D01*
X83992553Y-132081239D01*
X84068743Y-132005049D01*
X84106839Y-131928858D01*
X84144934Y-131776477D01*
X84144934Y-131662191D01*
X84106839Y-131509810D01*
X84068743Y-131433620D01*
X83992553Y-131357430D01*
X83878267Y-131319334D01*
X83802077Y-131319334D01*
X83687791Y-131357430D01*
X83649696Y-131395525D01*
X82887791Y-132119334D02*
X83344934Y-132119334D01*
X83116363Y-132119334D02*
X83116363Y-131319334D01*
X83192553Y-131433620D01*
X83268743Y-131509810D01*
X83344934Y-131547906D01*
X83597203Y-133221687D02*
X84054346Y-133221687D01*
X83825774Y-133221687D02*
X83825774Y-132421687D01*
X83901965Y-132535973D01*
X83978155Y-132612163D01*
X84054346Y-132650259D01*
X82911489Y-132688354D02*
X82911489Y-133221687D01*
X83254346Y-132688354D02*
X83254346Y-133107402D01*
X83216250Y-133183592D01*
X83140060Y-133221687D01*
X83025774Y-133221687D01*
X82949584Y-133183592D01*
X82911489Y-133145497D01*
G04 #@! TO.C,C2*
X89371433Y-122174460D02*
X89409528Y-122212555D01*
X89523814Y-122250650D01*
X89600004Y-122250650D01*
X89714290Y-122212555D01*
X89790480Y-122136365D01*
X89828576Y-122060174D01*
X89866671Y-121907793D01*
X89866671Y-121793507D01*
X89828576Y-121641126D01*
X89790480Y-121564936D01*
X89714290Y-121488746D01*
X89600004Y-121450650D01*
X89523814Y-121450650D01*
X89409528Y-121488746D01*
X89371433Y-121526841D01*
X89066671Y-121526841D02*
X89028576Y-121488746D01*
X88952385Y-121450650D01*
X88761909Y-121450650D01*
X88685719Y-121488746D01*
X88647623Y-121526841D01*
X88609528Y-121603031D01*
X88609528Y-121679222D01*
X88647623Y-121793507D01*
X89104766Y-122250650D01*
X88609528Y-122250650D01*
X90157035Y-122681687D02*
X90118940Y-122643592D01*
X90042749Y-122605496D01*
X89852273Y-122605496D01*
X89776083Y-122643592D01*
X89737987Y-122681687D01*
X89699892Y-122757877D01*
X89699892Y-122834068D01*
X89737987Y-122948353D01*
X90195130Y-123405496D01*
X89699892Y-123405496D01*
X89395130Y-122681687D02*
X89357035Y-122643592D01*
X89280845Y-122605496D01*
X89090368Y-122605496D01*
X89014178Y-122643592D01*
X88976083Y-122681687D01*
X88937987Y-122757877D01*
X88937987Y-122834068D01*
X88976083Y-122948353D01*
X89433226Y-123405496D01*
X88937987Y-123405496D01*
X88595130Y-122872163D02*
X88595130Y-123672163D01*
X88595130Y-122910258D02*
X88518940Y-122872163D01*
X88366559Y-122872163D01*
X88290368Y-122910258D01*
X88252273Y-122948353D01*
X88214178Y-123024544D01*
X88214178Y-123253115D01*
X88252273Y-123329306D01*
X88290368Y-123367401D01*
X88366559Y-123405496D01*
X88518940Y-123405496D01*
X88595130Y-123367401D01*
G04 #@! TO.C,C3*
X92206055Y-120074740D02*
X92244150Y-120112835D01*
X92358436Y-120150930D01*
X92434626Y-120150930D01*
X92548912Y-120112835D01*
X92625102Y-120036645D01*
X92663198Y-119960454D01*
X92701293Y-119808073D01*
X92701293Y-119693787D01*
X92663198Y-119541406D01*
X92625102Y-119465216D01*
X92548912Y-119389026D01*
X92434626Y-119350930D01*
X92358436Y-119350930D01*
X92244150Y-119389026D01*
X92206055Y-119427121D01*
X91939388Y-119350930D02*
X91444150Y-119350930D01*
X91710817Y-119655692D01*
X91596531Y-119655692D01*
X91520341Y-119693787D01*
X91482245Y-119731883D01*
X91444150Y-119808073D01*
X91444150Y-119998549D01*
X91482245Y-120074740D01*
X91520341Y-120112835D01*
X91596531Y-120150930D01*
X91825102Y-120150930D01*
X91901293Y-120112835D01*
X91939388Y-120074740D01*
X92939164Y-120476981D02*
X92901069Y-120438886D01*
X92824878Y-120400790D01*
X92634402Y-120400790D01*
X92558212Y-120438886D01*
X92520116Y-120476981D01*
X92482021Y-120553171D01*
X92482021Y-120629362D01*
X92520116Y-120743647D01*
X92977259Y-121200790D01*
X92482021Y-121200790D01*
X92177259Y-120476981D02*
X92139164Y-120438886D01*
X92062974Y-120400790D01*
X91872497Y-120400790D01*
X91796307Y-120438886D01*
X91758212Y-120476981D01*
X91720116Y-120553171D01*
X91720116Y-120629362D01*
X91758212Y-120743647D01*
X92215355Y-121200790D01*
X91720116Y-121200790D01*
X91377259Y-120667457D02*
X91377259Y-121467457D01*
X91377259Y-120705552D02*
X91301069Y-120667457D01*
X91148688Y-120667457D01*
X91072497Y-120705552D01*
X91034402Y-120743647D01*
X90996307Y-120819838D01*
X90996307Y-121048409D01*
X91034402Y-121124600D01*
X91072497Y-121162695D01*
X91148688Y-121200790D01*
X91301069Y-121200790D01*
X91377259Y-121162695D01*
G04 #@! TO.C,C4*
X83649696Y-128368634D02*
X83687791Y-128406729D01*
X83802077Y-128444824D01*
X83878267Y-128444824D01*
X83992553Y-128406729D01*
X84068743Y-128330539D01*
X84106839Y-128254348D01*
X84144934Y-128101967D01*
X84144934Y-127987681D01*
X84106839Y-127835300D01*
X84068743Y-127759110D01*
X83992553Y-127682920D01*
X83878267Y-127644824D01*
X83802077Y-127644824D01*
X83687791Y-127682920D01*
X83649696Y-127721015D01*
X82963982Y-127911491D02*
X82963982Y-128444824D01*
X83154458Y-127606729D02*
X83344934Y-128178158D01*
X82849696Y-128178158D01*
G04 #@! TO.C,C5*
X90788744Y-128998550D02*
X90826839Y-129036645D01*
X90941125Y-129074740D01*
X91017315Y-129074740D01*
X91131601Y-129036645D01*
X91207791Y-128960455D01*
X91245887Y-128884264D01*
X91283982Y-128731883D01*
X91283982Y-128617597D01*
X91245887Y-128465216D01*
X91207791Y-128389026D01*
X91131601Y-128312836D01*
X91017315Y-128274740D01*
X90941125Y-128274740D01*
X90826839Y-128312836D01*
X90788744Y-128350931D01*
X90064934Y-128274740D02*
X90445887Y-128274740D01*
X90483982Y-128655693D01*
X90445887Y-128617597D01*
X90369696Y-128579502D01*
X90179220Y-128579502D01*
X90103030Y-128617597D01*
X90064934Y-128655693D01*
X90026839Y-128731883D01*
X90026839Y-128922359D01*
X90064934Y-128998550D01*
X90103030Y-129036645D01*
X90179220Y-129074740D01*
X90369696Y-129074740D01*
X90445887Y-129036645D01*
X90483982Y-128998550D01*
G04 #@! TO.C,C6*
X101497316Y-132148130D02*
X101535411Y-132186225D01*
X101649697Y-132224320D01*
X101725887Y-132224320D01*
X101840173Y-132186225D01*
X101916363Y-132110035D01*
X101954459Y-132033844D01*
X101992554Y-131881463D01*
X101992554Y-131767177D01*
X101954459Y-131614796D01*
X101916363Y-131538606D01*
X101840173Y-131462416D01*
X101725887Y-131424320D01*
X101649697Y-131424320D01*
X101535411Y-131462416D01*
X101497316Y-131500511D01*
X100811602Y-131424320D02*
X100963983Y-131424320D01*
X101040173Y-131462416D01*
X101078268Y-131500511D01*
X101154459Y-131614796D01*
X101192554Y-131767177D01*
X101192554Y-132071939D01*
X101154459Y-132148130D01*
X101116363Y-132186225D01*
X101040173Y-132224320D01*
X100887792Y-132224320D01*
X100811602Y-132186225D01*
X100773506Y-132148130D01*
X100735411Y-132071939D01*
X100735411Y-131881463D01*
X100773506Y-131805273D01*
X100811602Y-131767177D01*
X100887792Y-131729082D01*
X101040173Y-131729082D01*
X101116363Y-131767177D01*
X101154459Y-131805273D01*
X101192554Y-131881463D01*
G04 #@! TO.C,C7*
X100814907Y-138394797D02*
X100853002Y-138432892D01*
X100967288Y-138470987D01*
X101043478Y-138470987D01*
X101157764Y-138432892D01*
X101233954Y-138356702D01*
X101272050Y-138280511D01*
X101310145Y-138128130D01*
X101310145Y-138013844D01*
X101272050Y-137861463D01*
X101233954Y-137785273D01*
X101157764Y-137709083D01*
X101043478Y-137670987D01*
X100967288Y-137670987D01*
X100853002Y-137709083D01*
X100814907Y-137747178D01*
X100548240Y-137670987D02*
X100014907Y-137670987D01*
X100357764Y-138470987D01*
G04 #@! TO.C,C8*
X89948856Y-141872024D02*
X89986951Y-141910119D01*
X90101237Y-141948214D01*
X90177427Y-141948214D01*
X90291713Y-141910119D01*
X90367903Y-141833929D01*
X90405999Y-141757738D01*
X90444094Y-141605357D01*
X90444094Y-141491071D01*
X90405999Y-141338690D01*
X90367903Y-141262500D01*
X90291713Y-141186310D01*
X90177427Y-141148214D01*
X90101237Y-141148214D01*
X89986951Y-141186310D01*
X89948856Y-141224405D01*
X89491713Y-141491071D02*
X89567903Y-141452976D01*
X89605999Y-141414881D01*
X89644094Y-141338690D01*
X89644094Y-141300595D01*
X89605999Y-141224405D01*
X89567903Y-141186310D01*
X89491713Y-141148214D01*
X89339332Y-141148214D01*
X89263142Y-141186310D01*
X89225046Y-141224405D01*
X89186951Y-141300595D01*
X89186951Y-141338690D01*
X89225046Y-141414881D01*
X89263142Y-141452976D01*
X89339332Y-141491071D01*
X89491713Y-141491071D01*
X89567903Y-141529167D01*
X89605999Y-141567262D01*
X89644094Y-141643452D01*
X89644094Y-141795833D01*
X89605999Y-141872024D01*
X89567903Y-141910119D01*
X89491713Y-141948214D01*
X89339332Y-141948214D01*
X89263142Y-141910119D01*
X89225046Y-141872024D01*
X89186951Y-141795833D01*
X89186951Y-141643452D01*
X89225046Y-141567262D01*
X89263142Y-141529167D01*
X89339332Y-141491071D01*
X90648968Y-142557038D02*
X90648968Y-143090371D01*
X90839444Y-142252276D02*
X91029920Y-142823705D01*
X90534682Y-142823705D01*
X90229920Y-143014181D02*
X90191825Y-143052276D01*
X90229920Y-143090371D01*
X90268016Y-143052276D01*
X90229920Y-143014181D01*
X90229920Y-143090371D01*
X89925158Y-142290371D02*
X89391825Y-142290371D01*
X89734682Y-143090371D01*
X88744206Y-142557038D02*
X88744206Y-143090371D01*
X89087063Y-142557038D02*
X89087063Y-142976086D01*
X89048968Y-143052276D01*
X88972777Y-143090371D01*
X88858492Y-143090371D01*
X88782301Y-143052276D01*
X88744206Y-143014181D01*
G04 #@! TO.C,C9*
X359586237Y-132704684D02*
X359633856Y-132752303D01*
X359776713Y-132799922D01*
X359871951Y-132799922D01*
X360014809Y-132752303D01*
X360110047Y-132657065D01*
X360157666Y-132561827D01*
X360205285Y-132371351D01*
X360205285Y-132228494D01*
X360157666Y-132038018D01*
X360110047Y-131942780D01*
X360014809Y-131847542D01*
X359871951Y-131799922D01*
X359776713Y-131799922D01*
X359633856Y-131847542D01*
X359586237Y-131895161D01*
X359110047Y-132799922D02*
X358919571Y-132799922D01*
X358824332Y-132752303D01*
X358776713Y-132704684D01*
X358681475Y-132561827D01*
X358633856Y-132371351D01*
X358633856Y-131990399D01*
X358681475Y-131895161D01*
X358729094Y-131847542D01*
X358824332Y-131799922D01*
X359014809Y-131799922D01*
X359110047Y-131847542D01*
X359157666Y-131895161D01*
X359205285Y-131990399D01*
X359205285Y-132228494D01*
X359157666Y-132323732D01*
X359110047Y-132371351D01*
X359014809Y-132418970D01*
X358824332Y-132418970D01*
X358729094Y-132371351D01*
X358681475Y-132323732D01*
X358633856Y-132228494D01*
G04 #@! TO.C,C10*
X341479906Y-101603450D02*
X341527525Y-101651069D01*
X341670382Y-101698688D01*
X341765620Y-101698688D01*
X341908477Y-101651069D01*
X342003715Y-101555831D01*
X342051334Y-101460593D01*
X342098953Y-101270117D01*
X342098953Y-101127260D01*
X342051334Y-100936784D01*
X342003715Y-100841546D01*
X341908477Y-100746308D01*
X341765620Y-100698688D01*
X341670382Y-100698688D01*
X341527525Y-100746308D01*
X341479906Y-100793927D01*
X340527525Y-101698688D02*
X341098953Y-101698688D01*
X340813239Y-101698688D02*
X340813239Y-100698688D01*
X340908477Y-100841546D01*
X341003715Y-100936784D01*
X341098953Y-100984403D01*
X339908477Y-100698688D02*
X339813239Y-100698688D01*
X339718001Y-100746308D01*
X339670382Y-100793927D01*
X339622763Y-100889165D01*
X339575144Y-101079641D01*
X339575144Y-101317736D01*
X339622763Y-101508212D01*
X339670382Y-101603450D01*
X339718001Y-101651069D01*
X339813239Y-101698688D01*
X339908477Y-101698688D01*
X340003715Y-101651069D01*
X340051334Y-101603450D01*
X340098953Y-101508212D01*
X340146572Y-101317736D01*
X340146572Y-101079641D01*
X340098953Y-100889165D01*
X340051334Y-100793927D01*
X340003715Y-100746308D01*
X339908477Y-100698688D01*
G04 #@! TO.C,C11*
X291821528Y-103283226D02*
X291869147Y-103330845D01*
X292012004Y-103378464D01*
X292107242Y-103378464D01*
X292250099Y-103330845D01*
X292345337Y-103235607D01*
X292392956Y-103140369D01*
X292440575Y-102949893D01*
X292440575Y-102807036D01*
X292392956Y-102616560D01*
X292345337Y-102521322D01*
X292250099Y-102426084D01*
X292107242Y-102378464D01*
X292012004Y-102378464D01*
X291869147Y-102426084D01*
X291821528Y-102473703D01*
X290869147Y-103378464D02*
X291440575Y-103378464D01*
X291154861Y-103378464D02*
X291154861Y-102378464D01*
X291250099Y-102521322D01*
X291345337Y-102616560D01*
X291440575Y-102664179D01*
X289916766Y-103378464D02*
X290488194Y-103378464D01*
X290202480Y-103378464D02*
X290202480Y-102378464D01*
X290297718Y-102521322D01*
X290392956Y-102616560D01*
X290488194Y-102664179D01*
G04 #@! TO.C,C12*
X234761637Y-102600817D02*
X234809256Y-102648436D01*
X234952113Y-102696055D01*
X235047351Y-102696055D01*
X235190208Y-102648436D01*
X235285446Y-102553198D01*
X235333065Y-102457960D01*
X235380684Y-102267484D01*
X235380684Y-102124627D01*
X235333065Y-101934151D01*
X235285446Y-101838913D01*
X235190208Y-101743675D01*
X235047351Y-101696055D01*
X234952113Y-101696055D01*
X234809256Y-101743675D01*
X234761637Y-101791294D01*
X233809256Y-102696055D02*
X234380684Y-102696055D01*
X234094970Y-102696055D02*
X234094970Y-101696055D01*
X234190208Y-101838913D01*
X234285446Y-101934151D01*
X234380684Y-101981770D01*
X233428303Y-101791294D02*
X233380684Y-101743675D01*
X233285446Y-101696055D01*
X233047351Y-101696055D01*
X232952113Y-101743675D01*
X232904494Y-101791294D01*
X232856875Y-101886532D01*
X232856875Y-101981770D01*
X232904494Y-102124627D01*
X233475922Y-102696055D01*
X232856875Y-102696055D01*
G04 #@! TO.C,C13*
X177544267Y-102600817D02*
X177591886Y-102648436D01*
X177734743Y-102696055D01*
X177829981Y-102696055D01*
X177972838Y-102648436D01*
X178068076Y-102553198D01*
X178115695Y-102457960D01*
X178163314Y-102267484D01*
X178163314Y-102124627D01*
X178115695Y-101934151D01*
X178068076Y-101838913D01*
X177972838Y-101743675D01*
X177829981Y-101696055D01*
X177734743Y-101696055D01*
X177591886Y-101743675D01*
X177544267Y-101791294D01*
X176591886Y-102696055D02*
X177163314Y-102696055D01*
X176877600Y-102696055D02*
X176877600Y-101696055D01*
X176972838Y-101838913D01*
X177068076Y-101934151D01*
X177163314Y-101981770D01*
X176258552Y-101696055D02*
X175639505Y-101696055D01*
X175972838Y-102077008D01*
X175829981Y-102077008D01*
X175734743Y-102124627D01*
X175687124Y-102172246D01*
X175639505Y-102267484D01*
X175639505Y-102505579D01*
X175687124Y-102600817D01*
X175734743Y-102648436D01*
X175829981Y-102696055D01*
X176115695Y-102696055D01*
X176210933Y-102648436D01*
X176258552Y-102600817D01*
G04 #@! TO.C,C14*
X120064432Y-102233366D02*
X120112051Y-102280985D01*
X120254908Y-102328604D01*
X120350146Y-102328604D01*
X120493003Y-102280985D01*
X120588241Y-102185747D01*
X120635860Y-102090509D01*
X120683479Y-101900033D01*
X120683479Y-101757176D01*
X120635860Y-101566700D01*
X120588241Y-101471462D01*
X120493003Y-101376224D01*
X120350146Y-101328604D01*
X120254908Y-101328604D01*
X120112051Y-101376224D01*
X120064432Y-101423843D01*
X119112051Y-102328604D02*
X119683479Y-102328604D01*
X119397765Y-102328604D02*
X119397765Y-101328604D01*
X119493003Y-101471462D01*
X119588241Y-101566700D01*
X119683479Y-101614319D01*
X118254908Y-101661938D02*
X118254908Y-102328604D01*
X118493003Y-101280985D02*
X118731098Y-101995271D01*
X118112051Y-101995271D01*
G04 #@! TO.C,C15*
X77626502Y-106518857D02*
X77664597Y-106556952D01*
X77778883Y-106595047D01*
X77855074Y-106595047D01*
X77969359Y-106556952D01*
X78045550Y-106480762D01*
X78083645Y-106404571D01*
X78121740Y-106252190D01*
X78121740Y-106137904D01*
X78083645Y-105985523D01*
X78045550Y-105909333D01*
X77969359Y-105833143D01*
X77855074Y-105795047D01*
X77778883Y-105795047D01*
X77664597Y-105833143D01*
X77626502Y-105871238D01*
X76864597Y-106595047D02*
X77321740Y-106595047D01*
X77093169Y-106595047D02*
X77093169Y-105795047D01*
X77169359Y-105909333D01*
X77245550Y-105985523D01*
X77321740Y-106023619D01*
X76140788Y-105795047D02*
X76521740Y-105795047D01*
X76559836Y-106176000D01*
X76521740Y-106137904D01*
X76445550Y-106099809D01*
X76255074Y-106099809D01*
X76178883Y-106137904D01*
X76140788Y-106176000D01*
X76102693Y-106252190D01*
X76102693Y-106442666D01*
X76140788Y-106518857D01*
X76178883Y-106556952D01*
X76255074Y-106595047D01*
X76445550Y-106595047D01*
X76521740Y-106556952D01*
X76559836Y-106518857D01*
G04 #@! TO.C,C16*
X72505774Y-132731799D02*
X72553393Y-132779418D01*
X72696250Y-132827037D01*
X72791488Y-132827037D01*
X72934345Y-132779418D01*
X73029583Y-132684180D01*
X73077202Y-132588942D01*
X73124821Y-132398466D01*
X73124821Y-132255609D01*
X73077202Y-132065133D01*
X73029583Y-131969895D01*
X72934345Y-131874657D01*
X72791488Y-131827037D01*
X72696250Y-131827037D01*
X72553393Y-131874657D01*
X72505774Y-131922276D01*
X71553393Y-132827037D02*
X72124821Y-132827037D01*
X71839107Y-132827037D02*
X71839107Y-131827037D01*
X71934345Y-131969895D01*
X72029583Y-132065133D01*
X72124821Y-132112752D01*
X70696250Y-131827037D02*
X70886726Y-131827037D01*
X70981964Y-131874657D01*
X71029583Y-131922276D01*
X71124821Y-132065133D01*
X71172440Y-132255609D01*
X71172440Y-132636561D01*
X71124821Y-132731799D01*
X71077202Y-132779418D01*
X70981964Y-132827037D01*
X70791488Y-132827037D01*
X70696250Y-132779418D01*
X70648631Y-132731799D01*
X70601012Y-132636561D01*
X70601012Y-132398466D01*
X70648631Y-132303228D01*
X70696250Y-132255609D01*
X70791488Y-132207990D01*
X70981964Y-132207990D01*
X71077202Y-132255609D01*
X71124821Y-132303228D01*
X71172440Y-132398466D01*
G04 #@! TO.C,C17*
X84953989Y-175776059D02*
X85001608Y-175823678D01*
X85144465Y-175871297D01*
X85239703Y-175871297D01*
X85382560Y-175823678D01*
X85477798Y-175728440D01*
X85525417Y-175633202D01*
X85573036Y-175442726D01*
X85573036Y-175299869D01*
X85525417Y-175109393D01*
X85477798Y-175014155D01*
X85382560Y-174918917D01*
X85239703Y-174871297D01*
X85144465Y-174871297D01*
X85001608Y-174918917D01*
X84953989Y-174966536D01*
X84001608Y-175871297D02*
X84573036Y-175871297D01*
X84287322Y-175871297D02*
X84287322Y-174871297D01*
X84382560Y-175014155D01*
X84477798Y-175109393D01*
X84573036Y-175157012D01*
X83668274Y-174871297D02*
X83001608Y-174871297D01*
X83430179Y-175871297D01*
G04 #@! TO.C,C18*
X137964545Y-176878412D02*
X138012164Y-176926031D01*
X138155021Y-176973650D01*
X138250259Y-176973650D01*
X138393116Y-176926031D01*
X138488354Y-176830793D01*
X138535973Y-176735555D01*
X138583592Y-176545079D01*
X138583592Y-176402222D01*
X138535973Y-176211746D01*
X138488354Y-176116508D01*
X138393116Y-176021270D01*
X138250259Y-175973650D01*
X138155021Y-175973650D01*
X138012164Y-176021270D01*
X137964545Y-176068889D01*
X137012164Y-176973650D02*
X137583592Y-176973650D01*
X137297878Y-176973650D02*
X137297878Y-175973650D01*
X137393116Y-176116508D01*
X137488354Y-176211746D01*
X137583592Y-176259365D01*
X136440735Y-176402222D02*
X136535973Y-176354603D01*
X136583592Y-176306984D01*
X136631211Y-176211746D01*
X136631211Y-176164127D01*
X136583592Y-176068889D01*
X136535973Y-176021270D01*
X136440735Y-175973650D01*
X136250259Y-175973650D01*
X136155021Y-176021270D01*
X136107402Y-176068889D01*
X136059783Y-176164127D01*
X136059783Y-176211746D01*
X136107402Y-176306984D01*
X136155021Y-176354603D01*
X136250259Y-176402222D01*
X136440735Y-176402222D01*
X136535973Y-176449841D01*
X136583592Y-176497460D01*
X136631211Y-176592698D01*
X136631211Y-176783174D01*
X136583592Y-176878412D01*
X136535973Y-176926031D01*
X136440735Y-176973650D01*
X136250259Y-176973650D01*
X136155021Y-176926031D01*
X136107402Y-176878412D01*
X136059783Y-176783174D01*
X136059783Y-176592698D01*
X136107402Y-176497460D01*
X136155021Y-176449841D01*
X136250259Y-176402222D01*
G04 #@! TO.C,C19*
X206887854Y-176878412D02*
X206935473Y-176926031D01*
X207078330Y-176973650D01*
X207173568Y-176973650D01*
X207316425Y-176926031D01*
X207411663Y-176830793D01*
X207459282Y-176735555D01*
X207506901Y-176545079D01*
X207506901Y-176402222D01*
X207459282Y-176211746D01*
X207411663Y-176116508D01*
X207316425Y-176021270D01*
X207173568Y-175973650D01*
X207078330Y-175973650D01*
X206935473Y-176021270D01*
X206887854Y-176068889D01*
X205935473Y-176973650D02*
X206506901Y-176973650D01*
X206221187Y-176973650D02*
X206221187Y-175973650D01*
X206316425Y-176116508D01*
X206411663Y-176211746D01*
X206506901Y-176259365D01*
X205459282Y-176973650D02*
X205268806Y-176973650D01*
X205173568Y-176926031D01*
X205125949Y-176878412D01*
X205030711Y-176735555D01*
X204983092Y-176545079D01*
X204983092Y-176164127D01*
X205030711Y-176068889D01*
X205078330Y-176021270D01*
X205173568Y-175973650D01*
X205364044Y-175973650D01*
X205459282Y-176021270D01*
X205506901Y-176068889D01*
X205554520Y-176164127D01*
X205554520Y-176402222D01*
X205506901Y-176497460D01*
X205459282Y-176545079D01*
X205364044Y-176592698D01*
X205173568Y-176592698D01*
X205078330Y-176545079D01*
X205030711Y-176497460D01*
X204983092Y-176402222D01*
G04 #@! TO.C,C20*
X253816596Y-176563454D02*
X253864215Y-176611073D01*
X254007072Y-176658692D01*
X254102310Y-176658692D01*
X254245167Y-176611073D01*
X254340405Y-176515835D01*
X254388024Y-176420597D01*
X254435643Y-176230121D01*
X254435643Y-176087264D01*
X254388024Y-175896788D01*
X254340405Y-175801550D01*
X254245167Y-175706312D01*
X254102310Y-175658692D01*
X254007072Y-175658692D01*
X253864215Y-175706312D01*
X253816596Y-175753931D01*
X253435643Y-175753931D02*
X253388024Y-175706312D01*
X253292786Y-175658692D01*
X253054691Y-175658692D01*
X252959453Y-175706312D01*
X252911834Y-175753931D01*
X252864215Y-175849169D01*
X252864215Y-175944407D01*
X252911834Y-176087264D01*
X253483262Y-176658692D01*
X252864215Y-176658692D01*
X252245167Y-175658692D02*
X252149929Y-175658692D01*
X252054691Y-175706312D01*
X252007072Y-175753931D01*
X251959453Y-175849169D01*
X251911834Y-176039645D01*
X251911834Y-176277740D01*
X251959453Y-176468216D01*
X252007072Y-176563454D01*
X252054691Y-176611073D01*
X252149929Y-176658692D01*
X252245167Y-176658692D01*
X252340405Y-176611073D01*
X252388024Y-176563454D01*
X252435643Y-176468216D01*
X252483262Y-176277740D01*
X252483262Y-176039645D01*
X252435643Y-175849169D01*
X252388024Y-175753931D01*
X252340405Y-175706312D01*
X252245167Y-175658692D01*
G04 #@! TO.C,C21*
X302372621Y-177455835D02*
X302420240Y-177503454D01*
X302563097Y-177551073D01*
X302658335Y-177551073D01*
X302801192Y-177503454D01*
X302896430Y-177408216D01*
X302944049Y-177312978D01*
X302991668Y-177122502D01*
X302991668Y-176979645D01*
X302944049Y-176789169D01*
X302896430Y-176693931D01*
X302801192Y-176598693D01*
X302658335Y-176551073D01*
X302563097Y-176551073D01*
X302420240Y-176598693D01*
X302372621Y-176646312D01*
X301991668Y-176646312D02*
X301944049Y-176598693D01*
X301848811Y-176551073D01*
X301610716Y-176551073D01*
X301515478Y-176598693D01*
X301467859Y-176646312D01*
X301420240Y-176741550D01*
X301420240Y-176836788D01*
X301467859Y-176979645D01*
X302039287Y-177551073D01*
X301420240Y-177551073D01*
X300467859Y-177551073D02*
X301039287Y-177551073D01*
X300753573Y-177551073D02*
X300753573Y-176551073D01*
X300848811Y-176693931D01*
X300944049Y-176789169D01*
X301039287Y-176836788D01*
G04 #@! TO.C,C22*
X348776433Y-177980765D02*
X348824052Y-178028384D01*
X348966909Y-178076003D01*
X349062147Y-178076003D01*
X349205004Y-178028384D01*
X349300242Y-177933146D01*
X349347861Y-177837908D01*
X349395480Y-177647432D01*
X349395480Y-177504575D01*
X349347861Y-177314099D01*
X349300242Y-177218861D01*
X349205004Y-177123623D01*
X349062147Y-177076003D01*
X348966909Y-177076003D01*
X348824052Y-177123623D01*
X348776433Y-177171242D01*
X348395480Y-177171242D02*
X348347861Y-177123623D01*
X348252623Y-177076003D01*
X348014528Y-177076003D01*
X347919290Y-177123623D01*
X347871671Y-177171242D01*
X347824052Y-177266480D01*
X347824052Y-177361718D01*
X347871671Y-177504575D01*
X348443099Y-178076003D01*
X347824052Y-178076003D01*
X347443099Y-177171242D02*
X347395480Y-177123623D01*
X347300242Y-177076003D01*
X347062147Y-177076003D01*
X346966909Y-177123623D01*
X346919290Y-177171242D01*
X346871671Y-177266480D01*
X346871671Y-177361718D01*
X346919290Y-177504575D01*
X347490718Y-178076003D01*
X346871671Y-178076003D01*
G04 #@! TO.C,R3*
X87061741Y-121673227D02*
X87328408Y-121292275D01*
X87518884Y-121673227D02*
X87518884Y-120873227D01*
X87214122Y-120873227D01*
X87137931Y-120911323D01*
X87099836Y-120949418D01*
X87061741Y-121025608D01*
X87061741Y-121139894D01*
X87099836Y-121216084D01*
X87137931Y-121254180D01*
X87214122Y-121292275D01*
X87518884Y-121292275D01*
X86795074Y-120873227D02*
X86299836Y-120873227D01*
X86566503Y-121177989D01*
X86452217Y-121177989D01*
X86376027Y-121216084D01*
X86337931Y-121254180D01*
X86299836Y-121330370D01*
X86299836Y-121520846D01*
X86337931Y-121597037D01*
X86376027Y-121635132D01*
X86452217Y-121673227D01*
X86680788Y-121673227D01*
X86756979Y-121635132D01*
X86795074Y-121597037D01*
X87404598Y-123038045D02*
X87861741Y-123038045D01*
X87633169Y-123038045D02*
X87633169Y-122238045D01*
X87709360Y-122352331D01*
X87785550Y-122428521D01*
X87861741Y-122466617D01*
X86909360Y-122238045D02*
X86833169Y-122238045D01*
X86756979Y-122276141D01*
X86718884Y-122314236D01*
X86680788Y-122390426D01*
X86642693Y-122542807D01*
X86642693Y-122733283D01*
X86680788Y-122885664D01*
X86718884Y-122961855D01*
X86756979Y-122999950D01*
X86833169Y-123038045D01*
X86909360Y-123038045D01*
X86985550Y-122999950D01*
X87023646Y-122961855D01*
X87061741Y-122885664D01*
X87099836Y-122733283D01*
X87099836Y-122542807D01*
X87061741Y-122390426D01*
X87023646Y-122314236D01*
X86985550Y-122276141D01*
X86909360Y-122238045D01*
X86299836Y-123038045D02*
X86299836Y-122238045D01*
X86223646Y-122733283D02*
X85995074Y-123038045D01*
X85995074Y-122504712D02*
X86299836Y-122809474D01*
G04 #@! TO.C,R4*
X108216420Y-134586505D02*
X108483087Y-134205553D01*
X108673563Y-134586505D02*
X108673563Y-133786505D01*
X108368801Y-133786505D01*
X108292610Y-133824601D01*
X108254515Y-133862696D01*
X108216420Y-133938886D01*
X108216420Y-134053172D01*
X108254515Y-134129362D01*
X108292610Y-134167458D01*
X108368801Y-134205553D01*
X108673563Y-134205553D01*
X107530706Y-134053172D02*
X107530706Y-134586505D01*
X107721182Y-133748410D02*
X107911658Y-134319839D01*
X107416420Y-134319839D01*
X108821742Y-135583872D02*
X109278885Y-135583872D01*
X109050313Y-135583872D02*
X109050313Y-134783872D01*
X109126504Y-134898158D01*
X109202694Y-134974348D01*
X109278885Y-135012444D01*
X108326504Y-134783872D02*
X108250313Y-134783872D01*
X108174123Y-134821968D01*
X108136028Y-134860063D01*
X108097932Y-134936253D01*
X108059837Y-135088634D01*
X108059837Y-135279110D01*
X108097932Y-135431491D01*
X108136028Y-135507682D01*
X108174123Y-135545777D01*
X108250313Y-135583872D01*
X108326504Y-135583872D01*
X108402694Y-135545777D01*
X108440790Y-135507682D01*
X108478885Y-135431491D01*
X108516980Y-135279110D01*
X108516980Y-135088634D01*
X108478885Y-134936253D01*
X108440790Y-134860063D01*
X108402694Y-134821968D01*
X108326504Y-134783872D01*
X107716980Y-135583872D02*
X107716980Y-134783872D01*
X107640790Y-135279110D02*
X107412218Y-135583872D01*
X107412218Y-135050539D02*
X107716980Y-135355301D01*
G04 #@! TD*
M02*
