M48
;DRILL file {KiCad (5.0.0)} date 08/12/19 19:05:15
;FORMAT={-:-/ absolute / inch / decimal}
FMAT,2
INCH,TZ
T1C0.0256
T2C0.0669
T3C0.1200
T4C0.1201
T5C0.1570
T6C0.1575
%
G90
G05
M72
T1
X3.1185Y-3.7573
X3.346Y-3.7573
T2
X3.7144Y-7.1152
X4.1144Y-7.1152
X5.1206Y-6.3652
X5.5206Y-6.3652
X13.1831Y-7.1152
X13.5831Y-7.1152
X7.7456Y-5.6152
X8.1456Y-5.6152
X10.7456Y-5.6152
X11.1456Y-5.6152
X10.3706Y-6.3652
X10.7706Y-6.3652
X4.1831Y-4.1152
X4.5831Y-4.1152
X6.4331Y-4.1152
X6.8331Y-4.1152
X10.9331Y-4.1152
X11.3331Y-4.1152
X10.2769Y-7.1152
X10.6769Y-7.1152
X12.0581Y-4.8652
X12.4581Y-4.8652
X7.3706Y-6.3652
X7.7706Y-6.3652
X8.4956Y-5.6152
X8.8956Y-5.6152
X6.9956Y-5.6152
X7.3956Y-5.6152
X11.6831Y-4.1152
X12.0831Y-4.1152
X8.1206Y-6.3652
X8.5206Y-6.3652
X6.8081Y-4.8652
X7.2081Y-4.8652
X10.1831Y-4.1152
X10.5831Y-4.1152
X4.6519Y-7.1152
X5.0519Y-7.1152
X6.6206Y-6.3652
X7.0206Y-6.3652
X4.3706Y-6.3652
X4.7706Y-6.3652
X13.9331Y-6.3652
X14.3331Y-6.3652
X11.3081Y-4.8652
X11.7081Y-4.8652
X13.9331Y-4.8652
X14.3331Y-4.8652
X10.5581Y-4.8652
X10.9581Y-4.8652
X4.5581Y-4.8652
X4.9581Y-4.8652
X7.9331Y-4.1152
X8.3331Y-4.1152
X3.1519Y-6.3652
X3.5519Y-6.3652
X12.7144Y-5.6152
X13.1144Y-5.6152
X3.9956Y-5.6152
X4.3956Y-5.6152
X11.1206Y-6.3652
X11.5206Y-6.3652
X9.2456Y-5.6152
X9.6456Y-5.6152
X12.9956Y-4.8652
X13.3956Y-4.8652
X3.4331Y-4.1152
X3.8331Y-4.1152
X9.8081Y-4.8652
X10.2081Y-4.8652
X5.6831Y-4.1152
X6.0831Y-4.1152
X9.4331Y-4.1152
X9.8331Y-4.1152
X2.9644Y-5.6152
X3.3644Y-5.6152
X8.8706Y-6.3652
X9.2706Y-6.3652
X11.4956Y-5.6152
X11.8956Y-5.6152
X13.1831Y-6.3652
X13.5831Y-6.3652
X6.2456Y-5.6152
X6.6456Y-5.6152
X2.6831Y-4.1152
X3.0831Y-4.1152
X9.0581Y-4.8652
X9.4581Y-4.8652
X7.5581Y-4.8652
X7.9581Y-4.8652
X8.6831Y-4.1152
X9.0831Y-4.1152
X13.9331Y-7.1152
X14.3331Y-7.1152
X11.2144Y-7.1152
X11.6144Y-7.1152
X9.6206Y-6.3652
X10.0206Y-6.3652
X13.9331Y-5.6152
X14.3331Y-5.6152
X2.7769Y-7.1152
X3.1769Y-7.1152
X5.4956Y-5.6152
X5.8956Y-5.6152
X5.3081Y-4.8652
X5.7081Y-4.8652
X12.8081Y-4.1152
X13.2081Y-4.1152
X8.3081Y-4.8652
X8.7081Y-4.8652
X6.0581Y-4.8652
X6.4581Y-4.8652
X3.8081Y-4.8652
X4.2081Y-4.8652
X12.4331Y-7.1152
X12.8331Y-7.1152
X12.1519Y-6.3652
X12.5519Y-6.3652
X5.8706Y-6.3652
X6.2706Y-6.3652
X2.8706Y-4.8652
X3.2706Y-4.8652
X9.9956Y-5.6152
X10.3956Y-5.6152
X4.7456Y-5.6152
X5.1456Y-5.6152
X7.4644Y-7.1152
X7.8644Y-7.1152
X4.9331Y-4.1152
X5.3331Y-4.1152
X7.1831Y-4.1152
X7.5831Y-4.1152
X13.9331Y-4.1152
X14.3331Y-4.1152
T3
X5.6944Y-7.3902
X9.6344Y-7.3902
T4
X2.8834Y-6.0896
X3.8204Y-6.0896
X12.4459Y-5.3396
X13.3829Y-5.3396
X12.5396Y-3.8396
X13.4766Y-3.8396
T5
X5.6944Y-6.7902
X9.6344Y-6.7902
T6
X6.2581Y-4.8652
X4.0081Y-4.8652
X12.6331Y-7.1152
X12.3519Y-6.3652
X6.0706Y-6.3652
X3.0706Y-4.8652
X10.1956Y-5.6152
X4.9456Y-5.6152
X7.6644Y-7.1152
X5.1331Y-4.1152
X7.3831Y-4.1152
X14.1331Y-4.1152
X3.9144Y-7.1152
X5.3206Y-6.3652
X13.3831Y-7.1152
X7.9456Y-5.6152
X10.9456Y-5.6152
X10.5706Y-6.3652
X4.3831Y-4.1152
X6.6331Y-4.1152
X11.1331Y-4.1152
X10.4769Y-7.1152
X12.2581Y-4.8652
X7.5706Y-6.3652
X8.6956Y-5.6152
X7.1956Y-5.6152
X11.8831Y-4.1152
X8.3206Y-6.3652
X7.0081Y-4.8652
X10.3831Y-4.1152
X4.8519Y-7.1152
X6.8206Y-6.3652
X4.5706Y-6.3652
X14.1331Y-6.3652
X11.5081Y-4.8652
X14.1331Y-4.8652
X10.7581Y-4.8652
X4.7581Y-4.8652
X8.1331Y-4.1152
X2.8834Y-6.6896
X3.3519Y-6.3652
X3.8204Y-6.6896
X12.4459Y-5.9396
X12.9144Y-5.6152
X13.3829Y-5.9396
X4.1956Y-5.6152
X11.3206Y-6.3652
X9.4456Y-5.6152
X13.1956Y-4.8652
X3.6331Y-4.1152
X10.0081Y-4.8652
X5.8831Y-4.1152
X9.6331Y-4.1152
X3.1644Y-5.6152
X9.0706Y-6.3652
X11.6956Y-5.6152
X13.3831Y-6.3652
X6.4456Y-5.6152
X2.8831Y-4.1152
X9.2581Y-4.8652
X7.7581Y-4.8652
X8.8831Y-4.1152
X14.1331Y-7.1152
X11.4144Y-7.1152
X9.8206Y-6.3652
X14.1331Y-5.6152
X2.9769Y-7.1152
X5.6956Y-5.6152
X5.5081Y-4.8652
X12.5396Y-4.4396
X13.0081Y-4.1152
X13.4766Y-4.4396
X8.5081Y-4.8652
T0
M30
