M48
;DRILL file {KiCad (5.0.0)} date 08/12/19 19:05:15
;FORMAT={-:-/ absolute / inch / decimal}
FMAT,2
INCH,TZ
T1C0.0157
T2C0.0236
T3C0.0400
T4C0.0591
%
G90
G05
M72
T1
X2.7652Y-5.332
X2.8375Y-4.9207
X2.9734Y-5.3366
X3.0167Y-4.3859
X3.0397Y-3.951
X3.0447Y-4.1855
X3.0669Y-4.0424
X3.0876Y-4.187
X3.102Y-3.9473
X3.1721Y-3.9056
X3.4079Y-4.9951
X3.4079Y-5.4188
X3.4492Y-4.8029
X3.4554Y-5.4064
X3.4684Y-4.9884
X3.4721Y-5.2514
X3.474Y-5.21
X3.4761Y-5.1646
X3.5066Y-4.7446
X3.6414Y-5.0178
X3.6435Y-4.3822
X3.6621Y-6.6071
X3.6766Y-4.3193
X3.6869Y-7.2726
X3.689Y-4.7636
X3.6931Y-5.0629
X3.7138Y-4.3478
X3.7138Y-7.3842
X3.7262Y-4.6686
X3.7427Y-4.5487
X3.7778Y-5.0261
X3.7915Y-5.1613
X3.876Y-5.8952
X3.8848Y-5.8566
X3.9141Y-5.4002
X3.9535Y-5.3985
X3.9793Y-5.8879
X3.9804Y-6.6319
X3.9885Y-5.157
X4.1581Y-5.8838
X4.681Y-4.1131
X4.6996Y-4.2222
X4.7648Y-4.2624
X4.9372Y-4.2284
X4.9724Y-4.4536
X5.3051Y-4.4888
X5.3919Y-4.9372
X5.642Y-4.4805
X5.6618Y-4.972
X11.3563Y-4.2945
X11.503Y-4.3234
X12.2739Y-5.8879
X12.3627Y-5.8452
X13.1728Y-4.9765
X13.2555Y-4.991
X13.3092Y-4.1994
X13.3154Y-4.0424
X13.4167Y-4.0878
X13.8097Y-4.3201
X14.0016Y-5.1046
X14.0222Y-5.3836
X14.0429Y-5.3299
X14.1524Y-4.7434
X14.1917Y-4.7409
X14.2537Y-4.9414
X14.264Y-4.776
T3
X5.0681Y-4.5802
X5.0681Y-4.6802
X5.0681Y-4.7802
X5.1681Y-4.5802
X5.1681Y-4.6802
X5.1681Y-4.7802
T4
X6.8581Y-4.7652
X7.1081Y-4.6652
X10.2331Y-4.0152
X10.4831Y-3.9152
X4.7019Y-7.0152
X4.9519Y-6.9152
X6.6706Y-6.2652
X6.9206Y-6.1652
X4.4206Y-6.2652
X4.6706Y-6.1652
X13.9831Y-6.2652
X14.2331Y-6.1652
X11.3581Y-4.7652
X11.6081Y-4.6652
X13.9831Y-4.7652
X14.2331Y-4.6652
X10.6081Y-4.7652
X10.8581Y-4.6652
X4.6081Y-4.7652
X4.8581Y-4.6652
X7.9831Y-4.0152
X8.2331Y-3.9152
X3.2019Y-6.2652
X3.4519Y-6.1652
X12.7644Y-5.5152
X13.0144Y-5.4152
X4.0456Y-5.5152
X4.2956Y-5.4152
X11.1706Y-6.2652
X11.4206Y-6.1652
X9.2956Y-5.5152
X9.5456Y-5.4152
X13.0456Y-4.7652
X13.2956Y-4.6652
X3.4831Y-4.0152
X3.7331Y-3.9152
X9.8581Y-4.7652
X10.1081Y-4.6652
X5.7331Y-4.0152
X5.9831Y-3.9152
X9.4831Y-4.0152
X9.7331Y-3.9152
X3.0144Y-5.5152
X3.2644Y-5.4152
X8.9206Y-6.2652
X9.1706Y-6.1652
X11.5456Y-5.5152
X11.7956Y-5.4152
X13.2331Y-6.2652
X13.4831Y-6.1652
X6.2956Y-5.5152
X6.5456Y-5.4152
X2.7331Y-4.0152
X2.9831Y-3.9152
X9.1081Y-4.7652
X9.3581Y-4.6652
X7.6081Y-4.7652
X7.8581Y-4.6652
X8.7331Y-4.0152
X8.9831Y-3.9152
X13.9831Y-7.0152
X14.2331Y-6.9152
X11.2644Y-7.0152
X11.5144Y-6.9152
X9.6706Y-6.2652
X9.9206Y-6.1652
X13.9831Y-5.5152
X14.2331Y-5.4152
X2.8269Y-7.0152
X3.0769Y-6.9152
X5.5456Y-5.5152
X5.7956Y-5.4152
X5.3581Y-4.7652
X5.6081Y-4.6652
X12.8581Y-4.0152
X13.1081Y-3.9152
X8.3581Y-4.7652
X8.6081Y-4.6652
X6.1081Y-4.7652
X6.3581Y-4.6652
X3.8581Y-4.7652
X4.1081Y-4.6652
X12.4831Y-7.0152
X12.7331Y-6.9152
X12.2019Y-6.2652
X12.4519Y-6.1652
X5.9206Y-6.2652
X6.1706Y-6.1652
X2.9206Y-4.7652
X3.1706Y-4.6652
X10.0456Y-5.5152
X10.2956Y-5.4152
X4.7956Y-5.5152
X5.0456Y-5.4152
X7.5144Y-7.0152
X7.7644Y-6.9152
X4.9831Y-4.0152
X5.2331Y-3.9152
X7.2331Y-4.0152
X7.4831Y-3.9152
X13.9831Y-4.0152
X14.2331Y-3.9152
X3.7644Y-7.0152
X4.0144Y-6.9152
X5.1706Y-6.2652
X5.4206Y-6.1652
X13.2331Y-7.0152
X13.4831Y-6.9152
X7.7956Y-5.5152
X8.0456Y-5.4152
X10.7956Y-5.5152
X11.0456Y-5.4152
X10.4206Y-6.2652
X10.6706Y-6.1652
X4.2331Y-4.0152
X4.4831Y-3.9152
X6.4831Y-4.0152
X6.7331Y-3.9152
X10.9831Y-4.0152
X11.2331Y-3.9152
X10.3269Y-7.0152
X10.5769Y-6.9152
X12.1081Y-4.7652
X12.3581Y-4.6652
X7.4206Y-6.2652
X7.6706Y-6.1652
X8.5456Y-5.5152
X8.7956Y-5.4152
X7.0456Y-5.5152
X7.2956Y-5.4152
X11.7331Y-4.0152
X11.9831Y-3.9152
X8.1706Y-6.2652
X8.4206Y-6.1652
T2
X3.0622Y-3.6018G85X3.0622Y-3.6254
G05
X3.0622Y-3.7565G85X3.0622Y-3.7998
G05
X3.4023Y-3.6018G85X3.4023Y-3.6254
G05
X3.4023Y-3.7565G85X3.4023Y-3.7998
G05
T0
M30
